<mxfile host="65bd71144e">
    <diagram id="IVpd8p_ZFYiGiZU8Sfr-" name="ページ1">
        <mxGraphModel dx="1556" dy="785" grid="1" gridSize="10" guides="1" tooltips="1" connect="1" arrows="1" fold="1" page="1" pageScale="1" pageWidth="1169" pageHeight="827" math="0" shadow="0">
            <root>
                <mxCell id="0"/>
                <mxCell id="1" parent="0"/>
                <mxCell id="28" value="" style="rounded=0;whiteSpace=wrap;html=1;fillColor=none;strokeColor=none;fontColor=#000000;fontSize=18;fontFamily=Noto Sans JP;fontSource=https%3A%2F%2Ffonts.googleapis.com%2Fcss%3Ffamily%3DNoto%2BSans%2BJP;verticalAlign=top;" parent="1" vertex="1">
                    <mxGeometry x="210" y="200" width="590" height="230" as="geometry"/>
                </mxCell>
                <mxCell id="18" value="サーバーサイド" style="rounded=0;whiteSpace=wrap;html=1;fillColor=none;strokeColor=#FFFFFF;fontColor=#FFFFFF;fontSize=18;fontFamily=Noto Sans JP;fontSource=https%3A%2F%2Ffonts.googleapis.com%2Fcss%3Ffamily%3DNoto%2BSans%2BJP;verticalAlign=top;" parent="1" vertex="1">
                    <mxGeometry x="250" y="220" width="540" height="200" as="geometry"/>
                </mxCell>
                <mxCell id="12" value="バッチアプリケーション" style="rounded=0;whiteSpace=wrap;html=1;fillColor=none;strokeColor=#FFFFFF;fontColor=#FFFFFF;fontSize=18;fontFamily=Noto Sans JP;fontSource=https%3A%2F%2Ffonts.googleapis.com%2Fcss%3Ffamily%3DNoto%2BSans%2BJP;verticalAlign=top;" parent="1" vertex="1">
                    <mxGeometry x="480" y="270" width="230" height="140" as="geometry"/>
                </mxCell>
                <mxCell id="17" style="edgeStyle=none;html=1;exitX=0;exitY=0.75;exitDx=0;exitDy=0;entryX=1;entryY=0.75;entryDx=0;entryDy=0;fontFamily=Noto Sans JP;fontSource=https%3A%2F%2Ffonts.googleapis.com%2Fcss%3Ffamily%3DNoto%2BSans%2BJP;fontSize=14;fontColor=#000000;endArrow=open;endFill=0;strokeColor=#CCCCCC;" parent="1" source="13" target="14" edge="1">
                    <mxGeometry relative="1" as="geometry"/>
                </mxCell>
                <mxCell id="22" style="edgeStyle=none;html=1;exitX=1;exitY=0.25;exitDx=0;exitDy=0;entryX=0;entryY=0.25;entryDx=0;entryDy=0;fontFamily=Noto Sans JP;fontSource=https%3A%2F%2Ffonts.googleapis.com%2Fcss%3Ffamily%3DNoto%2BSans%2BJP;fontSize=14;fontColor=#000000;endArrow=open;endFill=0;strokeColor=#CCCCCC;" parent="1" source="13" target="21" edge="1">
                    <mxGeometry relative="1" as="geometry"/>
                </mxCell>
                <mxCell id="13" value="" style="shape=image;verticalLabelPosition=bottom;labelBackgroundColor=#ffffff;verticalAlign=top;aspect=fixed;imageAspect=0;image=data:image/png,iVBORw0KGgoAAAANSUhEUgAAANoAAADaCAYAAADAHVzbAAAAAXNSR0IArs4c6QAAAARnQU1BAACxjwv8YQUAAAAJcEhZcwAAFxEAABcRAcom8z8AAGmISURBVHhe7V0FeFRH1y7/V6HQFgtx3bi7uysxAoQIrsHd2RYvUrQUKVJaSksFKtRbaItDkZLiFhyChOA6/3ln76U3m00IZBOSct/nOc/u3r137pkz58ycsTMvyJAhQ4YMGTJkyJAhQ4YMGTJkyJAhQ4YMGTJkyJAhQ4YMGTJkyJAhQ4YMGTJkyJAhQ4aMZwTGWN3t27c3OHEiv/GJEyeI8CklXDvR+NixYw137dpVX6lUvkyP/Z9A/3sSondxou8yZDwfgMIfyc83HTtiRMh45cjM92bN6Ljg3Xc7zp8zs4OUFrw7i1+f886U3OED+iYmhAX5Kho1cjJuVN/JQlfXuULUsKFz/RdecG7bIsXt/OXzrg8fPmwqsCFDxn8TZGAvJYSGusWFBHVJDA+dGebjuTIq0O/X1NioDWlx0RvxqU64nhQZ9nuIl/s3zgqzjxS6Td43b9p4oaV+00UVIbp/kUmThovcrC0Wp8RGLm4eHzc5ISK4a4fsVpHTpk1rLLAmQ8Z/A+T2vdGlbdvIAHeX6e62VgdcFOYPbIz0H5IxMGtDvXLJykCXE92L+x8IhO8VJoWeDv90tVY8CPJyOxMfFvxlRmJ8m06dOhnn5+fDJZUho3aD3LX6PTt2zEmKjFjjYmlxGsZja6TPrMjILHSbMIumjRm1UvxTncTrZCj8fmsyuKchMjL+LltjA+ZkYQq6GujusjMzrdm0qRPHeAqsypBRO/Hjjz/WnzZ+fGh6fOyXvi6OD+1I0WE8MBwof3UT3isasJu1goX5ep1JT4wdFuHnZ0Ts1lFxLUNGLcOYkSPt22dlTg5wdT5ubYiWhQxMamT0nSs/WrYqIqQvNWzxN9xRauHue9hbrw31cs8NDQ19TWBbhozahXYtWyaE+XhvcVaY37No2ogpSPEfGRlX+ia8dTHTaVRlxN1PtfeC+DUyOGeF2VV/N6clbdq0shTYliGj9kCpVNaLDvTvQf2hC3AZeUsmtCy8FRMMAC2LnakRszczZvb41BI5COkhfdMmDZhJ4wbc6ERDE1s1R7rPz8Vp66DePZJOnz5dT2Bfhozagf7du5v4OTuOsTLUu4aBDFHBQWIL4+vsyFJjo1lWeirLbp6mVcrJSOefSD/Y0405mBtz45LywY2NPr0d7Q7mdWg7aNWqFeYC+zJk1A7EhQdYOpoaT1ToN7kuGhpvycjIQJ72NmxI3z7sp+/WsLW//MzW/fqLVun3337ln0h/6cL5rE2rDOZqZfGoNRX5ATmamRyP9POZ1D47w0FgX4aM2gFbvQbmCr2m4xT6TYvFIXYoNfpN+B4TFMA+W/Exqw5cvXKFzZs9i0UH+XMeTMmNBA8guI8WTZscN2n4xtv6r70mG5qM2gWzBq+YmzdtUsrQTJs0ZDZG+iwpKpx99cXngilULW7euMFWfrycNU+M43wYN3qjhKEpdHWOm+k0ftu0cWPZ0GTULui98oK5aaMGpVs0MjRMWieEh1Zbi3bh/Hk2d9YMFhMcWKJFw3fiDxPYxyOD/GTXUUbtQ0qor7mTuek4SwPd4hJ9NOofYfQv0N2FLVkwXzCFqsWJggI2euhg6hfa8v6hueC+cn7ot4+T3fG8zu0nffrhh7Khyahd2Llzp3lKbPQ4GyODYukkNZTb4I363H2cMflt9vDhQ8Ecqg4Fx4+zkYMGMHdb69KGBqN3czk+YnD/SZv/+EM2NBlPDlLiV7p0adHAx8rqDWWvXm+Qzr0o/FXloHeZ53VoN87exKhYHOUTSbd+Xd5PenvsmGoxtHJbNOIt2MOt4M3hw6bs2rDBSWBfhozyMV+prNe9XTuTAd27e6fGRqZ4OFhl2xobZPm5OWS1TIxL6NOpk1tmZrJhv379XhUeqRKQAVkM7Jk3wd60tKHpvfYqHxSZMn5cjTA0f1eno4P79h67/tdfbQX2qwTESp05c+a8lhoZ2cRFoaerW7++notCods6KUkHOxzof3lzam1A/saNjTvktE5Njo6YG+Hr9bubtcU26iPtIoXaSa7aThdL8y1+Lo6/RAcHzspMS0iMjnapLzyqdZDSKAb17lmmoWGY/1kbGicyNlcriz2ZyUk93n//fUOBfa2D2KizYsUKm7xO7VtG+vkMszU2nGjU+I3JjubmE2NCgkZ3yclprxw+3A33CY/IqImYoBxq1SE7s1dEgO+3/i6OV73tbZi9iSFXJAxGgLBNxEVhxrwc7K4Ee7mvigj06Tmsf387IQmtghRGJzs9tT8Z+BVpH62mGRrfSmOou9XdxrJVdlzcGwL7WkXXru2sU6OiWscEB04L8/X60cPe+oCVod5pU51G52yMDc94O9ofCfP2+jPMx2tukLtLbpvM5o7E9kvC4zJqAqhAUFOadMxuPSomOOCAo4XZXa5AwqZJfBdH/bjB0TWQs4XpnUAP15OtmydPWLHiAxshOa2CDL0ltaaFNsSLqNigmmJoVgYqQ1Po62wy122Y4mlgoNW1jitXrvzf9EmT7NPiY9/0dXLcaWNscJ1kf5fKBhtRBR5g6FRWhnr3bY31b7hYWuyNDwuZMmPKW97bt2+Xja2mYNmCBRYdc7NHRwf673W1VvCCE1esow8iFqhIWDFvoduYQfldrS1YgLvTkZgQ3xFWZIVCklqDTr2Xk4iPC9joKeWhphmahV6TjaY6ryeZvfBCXYF1raBfz56u2RnpM4M8XA/ZmRhx70JBshfLBWWFT95XJL6s9HWYLXkhXva2BVGBvrOiQtzthaRkPEsohw5VdM7JGhYd5H8IRoa+EApMVGheiPQb19WNjv8msjM1pD6K+d/BPu5d+3bubCAkXWk8fHjwFQ87m070rkvihLVIGHXEavrqGnXkw/uDBzLip5ShQdmtDHX/crYyy0ry9NRaixbq42wcHxr6ZqiP53m466j8NFV8JYj/r8NdfkcL05P2ZkZvmurqKoQkZTwLrBLdxaCAg84Ks4eWeirjkRYmvkOxuHJpMkLhfirQ+0GertuyUpO7HTlypIHwiqcG6fZLysH9fCL9vedRH+16TeijjRoySPNgCJGdieFRf1fHCckREVqZR0uLjTUIdHPuQ5XfX9gCBNdQWi4gXgEKJL0OQsVEFQC5lzqHya0dZWnYyERIWkZ1YuG0aVad2uSMjAkM2Ist+Sgc6V4r1NIoQCw1otqa7/Uy02nIDBu8xgtcdFlAuA+K4GJl8SAmyH9jz84du/7yyyY94VVPDNLrlye8Ncq7dXryFDLeQ2Ro90Vl4oZN3zGHRn0RNnfmDJUlVDFOnTzJJrw5mvm7OvP8QhZi/sETGcN1bwe7XQmhwSNnTB7vQsb/ipCdJ8aGDRvMenXq1MvP2WEzVX63NXkT4AEtuuEb9bks8FtaJrxiEp5R6DXdq9DVGWlp3NRKeIWM6oByyBDTTtmth8cEBx50tVJodEnQWsDIsPGxRVI865fXnbVKSWLOlubMhApWunodxA2B0vB2sGXx4aGb22S2yPH09Kxwy3b27Nn6A3v1smyVkhJA78lKjAiZFezlftDdzoobsdTQ8G5cS4wIY59/skIwharF5UuX2IdLFrPkqEguL+NGrz/KO3hCH9JFYU6G6Ph3WlzUtLwObXOTIiO9MxITjcjoKjzfuGjRoqYDenbPS4+N2UoV1z31ssF3lA0+Xags/FwcmZuNJecJ5SLeV4r0mh600NUZrjBoZCq8SkZVQjW62Gp0dGDAATIahF17pMQi4bdRw9f5UH5GQhz79KNl7PChQ+yXH35gXdvkwk1iBq/XK6UAICick8L8hq+zw7cBXu7JpKOPndP59NOFjYcPHhCfnZH6TqiXx28uCotD9qbGhdSpv29jrF+q9TSkd6MV7pfXjW3esF5lCVWMu3fvsh3btrE+3brwfCL/Ik8g8IglYTbGBvfIDb/g5WB31MvB9psof+8h/fPyIqmV0hWyWyYWzVzUtHfXTh2pAlznbGF2h49mSmQMQv7RgnmRC9shK5ONGTmM5XVsT31Ha966qZclSBgxfkAt2wFyI0fLbmQVY+Sg3tYdc7NHRAf574eiohDV3UXUlsZkZOjkt0hKYB9/sJSvXAfu3L7Dfvj2G9alTQ5zNDfl6w1xv7ohgMhIi6hF+rR/77xIerTUEPOpQ4dMBvfvHR0bHNg1zNdzSpiP15pAd5dT4MvWyIB4Uw3AqCsO3tfoxTp8x/Ny4q3wgoq36kDx1avsvVkzuVIbkQutzhvkiWswEAdVKIT7zgrzfB8nx6/iQoNnZFL/tV1Oq4DVq1e/LojhERAbMjU+JglzZNSS3TRv2qh03ps05CEVHC1MWfcO7diPa75l/+z5m296HdK3N/O0s2H61HeFIUrLhE/JcILhNt1PxjZSoaNjLbxahjZh0KiRaVxYEBlZAB9dLMtdFFsyuIsfLl5MinxBUDMViq8WUQGvYW1btmAW9DwKVWqsIBgJ0vZ2tCtMi4/5OLd5alJWerpZ5+xsg4Rwf7PWGan+3drmDkhPiP0s0MPlELk+9+Giqp4tyZOU0CfB+3Bvv+5d2b69/whcVR82/vkn60EtCJRd77W6fBlYeTzz/4iodWMxIQFHIgN834/082vTpnWGT0pMjEnfvp0NOuXkWMRFhDQjN3kJucRFQgtUgmB0MG70ldtTS7bmq9Xs9p3bnCdUgFs3bmRD+/Zh7jZWVIavcVmp8yWmS9cPW+rrjJDdSC3DXF/fjDrDo+3Njfc5WZg+tDH6t88jEloPFKQ1uT/NE2LZ8qWljUwE+itL31/ImkWFM0uqOWGcJQtVcCPJYN2sLS8He7j+Sfe+mxwXNTrM22O2h63VL2Tsh50tzYoczEy4K8rdJOJJXTlAuAZ+MRCDe3t26sg2/Pk7u31bpWjViWvFxeyXH38gGcUxvfqq1gO8qfPNfxOJn6gcXCzN6NO40MHcdK+vk8OP0QF+U3JbNB/VKjlxoZ+r8wYrQ91CTRUg0odBw1AQv+TLzz5lRUVXBI5UuHXrFtuyYQMZW28yNkvirW6pChAET4U+H1LLtg9uJHRDUBMZlQFcBAvUXnAZqADVR7DgYqATrf/6q8zB3IS1a92SrfhwGTtz+rRQhJpx7MgRtuDd2Sw+LJi7NDA2FKzUZRELGnE2qNN+keigu61lIW+9iAf8LyqpunKB8B8UGUrTtN4rvF/Wq3NH9vtvv/E+07PC9WvF7PMVH7Oc5ul8cAjuGlo3Ta2INC9wB1GZ8H4stYie9janQrzcD4R4ul+FjB4ZptpzkIFp44YsKTKMLVk4/5Errw60bOizDunTi1FlRmVaj5eLtExA3I0kg4NOcN2Q3chKoY6RUWNjDOtS4R0SBSwtSHxHTYk+GdzJru3asDVfry5VW5aFY0ePsJlTJ7PYEGHXMaUFxRDTFwkFjVFCfHIS/1NTKhCeRzpQWrH/R30WFuLlQf2QXmzT+j9Joaq/JVPHvbt3eN8IgyNkLLySAv8YEYVhYPhfXRZS2YuygFxE2UjvBeF+k8aq/ha5/GzuzOns3LmzAgeacZu3bGRs1LJhNBJeiib3VuJGHoKOWBkZGdPj8mLkJ4Wpnp4FXAMS5D4uWA0FCUXWrf8K1X7W3L9H1KeKGhnw4OEDVnDsGJv9zhQeKAdpQsnUCxW/RbeQ/6f2v/Q+8ITRM+4mUsuXFBnOlEMHs9Wff8YO7NvLXaSagps3b7A9u3ex5R8sYf175rGoIH+eD7TA6CdpcgNFEmUBYwSp34drmBQ3JYNFQKAFc+ewUydPCG8uH7du3eQt29B+fXjZoowhV2n6IFEnyND22RgbKjOaNbMQ1EdGRWD8xhtWlgY6wy31mh541HpICAKGS4FRQ3LluKuBzvTTumOHDu5n0ydP4q0OVmzASDQVrDpBuaBMqHWbvPIif9bJwoxFB/qxNi2as9FDBlNfcSnL372bPSSjrqlAv23Lpo1s8YL5bPjA/jweZLifN++joh8Hw4PXoKnPpIkgOz6i26QRiyPXHJPyFTUyEXfu3KYyRZ+tDy9jpKfJjQShErQzNT6YFh87XKlUypPaj8PatWtf9HW1NadONVoyuIsP1Q2NKzcVOFoNdJrhYmyhAoHL8bSAERzYt4+NGjyI+bu5cFcILhRcFigN3leC6JpqqJpcGipkKCQGOfzdnFnn3Gw2f84stuH338lNOsdbsAcPaq6Ribh//z61cDf5dMPm9evZzCmTWVbzVL6SxMnclMtEdIuRd8hAXSb4z5RcRcjOxsiAKhz/CrmLZQFlupUqAJQxyhpljndpaj0dzIwfUot8qH1261FYmkePy25kWRg1bGBgVJDvHGdLs4NYtwghSg0NtRkKEwty3amzjBEq9HngalQWULT8v//mtW/L5CRuOE1ffUXVwgm1qUiY7EUtb9igPgYEWJuWGWzyuDHs808/4S0Dau87d+4IKdc+3Lt3jx0/epSt/+N39sUnn7Bxo0ayjKR4PnCCvGNgh7cw1JKrZPIal1GTui/xlh2DRZDJB+8vZCeOHxdSfTrA2FDGfDSSyhxlDx2QtmwwPOzEcLNRwE3dS5XdqHkzZ8rnCKiD5FlXOWJEUEazhEWB7i7FzgozjSNYcF/g1kHgg/ugJduo9YGFc2fP8GVRIwYO4GG648NC+GABIlaBAohCvD14TEasbJigHMW+Xb2anTl9Skjhv4cjhw6ylcs/4q5wLrnECJMX5uvFgjzduDyCPFxZpL8v749mpaewEYMGkExWscuXLgopVA4oY5Q1yhxlDwOHLkh1A60aRqQxshsbFHAQS/RGjBgg99lEkBz/N2f6FN+0hNilfm5OxY7mJqX8cNFdRG2Kkaih/fqq3MUqGr27fv06n4PbtWMH+5QUbPrbE9n4N0fzRbnjyLBmTZ3Cvv7yC7Y3P59duniRByf9LwOu9fVr19h5coV37fiLrf5sJXt3+jvs7bFvcXlMGvMmm0fu8nfffE1ewW52/vw5rcsEZY0yR9ljUhu6IHUj8an6zk/HeYAdHVQRKmU3UkBGsxirVqlJUwM9XM/DyNCSoXYSjQxGh6FyuGoQMPz1zRsq1yd7EsCQjhw6xFdx7Cfa988/fFoAy5meV1wtKuKjtQf37+PyQP/25IkCdqOKKxyUOcpeXEECnYBuSCtmGB8+0bJFBwXsww6P6ZPGPL+bR0ludc6e3VU/PSE2N8DNeR+MTNPKCgy3w1XAyNPgPr2qxF2UUXuAsscACXQBOsHdSLUpGXyHG4m51ejggAOdcrJ6KPv0aahUKv9PUL/nBySzl6ij7ZEeH/Oug5nRTQx6qBsZaiesWkDthVoMo2HPYtmSjJoF6AB0QWzZoCNiSyYSvCKcsIq4MFGBfp91bpMdM23atCoNL1gjgdh+Iwf3y4wN9v+Nmv6HqIFEIYnuIgY+vHC0EdVemMCsLndRRs2Hyo1ULdfyFLbYlOVGksd0KjUuenyMn19jQf2eH3SMiWmcGBU2wMfZId+aDA0r5kUBoTaCkDDCxCejyVWQWzIZ6oBOQDcG9urBN5HyeU2JV6Rq1fR4ZR3m4/l113atn781kf4uLrr+bi7jXCwVJ3ktJAgIwkHNhDmbDlmt2I/ffSv3yWSUCSwIwG4ErHNFn0zaX8MnuiRYUODr5LBp5ttvh9Mj1RYSvkagWUSEXmxw0FQfR4fzqHUwECIaGoSFGqpb+7Zs25bNKonKkFEGrl27xr7/9huWEB7CmtZ7uUR/DcaGVSs+Tg47Plm2rMWThGX4T2BAt2662c3TJoT5ep/CFnqxj8YF0xSr3puyyAA/vpzpQjXuQpZR+4AoYrt37GDN42NZ41f+V2Kdqmho/i5OO1d+sjyTbn9NUMHnAxOHDm3UpkWLfqHeXn9Ti/YQLVkJ4ZDhiavf35s1g50+9d9deSGjcig4dpTNnTGdr+DBvsQSI5CkS6jEqUX766PFi9Ppdq0GiK3xUCqVdbu2bRsW7Om20s7YsMRokcrYVCHR0F/DKZXz58zm6++eBzygGvravQfs/K177MzNu+zczXvlEu7BvXjm3oOqjxFZU4DdGliJMm3ieBZLOoINqWjNUFGLeoQ+Gna/e9har5v81lv+9Nhzd1pNne0//9wgNiRgsKetdZGDqTHvn2EJjdTYsBIcRoiV4NPfnsQOHzzIHty/r5J0LQdM4i4Zxq37D9mN+w/Y5bv32Ykbd9m+q7fYnxeusVUnrrKVx6+wzwuKyiXcg3vXX7jO9ly5xQ4V32YXbt9jNynN25T+PTLc/5r5YeHz9q1b2LAB/ViAmwvXlxItGdcfHW5k1N+/6+vitBQxTgTde/7QtV276MTI8F/crBU3sf1COswPEkchLZo24ZGjsLB1119/CeKuvYARHLt+h20g41h1oogtPXKJzTlwkU3de4GNzz/HRu46w/pvP836bDvF+tJneYR7cO/IXWfZ2D3n2KT882zW/kK27Ohl9t3pYrbl4g3+Lrzzv4L1f6xj/Xt0J5fQni8wxgAadEV9Hg0DbaHeHgfbtGg+sEuLFpWOQF1rsWDBAuMenTt2ign2/4OMDaeMPBqBFEns0GJtm5uVgo0cNJDt/Gs71WrPLu7GkwIe3SVqZY5cu8P+unST/XCmmC0m4xr79znWY+splrW+gKX9foylrjtKdIyl0/fmT0h4Bs+Kz+duKGD9/zrNJpLh4V14J94NHsBLbfQy+YbQzZt4TExsskW8GHQxpO6iqDMYZKPWrDg5JnLe9MmT/deuXft89c+kINn9b+7cubpD+/TpnRoTvdXezPiOygUoLTi0bKaNGjB3a0s2rH8/tnvXTvbgQc12IxFWH32nQ9dus29PXWXTqMWC8nfdfJK133iCG0Pmn8dZxh8ljQa/WzwhqaeBa60pbbwD78I78W7wAF7AE3gDj7UB2EC7eeN6HucES68ebb7VYGQgJ4X5rVAvj19aJsU1g5FREvIq/u9XfW/eMSenvZeD7WrqwF6BG6DesoHQZ9N/rR4Ptjmsf1+2Y/tWVSnUQJy7dY/6TTfYR+TCwSUctOM0a0NKn0ItTtJvR1ny2qO85YFBtPrjODc4bVJLShPGh3fgXXgn3g0ewAt4Am/gEbzWZNy4fp3HguyUm8WDHWHDKbwcdSOD3ljoNsbG3UIfR7uVSRGhqbmpqU0ENZMBtMjLey3Cz6uZj6PDp84K84uY0YfwpMLEdwgTa9sQd3/EwP7cjXyW4dukuH3/ITt78x7bffkmH6hQ7j7HWxQoO5Qeyt+KjEAkTQYiEv7H/RWhiqQlEu4XDRC8gUfwCp7BO/JQk4C9bWt/+omHx+O7OcjIoAOiToh6gYoZAVo97G0u+Ls4fhTm4RHLXnhBbsU0oUVo6GtDB/aNaZkUv9Tbwa4IIQVEQUoFCzcS5EZu5MhBA9ihAweEYnl2uEOdnl2krIsPX2LDd53hrloOKTLcOPS/REMr1xAkxvO0hDTE9DS9C/eAF/AE3sAjeAXP4H0n9eOQl5qCHdu38aCzPIz76/V4uUt1AcQ9IL0mLNDdtbBtZuby3h06RCYlae+st/8ksEzmnYkTo1omJX4Y6OZc6IRd1yRMTcbW5JWXWIS/D/tw8aKnDgKjDWBU7/vTxWzKP+dZZ1JaKDHcNShyWQoPwn9wHdG6YCCkGT2TQC4ePlvSf3DzOm46wamDGonXcQ/ulT6LtB65pcK7NBH+A4/gFTyD98mUB+QFeXqWwIqPi4WFbNF7c7FWkW+HURmUmodDfXoMfPg42Z9u1Sxp0ZypU3FewvM78PEkgLHNnfVOREp0xCJXS8VZWyP9B+qT2hA6XAknhRnr2jaXbdpQPSezSFF87wHLL7rJllBL0GvrKa68LajFAIkti7pyo0WBcsMQ8IlrbclYOm8+wfK2nuTD9UN2nOFD9TP2FbL3DlzkNFeNxOu4B/fiGTyLNJAW0kTa0nfh3VJeQOARvIp84xrygjwhb8jjswAWk2/843ce3RmeDVozafnzyWhDPWZtoHeXPJujGUkJc8cqR4TQo7K7+CQggdVLi4lxdbNSjHZRmB9yJP8bxiat0URjQ0zGVZ+t5AVUXSi8dY8PmY/bc5aP6kGJy2tFuEITiS0YKGv9cW4caEU+PHqZpwfX7cDV2+zotTt8AvvUYwj34F48g2eRBtJCmkgb7xDfJ/JWFn8ib8gL8oS8Ib0Lz2Cw5OrVIt6aIcoxyhxRj8Vyx29EvsIQP9YxpsdGDhvSr5/riRMbn7/NndqCh5WVZUxw4HgPe+v96PCqd4QRgsyB/Pd5s2dVedwKAMucoNiYaB668wzv7ySR6yW2BpoUWHTPMMcFt284PTd93wX2gTCpvJ0MpOD6XXbtbuVbD6SBtJAm0sY78C68E+8GD49za5EX5Al5Qx6/pLwiz9W5xAsx+hGMx9pIjy+tkpY7DM3e1PCmn7NjfsukhJELZk2RI15VFiTzOu+9955DuJ/Pu+RC8APupIaGAxpsjA14pKqqDvuGETksc1pEblVvai1ENxCf6kqLa1BUtBJoVdBC9Nl2ms3cX8h+O3uNHSdjuIH1idQXqQr9RZpIG+/Au/BOvLvf9tOcl9bEE3jTNEiDvEjzBlcSeUbeq2tUEgeVICAtYkWqD4DA0HCYfHJMxISRg/s6Cqoio7IguddJT4zvGebtecXVyrxEp1j/dTI06gyPGjKYxyBEJ7oqgNp804UbfMCj25aTpKAql6wlKSomhtUVFQqMeSv8HkatAp+zOn+dr8y4erf6J9rxTrx768Ub7ONjV3hLBd7AI3hVryiQJ+QNeURekWfkHTKojpYNOzYQO7Phi3VKjzRS2TtZmu3p3rEdVuQ/f0F3qhJZzZt3iwrwu4KVIVg98q+hvcp30SJu/P69e6skBDdaBSgoljOhJRCVT6qYImH0DtRmwwk2aMcZNudAIfuZWpPT1JeqKThLfa6fzxZz3sAjeBX51pQnsVJB3iEDyAIyqUqgReuY3Zo1eun/NBqai5XFrreGD06kW+XBD22hqKioUXpc3BgPW+s79iZGj4wMxF1H3qIN4jEYtW1oqL23FN5g4/aoJp8zflf1YdRbANXInWp0D8Puk/IvsF/JwM7dustX0VePw1VxgCfwBh7BK3gG73zARK0SQV6RZ+QdMoAsIJOqbNnKdR3Jo3G1URzp061z7wsXLhgIaiKjMkCYsGF9+wZH+vmsoL7YQ6nAQdi+jn7blAnj2JUrl7XqOqI/sqnwOimiyshQ46v3Z0RFRI2PgYY+20+Ra3aZ/X35Fit6Bi7ikwI8glfwDN7TKA/Ii3pFAkLeIQPIYiLJZNOF61XWZzt75gzr1aUTj+2vvqYRhuakML+cFh+zdNjAvoGCqsioDHJzc5u0Sk4a5O/qvBchDtRHn+A6ImLWB+8voOLRXqFjr1h+0S3eL8kiJYP7VGrQgNfyKpcrd8NxNnznWfbVySJ29ubTuYlYSnbp0iV2/NgxHnJ8986dfN/V+t/X8fPf/lj7Gyd8xzX8h3twL57Bs0+7HA08g/cRu87yvCBPyJt66wYZiG4zZAMZQVbaBqJEI9y4t4MdL2esbZQamr2p8b0Ad5d/4iOCO9HtsvtYWTSLibGKDvJf7u1oe0dqaBA2hn2tDfVZ88Q49tP3a1QlpCVg4AAjbd02n2TpVMurD9+L7hQUD8uYxpM7tZncKb4iXkijIkALfP/+fb4KYtuWLfyQDbTO2G/VpW0uy0xNZtQ3ZcEebizUx5MTvuMa/sM9uBfP4FmkgbSQ5pO07rgTvMMlRF6QJ+RNk5uMa2j5MEACGUFW2gbWOOKMg+zmabxrgKjE0grWjvrlrlaKu2HentMXLpyhJ6iLjKcBVohkpabGeznYbHOywAEYKiFD2BgQweJiP1dnNl45iseC1xYQGgDzZL22nSKlKt1vgeKp+jPHWd6WU2zO/kI+QIDd0k8CHGuEVemIeTF66GAeNg1HJOG0FhzogUWyyKdO3ZdYg/+9wAcGQPiOa/gP9+BePINnkQbSQppI+0mPToIriLwgT8gb8oi8So2Nt+SCXCAjyAoy02a7hooC4SvGjhrJV4bovPrSI0MDWRPhepi3x0+jhg+OX/3++6+rtEbGE2P21Kk2zWNjxzlamJ5GCyYVNFozrH9LT4hlP//wPQ87pg1gwvfHM8V8SB5rCNFfERVMNDIon6hkS49cZvuLbrP7FWw9sOXj+LGj7E9yAWdMfptlpjRT7a+i/GAjI7YC4TuMCIQWnE9nCJ/q38X78AyeVW2GbMTTRNp4B96Fd+LdFQHygjwhb8gjhvk1tWyQDWQEWUFmxVruk96/d4998uEyfiAiugjSHfiiPgR7eRxv3zpzytgRI57fUAWVReuUlNSIAJ+1DmbGt6FMj4RMrRqUCZ99u3dhJwoKtDIIAqcv/8otPqqGGlucsJUql6omp5Zs60keguAYuU0V7aNcvnyZ/fbTj0w5dAhLiY1iXg62/OA+dPb5gYfkHnFDod+ikalXMFISDY4bGj2DZ5EG0kKaSBvvwLvwTrwbPFQEyBPyhjz2oLwiz8i7VBaQDWSE65AZJrSfzHF+PLCGtX3rVjjVk5c58ivmHeXv42R/NzY08LfmcXHugtrIeBKQjF+MCvQd6uNsfwlCFgUMglLhM9Tbk707fVqFa+rH4eSNu3yrSLuNJzQuq4LLhEGCnPUF3LU6WFyxKMo4JxpHDr07fTqfhPV2tOc1NIauxXgXYt60RUgTaeMdeBfeiXeDB/ACnioC5PHdA4U8z8i7+uAIZARZQWbor0GG2sSZU6fYezNn8j4pKhFUIMif2IVwsjBlnvbWR5Miw7N+/vnn5zcuyNOA5Ftn3szJlmE+noudFeY8lJgoWBBcRnSQ8zq2Z3+sW1vpsOGog9E3+f70Vb7cCMqD2lrqKoluJBRu/J7zfODjce4iWlkMTHz/zdesd9cuzM/Z8ZGr96jFkuQLhN9ibc1DpeN3GVTi/zLSwjuk7wQP4AU8gbfHeQLIIwL8IM/Iu+guinKBjMRBE8gOMoQstdWu3b1zhx/X1bZVC2qpsR/t38XFnCiP9mZGlxPCw2aPGz7cTVAhGRXBqiVLGg7q2yuXDG0jDIorlER5mtR9kddkOHMaB+NV1m28SYqx6zKG8i9w5dHcLzvGUuk6FueKo4uPA/pFSxbMYznN05iLpQV37eDWiW5vCYWR5I//J/4vfi+LhHsePSdJSyRcxzvxbvAAXsATeAOPj8N1yivyjLxDBnxwSCIfkCgzyBCyhEy1hcLCC/zIXgyGYfJamk9UHrYmhncjfH025qSlZQoqJKMieHvcOI/m8fHLfJwcCiFU0bUSv5vqNORnKWMQRBvAiBlcRmx8xByRel9EnFPChO43p4oqNLq4e9cONmXCWJYUGcZ5x34qKLuoIDw/+v+2RtjAiP1VHrZWzMfZ4Zanvc0xTzvr7b7ODuuCPd2+D/f1Wk0VzxcgfMc1/Id7cC+ewbNIA2mJLRzeIX0neAAv+A7ewCN4fRyQZ+QdMhDnDqUygsywcgQyhCwhU23h7r27bNmi93kwXWyVwqCPmB/kEZWxm7XlpbiQoNkrli79bx8UT/Ko0yUpqV5kpHeT2OBgA3dbW0OTJk0eka2JiWGAu7thZnKyYY8OHQx79Ohh2Dk72yAuLqipg4NxY2dT00bednZNxowZ6dgqpdkQXyfH/eibicLEJ2ov9DtIwdiowYPYvn/yVSVRCWAcY/eVm3yiFsqj7jLie9q6o6wj9UGWH7vMzt4qvw+CCeO9+XvYyMEDedxBS72mvF+hyU0UNy+Sojy0MtS94WBucjHcz+tA88S4b9MS4t7OSk3uNqBXXsbHixdHbNu0yXfv7t0eIHzHNfyHe3AvnsGzSANpIU2kLZWf+J1XVujrEG/gEbyC58dNdiPvkAFkkfb70VJyguwgQ8gSMtXWPDaW1e3cvp1HP3O1suBdB/U84dPfzXln13Y5A5XDBjiFhnrqQKccjI0bQ8c6d842GEQ616FDpmFyVJShVD/xPSLCVy8xKKhR29DQmrs7m2RRZynVJFRDtgrxdp0S4u3xubut1SoLPZ1VVLtyon7WqgA351VpsdGr2mW2WNUxO2tV69Rmn0QH+s11UpiOtzE2VHra2UwO9vJc6efstNfBxPg2FFEUJghuA4ScHB3JPv/kE3algiNo5QEBaRCcpuuWkyyZDKqE8qB1I8VBuAAEJsVSpcfpDoIFYd0lhqQRSAYBPlFBSPOhUgzVpCtOzvFzcTocFej3CXXoR2anJWd0zskJ6NOtg+1kpVL/8uXLDShZhEt7FM4a33EN/+Ee3Itn8CzSQFpIE2nbGhnw90kVE8QrLeINPIJX8AzeywPyDhlAFm03Yt1n6flFyBCyhEwhW20B0zcY6sdkvW69Vx55OaI88dvO1PCmr5P9P5EBPp8GerhOo7y/aWtiNCbS329uTvP0zzrnZq/Kap66KjYkcJWbtYLrpblOI/6dvISlYX5eo6MCfBOUAwfqC6KuUajXIikuqFl05DgqsJ/IwC75OtvzmgdrEGEsIDsTA+btYMsoI2QoEYwMjsWGBMBNum1nYnjWylCvwMnC7CL6D45miBNScjc1vsPQ4Pr07NyRH1Re2fDg6NptuHCDR4JCR7+5Wt8D7lAKKc6gv87wxbdFd8p/38mCAu6K+TjaM6MGr2vsi/GWjQg7DqhiORnq7fUjVRwjB/fvHb1z404jQaZPDaSBtJAm0vZ1dDiJ/qzq3aUNHjyCV/AM3k8UHBNyoxmQAWQxeMcZLhupmw3ZQYaQJWQK2Vay+1wC2zZvYtnpqY9aZPUKjLvfpHNYkkd0xdpA74SNof4p6oLcSggLYenxMSwxPISFeLrxCg6T3ujf4rs3tewedtYFpKNfhPn5DG8WF+enVCprRoAfPz+/Vy31moQRo4vJR77oaG5yB2cH2xrrc5cInVfR0OBbw5e2NzHkcyIgzPPgmhgPBM+oniu5uROETjwUNNzPhy14dw67roUJakxOf0SuEFqsUqsfiEQlwnaSczfvltuaYQQPgwvo90CB0VKoVxQg5I2M7I6LtSI/PiT4nUG9e0dOnTpVZ+XKlS8LYq00kBbSRNotmyW+E+Thkm9vZnJHyoeUL5FX8L54/ns8L2UBMoAsMOQP2UBG6nKDLCFTyFYbu8ZFnCg4zmZMeZtFkA7A0PiqfrW84FPUI/E61zvSNdJP0jsj7klwPaP/QPgu6qGDqdFt0uVCPzfXRbGhgWH9+vV7tuERKN9127VqFeCoMFlENcc5nApjY6QK6c1rbYkARMJ11EJilFnUpriG/5DhskbPcI9uvZeZs8KMhwTP371bJflKABOyOBBi6t7zfMQMa/fUlQU7o7Hq4dezxeVuCYEL+/033/B1eeAXnXX12ha/0aJ42FsXxwT5fxfu79MhKyPDmR7XmoGpA2n369HDOTUupkNsaNB3VGMXgwdNvIkDDORa8byU55ZDFpAJZAMZqVdS4g4AyBbzcNpadHzr1k22a8dfbEDP7uQhGfEKQlMgVXEgSPwN/YGuiTqH/Er/x3eus0QwOBy6QnTO08FmUfd27QLo1c+u3zZm5Ej79PjYKa5W5udEAxEZ1xbBFcCQtP7r9fhwfl6HduxPzJvdqfwi1svkAq05fZVH7VWNmJU0tGZrj7H2mwr49hFs2ixvZgjzPH26duHD5hjRA99iHngh0m8UoKe9TXGz6IivBvbo0Zweq7bCw7vwTnLvvwIP4AU8lVBG+g3ecawx8oI8lQXIAjKBbCAjyEpqaJAlZArZfnPqKpe1toCy/2bVl7xSc6AWCjxr6gdXhiAXGJ2Lldk56Dh0XRBl9SMlJjIr1MczH62Meg0CUrVeVHugBhFqESmhYDVdU7+OmhaLR3t06sA2/PE7u3nzpiDyygErzhGHHi6OOEEtNTTsLcNpLdsulj8xffnSJTZ3+nTm6+zIR0RRY6q7M8iTp4PtVeqQfztqyJDmy5Ytqy+IsdqAd75F7wYP4AU8lSgz+g7eVaO6jjxPyFtZgEwgG8gIspIamjiBDdki9Li2V/dfOH+Orfx4OcvJSEfsEK4nOOxC1BlNuiVSCR0T9FL0qkqUGV2DbkPHoeuCGKsXlNeGUUF+Y12szO/C3+U1gFBo8HPBJGoacbU5p5f/jzWp+xJr+urLfLNm03qvCJ9SeoWPKOH+hi/V4b4zBk6wTg/7r3CaiLaw/fJNftwRYmaUUJI/sfKBWrONJ/jxRwjnVhZu3LjO1v78E+vQOpMKTdX6SgtMHHzwtLMpQkumHDY4nRUVNRLEWO3Au8EDeAFPUh5FQh6QF+QJeUMeywJkAxnxcHuC3EQ5QqaQLYIBQdbaxvlzZ/nZ1aOHDmKJEWGkd035cjOuX490rDRBv6BnuBd61vjl/zEDyjN0VhwbEPWZjwqTjkPXixir9nKrs2zZQit/N+f3eOEIBiYSaggYSJCHK0uNi2ZpcTGcUmKiWHxYMF+zFunvyyMM41NKuBbu580/m0VF8NHF5UsXs6OHD6uGCLUEnBX2w5mrrMvmk3ydntTQMGqG/gVWQSByVFE5nXkc66ocNoSP2CHfvDUT5ICCQuE7mhnfRv+ob17XjE8//fSZxx0ED+AFPIE36dYjkNiHQZ6QN+SxLEA2kBFkBZlBdlJDg2wRzBWyrorz2e4/uM8O7NvLliyYz3p07MANjuuQr3cp3RIJAym4BwseVHoZyQLcnLnO4hw+UQ6cBLlA15cvXmxN4qvWDab/F+rv5WRnarSIK5OEMfxGB9XT1pq9PW4M2/P3LvbPnj2ccIDgzz98xz5b8TH75MMP2Yply/inlHDtoyWL2VdffsH+2rqVHTl8iLsv2liZLwL98uPXb7PFRy7ymjhZrX/BB0aI3tl3gYdpK68fj/4iVsZjbg8KKiosPkHoVwa4O+enxEV0nD9pUo1Z8ApewBN4A48ivyLvcKmQJ+QNeSwLKlne5bKCzEBSQ4Ns220s4LKGzLU0JlICOLoLo6SIF/PH2rXs0+UfsY+WLimlWyIt/2Ap17N1v/zM9XLHtq1szMjhfEWOccM3HskBBN3Gb+h6pJ+fM4muWiNu/U+3fn0XamoXEzMPMW/xqIDg9xJhzgJGpQ4YTHHxVVZ05Qof1cKnlHANW9hvV3KRcHnAEkWctDn277MsF3NnpByioeETtXLWnwU88CiOvC0L4lAztqHADVH38zFP5u1oX5jRLPGdvt3bKwTZ1RiAJ/AGHsWTe0RCXpAn5A15LG/zKGQEWUFm0nlIfKLSyll/nI3dc5ZtLLzOZV/VwNrXSxcvldItkVBxq4+orvn6KxYfGsLQokF/RWMTdPshdN2oXj1XElu1noH9PwtdXWdiYBGYEA0NhYNaHfMVGBFCbIuaiDv3H7LVJ4v4HisoBBbIirUwOvD4RKBTRPktbxDkOyqczJRknl8MIIiFg0+4Ia6W5nfDvL1+HNS/fyRVMK8IsqsxAE/gLczX60dXKwvVaauSPCBPyBvy+O1Xq4VclwZkBFlBZlIZqr6rDC9vy0m+Cxuyr4lADBboLPILHRYrTdHQiBbZ6Oq6kNhqjqFhIjq3RfMaa2i3xBqYWjO+hEhQCrEGxuEQk/+5wI+hLU8t5s2a+ejkSbFgQMJczH1/V8cDydHhIzFxLMitxgG8pUZHjvR3czpAPD8A72I+eHlS3pBH7JIoC5ARZAWZYVkWZCjKFASPAQa38NDFGnuONnQVOgvdrTWGJrZo6379RchGzcKF2/f4SBnvvBOJCgHlwDB1500n+CERZY02opG7SO6tcuhgUsRGzLCB2kgjuR6W+rq3IwN9PxvSt2cEyasmR2iqk9elfVCQl/ty6vjfUvH+b16QN+Rx5OBBPM9lNfCQFWTWZbMqtr/U0CBnHCWFqZTzJPuaCOhqrWvRarKhQU+wUgHRdqEQ6oYGhYCbU178C0yYItJUt3ZtuHuFuIPIv0iQh725yaXE6MhRmzdvNhZkVmOxcOGnjQM93AZQuRXihBZpXpA35BGRtpDnshYKQFaQGdxxyFC9RcMwP2QO2ZfnJTwryIamZaA/gbgWY/8+V8rQMMma8NsRftTRzss3y+yfXbl8iYd1Q8Qpvt6OFBH5R78GhNGrcD+fA5lpyRl0+0uCzGo0kmIiUsP8PPd72lk/ygfyhLwhjwjnhzwj75oAWUFmfbef4jKUTv7DPceSLDGmSHn93mcF2dC0DOyKxkETI3ed5bEapcuuoByojXGg3+HislcyFBw/ymMoIrwb8ivGL0H+0cfxdXG82Twpdk3nnExfQV41Ht3aZvuBZ18Xh5swMlHRkDfkMczHi+cZeS8LkBkOzoAM1Q0NsobMIfuK7EyvbsiGpmWI8RqxWkHspEMZ4OrwZUP0idMzEf2pLGCDZL+87jyWojidgfzzVoAIgWJSY6Mn9W7XDhOctQK9u7azTo2PngTekQexRRPzh7PCkWfkvSxAZuPyz3EZQpai+wgZQ9aQuRj/saZBNjQtAxsRPz1+hQ9FSw0NigFqs7GAH1V74nrZy65279zBurTJ5fmEEoqFAsIEp5PCfFNccGBbZf/+NXa0UR3gFTyDd+kCBOQNebQzNeZ5Rt7LAmSG89cgQ1GeUkODzCF7bW4G1RZkQ9MyzlFtip2/WAirydBwogrOhcaRtWUB8e4RiltcmCrW/iAoqbuN5c8dMzPivv7665qxabACwILj9lmt4sG7+kofsVVDnpH3sgCZQXY4VVSToUHmkD3KoKZBNjQt43GGBiV5nKFhcXNkoB8PyS0WCEh0HYM8XL97f9688Jo4SV0WwOuShQvDwLvUdRTLFXlFnpH3sgCZzSPZobKSDU07+E8b2tzHGBpWEQR5uvH495oMLdzf5+utW7dis2C1FkplAF7Xr13rRob2uZgfkZBH5BV5Rt7LwhlyCRceUkUSgyxF2eITAyK9yXX8hFxH3FfTIBualqENQ8MqApzogi0WmgwtxNvjsyP796NQahX27tpl4+fqtELMj0jII/KKPJe32gd9L8Tqxwkzmgwtb6vqnILy+r/PCrKhaRlVaWgiQVmhtIKsag1QOaCS0OQ6VsbQ8B27rXEdLV55I7rPCrKhaRlV6TqKBPcLbhjdWqtcR7i7cHs1GVplXEfR0HpQi7bs6GWtx+bXBmRD0zIqYmjaGAzBwEJtGwzBAI48GKLZ0BS6Td43rl/fiUQlG1pF8DhD09bwPobKn0VckKcFpiIwJVHVw/tf1FJDo/wvFAytejd+1lZDkyesNUOesNZsaIIsHnrYWn3SOikpaObMmdXqpdRaQ6u2JVjx0ZOwrEmQV40Hloth2Zi8BKukoWHtKgL2xAYH/DTxrdEtDh48+IYgsmpBrTW06llU7MAXFWOhriCvGg8sgFYtKnaUFxVLDA3dA+w8T4mJXD935vQORUUF1RoJ6/9ee+EFeyqEBbXN0MRtMtiyga0bqGmlhqaNbTLYaoItJ9h6IsirRoOy9BK29GBrD7b4iPlAnrS1TQZbkrA1qbZtkxENLS0ueuO82TM7nTiR31gQW9UjNDT0RUdzc1cbI/0ltc3QUMTixk9sRpQaGlwd1MaV3fiJzZMkg0Jsply4cGH1FcxTAptTsUkVm1XFshRJWxs/YWi1ceOnaGipsVEb3ps1o2O1Glp+/trXRg0Z0IzciTU84KRQ+9UGQwOwnR7b6qEQ2GYvNTQohFZCGejp3EJ4gLwuuUEkshodygDhFhB2AeEXOO+SvGgjlAEMDXJG+AiEkaiJqJGGdurU3iaL5s3tkh4fuxlMiIUjGpoYnKe8OZdnCQSIQaAYsZMuNTQohNaC87g5HUDgm5oenAcBhBBIqCqC8+CzBf1GICQEREJgpJqI9b//znJbZpQKziMaGlzHBXNmda52Q8NL0+NjNmkyNLFFK28VwbMEQp5h9AsuIpRBHHlUfVd9Yii60uHmrCzuIpRbjQ835+31I0LjgWdpHpAn5E0b4ebgUiLEX20LN/dMW7Tt27c3mDB6dKuYoIBf4TqKtSAKhw916zVlcaHBPBosgqEWFxeza8XX+MEEiAy7fctm9te2rWzH9m2lCNcxKfr3rp3s5IkCVXWpZWDQC8E8EdQTAVTVa2A5gKqq0tRGAFV4DDyA6t9nedDaqh5wPH3qJD+1dBvpmCb9AkHHQIcO7Gfnz51jZ06dYssWv8/iQoJ43qHDjyockgN0HLo+dvSI1tB9QXxVj7Vr19Z9a9Cg8CB3ly95wQhMccboO3x6N3I3cPTPR0sXs89WrGBffPIJW7JwPhs3eiQb0rcXGzagHxs+sH8pwvWh/Xrz/s/cmdPZrz/9yAqOHSNDLRZEWXnIIcH/WyHBEfn66KFDbO0vP3F3fsSgAWww6Zgm/QIN7d+X6xmmKxCzH4daYmALc4U43EOUAyfhO3R91KD+kdB9QYRVD6VS+X9ff77cjjr7C6WDISKhNrSi5tbL3pYfWIFDLaIC/fhcDI4D8rS34TVlWST+H+jhypIiw7nhwU27eLHsUyifFPIhF9V9yEVxlQRPvXDhPPtm9ZdscJ9e/FzzQDfnEjpUHuFgC+hkiLcHP4rXygCHaJbUZeg25ANd/3LFCnvoviDG6gH5929EBwcOc7NWXBaPbSrZsjXhh13wI3KEY3R067/Cj3IybPAaH83C8UClCNfpfxw8iGdBOGwuu3kq+/iDpezsmdOCiCsP+dim6jm2CTL+i2StTdy8cYPt2b2LzZs9i2WlpzJnhTnXLyx+xhFMXMdEnVInQf+4jtEzevXrMhxkWKolI4Juu1opLkPXcTC/IMbqRUZCQlyEr9cPTuYmt3k/TcooEa6hM4naEYQCRWv3JITnYLA4ZC41Npp9uGQRGdsZflhGZfGsDiLEYYD/9YMIW5EsIdNcku2Uf3AQoXYPLfl75w42duQIFurtySsF8A16Gh0DlZADygzXiJwtTG9HB/r9AF0XxFj9GNa7t15CWFieg6nxXktiSt3QtEVYmYCWEILEeVafrVjOLhZeEET+9Hh2R+tG/ueP1sWQPmTab/sp9nnBFVaoxfmz4qIiNn/WLBbs4c4Pi0crBd1QN5anJaTDiXSaWrO97bJb5kHXBVE+G2Q0a2blYWM1llq1QxgataUCFJmE4cG/RT+O9+WETIh9GV4DCQpZ4h56FrWMmHGR4EbiervWLanj+7Mg9qfHMzss3s66GP0jHOCOg9zp8f/cYfFY2wiZTvrnPMu/cktr82fFV6+yH9d8y7LSUvjyMHg7Cn3NBoaV99Ap1WoXUe9KHhYv6p2ol9BHexNDqjDN6dNor5PCfNTkyWMtBXE+O6xcufJ/2RnJDiFe7mPcba0P2JsZXyPG76LGxICIeuYxJ4HzqOk+TrbGhg9wv0Kv6R2FflPqmKuexX24HwIQn4WAUIOhxp005k1+1lVlXchr1Jn/iGpluI/qyoLvqJXxfc6BQnbuJlq1soHD8JYsmMeSIsM431wJJPzju/jb3szkTpCHS37LZonvDOrfOxITx/Pnz9da+HCkhTSRNt6Bd+Gd6nyIv0Vewfvi+e/xvJQFyACyeJdkAtlARqXkRrKETD86epkVlzOY9KT4Z8/frE+3LlwH4OlAJ8R8cBLyRXr0wNJA9w7p1W0LPR2uV6R3DzEhjQYBOijqGAjfbag/Rp933WwsrwV6uh0IdHMZqt+woRm9tmas7CFG/i+jWYxVYmRYtr+b8zRfJ/vf/Jwdj1JtcMZCV6fAXLcJJzKgAi9724KYIP+C9PiYk+kJsadiggP+cbexWkuC+NbaQP8rF2uLtdQ/OEs1L3e11I865a4CdWTbtMxgm/78g924XnZHvSKAnW64cIMpd59jOTiUUE1poEQp646yQX+hVbvGisjdLA8nC6hPMmEsH7EzaoC+ZWmXBi0KPjGs7uvocDLM1/vH5NjIkV07tg1btWpVQ0GsTw2kgbSQJtLGO/Au6btFAm/gEbyCZ/B+ouCYkBvNgAwgi8E7znDZiJWRaGSQIWQJmUK2lasKS+LnH75nUQG+DGdQq/et8J17Qno69yi/e5wtTddQq/aVaaOGq6gRWJcYGXq4eWL86dS46ILYkKACD9JF6KWZTuMC0sEzEf6+R6OD/H9LjAid1jojLTslNtRcEGnNAsmhTm5uK/tkMriEsJARXg524xS6OkrqrHKyMzVWRvj5KDtkZSoH9+391vD+fd/q0i67f6ivV461gUGag4lhcpCXa05McOD4cF/vda42iqu2xvolFIMrBdW+EX7ebNbUKapJ7UoCGxGx67rrlpMsmRSnRO1MHXqxdp6Uf579ffnWYxUHE6ajhgxi/q7OnFeMaKm7alAKkK0RRrUsmJ+r45FgT48Pgzzd+2PVf/d2OQE9OnWy6d+li87ZXbvqU7Kl3Etcw3+4B/fiGTyLNJAW0kTaeIf4PikP4Am8gUfwCp7Be3lA3iEDyALLrSAbyEhqaJAhZAmZamuTJzyXC+fPs7kzpsP1Zk3qvlgiP1RR8wUCjuYmhfT/Kh8Hu36B7o7plrq6yXr1Xk4M9/fJ7dO187DhA/uPHdy7p7JTTo4yjHQRemncuKEy2MNjXNtWGSN6de2UPX3SGHt6ZU1en6pq3XJycupnJSY28nNwaGzaoEEjkZxNTRslJgY1Gjq0e6O5cyc2mjZtWuMhQ4Y0iI6Orm9sbPxqqJlZXXzPiIlp3D4zIy3C3+dPNxvFQ6w0EYWKGgsuA2rozrnZbOvmTbwgKgN0vXZfuclG7DrLJ1wx+ljC2IjSSHk6bjzBlpObefZW2cP9wN27d/kGyZGDBzIfJ3uqYVUDOppqYHxyt8VI/6GlQdPrVBldCPP13J+RFL8mPT52EnY9d85qFY8YJOvWrXNfv369JQjfcQ3/4R7ci2fwLNJAWkhTkwuO76IcwRt4BK/gGbyXB+QdMoAs0n5Xq5SIIDvIELKETLU1QX3v3j2+eAFlji4HvBoxT/i0MdRnzgqzh2Henl8P6NszIjQ0tGGGn9+rZqRTpJZ1c0ivpiuVDaFzcydOJB0c2igxKOiRbsb4+TXu3r17oylTpqBSq965smeJb1eu1G+RnDTBy9H2OFdQuAQSJTFq8BqfaPzsk4/Z3TK2bjwJsOt38WFVBKcMtGISdwgE5UHt3Wf7KfbNqSLq3D9eg3bv2sFdMfR7wLs4cioqPM8PddKRJ9UAkDAySTW2r4vDbex2RmgBxPEI8nBdE+Tp9gUZxXIQvuMa/sM9uJc/I7rclBbS5GmrDRaAB/CC7+ANPILXxwF5Rt4hA8hCugoEBJll/H6cyxCy1OZOalQAs9+ZRpWCAy9/qYdAfXtsTbrvZqU4GuPvP4Rur77VG7UdmPPp1b1zDHVKv3cwM+IjRxAoFywpD5/Ipppt7KgR/DT+Bw8q1+G+SUqEjYtYgQ6lwYiZVIlQW2OBbCpdH7HzDNtSeINdr8DCveNHj/DBhWxMqlIHHiNlmDDV1HcTiRsH/pP+X4Hfj54Tr0kI1/FOvBs8gBfwBN7A4+OAvCLPyDtkIC4WlsqIy4wqKcgQsoRMtYEHD+6z0ydPsv553Yn3Bnyer0TeyPCsDXWv+7s4rkyJiooUVEhGRUDyrbN27VqdpPCQ2X7ODljGxGsyUbnQosEvb5mSxL789BO+UqAygErcJsX4/vRV1mvrqUcT2FJlaikoEzr64/ecZ5tJ8R63Wxh9C4zgff/N16x31y7Mz9mR18Yi8dZazTi4wahfx/dyfmt8RrgutgAigQfwAp7A2+NGbpHHLRdv8Dwj75ABZCHKRXQZITPIDjKELLVjZoxduXKZrflqNctIjOerPjAgJs0jyM7E6FxyTNTQ7774osafsFoj0TIlIS/cz/MY9cnuSQ1NVFIsBB0zYhgrvFD5CWwAwT3h9rSjPkjS2qNceUSF4kpFv+EyQeHm7C/kO4YrAiyK3rxhA3t3+nTWISsTq/qZ/uuv8hXyqKF53tSUp7KENJE23oF34Z14N3gALxVdqI08YigfeUbepYMfIMgIsoLMFpHstB0gdf++vWzkwAHcbYSRie63WKl42FhSN8J9X7vWLZvR7bXihNUah/atWwRFBvotszM1uiJObotChsAxLN0xqzWfX6ms+wg8oHoYE6yIKYI+B+bWpEuzQLgO5crbepItPaIKcY3J74rg8uXL7Dfq1CuHDuEr47G4FfM6GJjACge01HDtsOGyrBZPStIWC8/wSVxKA2khTaSNd+BdeCfeDR4qAuQJeUMesZ8MeVbvu0I2kBGui0fnQobaxC8/fs+aRUVQHlX5FCsl/kn5J5fxRnp8zGed2mQ6Cmoj40mBUaLowMCutsaGh0u4TkQwNL3X6rKkiDC2auWn5a7LexJgEhvxL7DqQXQXpcql6q+p+my9tqkObthfdPuxbqQIzP0dP3aU/bn2NzZj8tssM6WZaqc25QeGghUa+M6VSlCsconu4YZGz+BZbqj0HWkibbwD78I7KzrviLwgT8gb8thSqFw09csgI8iqvDgrT4tr14rZIupHetjZMN36dUtUOqrvOhju35oWG921X79+1bcp87+I1NhY/wA3l9/hJqJfJgobymXc6HU+rzKgZ95j54CeBBgx+/JEEVcyGBTv/JOiSY0NNTmUDzHl4VphgS36Jk8C7LX7dtWX5M69w0YNHsiDlCLiFELZuVoreH4RIKfJK/9jDV+sww+bAOE7ruE/3IN78QyeRRpIC2kibbzjSYA8IC/IE/KGPJZaNUPXVC27qrKBrCAzbbZl9+7eZbuoTAf16clsTQz5KnvRyEDIt42RAXO3tVnaKTPTUalUviiojIynQe8uXUyz01Lmhnh5XIZwRRdSdJvgt2OoH+HQtLGqXwRW96PP0W3zSb52DwonKppobLgG9ylnAwZIzvEBEsQtfBIuwPP9+/f5wAQiTSEfUyeOZ/3yuvEVMKnk9kX4+bAQL3d+ogsI33EN/+Ee3Itn8CzSQFpI80nkgTvBO0YXkRfkSRzkUG/JcA1rQ3FCDGQEWWkbWNe4eP48FhcWzI0KLbVoZCh7LKnCVp/Y4MBRlM9aE369xmL96tWv9+vetU2oj9d6EjIOHHgkcBCG+tEXwaqByo4+SoE+Sn7RLTbln/Msi5QL82vq/TVes1Ntj0GC3A3H2fCdZ9lXJ7Ei4ukGBDBfdIlcYLRCmEDG1vstGzfwXc6Ia4Fjk0D4jmv4D/fgXjyDZx836VwWwDN4x2Qz8iLOHaoPfkAGkAW+QzaQUUX7qE8CrAQZPqAfX/GBHd+oVHmZo4KlytbZ0vxWXGjQlq5tslsLqiKjMiCZvzhy0CDrUA/3mY4WJvcgeKmvjs17mKSd+OZodk5Le9VEwI3aVHidTco/x/dWQfnUjQ2EGh/9FezLwoQuto9gqVKRlvssVQHwCF7BM3hHS4W8qLdiIORdVakUsIkkk00Xrj+xu1xRnDl9mnVt14bpvvrKo50FoqGhsnWxsjjTpmXzyTOmjMfhEzK0hSh/3z6B7q53sH4PtZtobBi6hqFhrd6hAwe0MvooBbaEwJ3CqBoUDKsfNLlTqPnRZ0F/BqfSTMq/wBffnrt1l92ughq/sgBP4A08glfwrOp3lm7FRDcZeYcMIAvIpLytQ5UFDK1TThZr/PL/Ss+dUdk7WZj8k9epTUu6VV4Jok2kxsd0jgkOvI3hagyESA0NrRwCr+zfu1frhgbwlREXb7AJe86z1qR0qPFF90mdUOOjVWiz4QRf4Y5BhV/OFpNS15zgoeAFPIE38AhewTN415Qn5BV5Rt4hA8iiIitjKgMYWsfs1mRo/1eWoe3q36NTrKAeMrQBxGto3iz+zWAvt7uuluYlWjQM8SMM91vDh/J+ijZdRylQe2+6cIP3SzAIICofhr6hgFLFRAuAUTnEzMBvHP7w8bErbCspKAYOrj4DlxLvxLvBA3gBT+ANPIJX9RYaeULexEoFeUbeIYOqbMlEwNCwiLjJKy+VMjTuOlqaH+7aLqdnQUH1Hjzxn8XmzZvfGDNyaHJscMDX9qZGD6Tnd4HQR0OL9s6kCeXuCtYG0B/BpCxG2nrz+SXV0Dc+1RVVNWigcsVarz/OA9jg6CKcIYbIUQjTdoNahXtUMVSF3iJNpI134F14J94NHsALeAJv4FG934m8SPOGpVXIM/JeVX0ydZw7e5b17tqZGTdUTeA/6pfTJwZDqI92pXlC7GcDe3WPqfboVP81zJ4woUluRnqryADvVdQ3O0st2cNHo09EED6iGSFc2NKFC/h2iqoGavOj1DIg2jFaBSiqpuVaUqWFwibTPRgswYmYCM82fd8FHngUUX63X7rJCsgYMFleWSANpIU0kTbegXfhnXg3eAAv4Em9chAJeUGekDfkEfNkyHN1tGQiMEUxZuRwxO3gHgy6C6KhodztTAzveznYnAn2dFsW5OYW1aKaj739zwBbZdq0bNkmyNP1O1tj/Rvqw/oQPpYZQejJ0RHsh2+/FYqoelBI/RzEKxy356wq3BopJ9wsPpigQXlxDYT/cR8I8TZwTNRkcslwSATS20kGcuDqba7YCOeGI2tBp2/e5RspQfguXsc9uBfP4FmkgbSQJtLGO8T3ibyVxZ/IG/KCPCFvSO/CM+hfXr9+na38eDlLi4/lZYw9aNLyBwkGV+htZ/tJSnREsylTlLqC+sioCL7/4gsD5YABvRNCQ9bbmhhe17QyHTUchO/jaMdXQuzZvVsooupDMblle67c5AuR4V5hmwhaAz4qCVJTZpDokkGh8YlrOFgDwVzzKI2+207zVgSnZ8LVw7nQOIR94aFLfN0hCN9xDf/hHtyLZ/As0kBaSBNpS9+Fd0t5AXHDE3jmrTIR8oI8IW/I47MABrUwuDV66BAe21OPugjqOoDfqHCdLEyvxocE/dm9Q4duzyz+Ym3DkN69TTNTmvWKDw3a4mlnfV8UplTA+C0uoG3RLIH9sOZbHqznWeHY9Tvse3LTMFiAjY8YvXucewaStiKp647yo6QSflN9Yg0hQijA3cPQO9LFgAQI33EN/+Ee3Ct9FmlJWzBN7wbhP/AIXsEz0kVLiLwgT88at27dYl9/+QXfoArvRdNOB/xG9DVvqnATIsI29enaueuWtWv1BXWSoQ6S64u5LVqYJkWG9gtwdd5qa2xwV91dFAULgWNQJCY4kL07Yzo7e/aMqmSeIe5Q/2XXZVXrNnzXGdaVlBbLmLC6AkqvadBBqvCc6H/cUxkSW9KyDAz3gBfOExF4BK/gGbzD/UReagqOHD7EB7qig/wfLbx+1F+T6AQqZE97m4eJ4SHbWqeldLIiBRFUS4YUwwb2dkkKC5vg42i7h4zsDsKKq9deMDxxZXt0oB+bP2c2O3P6VJXMnT0NMCKHPtRuMjgEp0EkKEzwSg3tkVFJlF8T4X+pAaF1kpL0v4qkJRLuFw0NvIFH8AqewXt1jSpWFAhVgW1QE5SjWLCnG5W9qqItoReC14MQ3k4Ks7uOFiabnRTmvQcNGmQoqJcMYGjv3p6tUpq9E+DidBzrFsUaSipMXOPbSMiFwELT92bN5Ecn1VRgUnj9hRt8YAKBRDGsDsXGqB9G9OCuPXLvSPk1GUhlCEaFtPEOvAvvxLvBA3gBT+ANPNakyXRNQDiDXTv+YlMnjOdeDCpaGBs+seD4kcGRjuAa1ka6Wlv8lRQdPrJ7DTwyq9qBrQ1z5rzjmNs8bXaYj9d50cikBsZrKy7Y1/nv6KAA9u7M6ezcubNCMdRcwANDANH8opvsC2o1EIcehz5gsAI7kuG2wSjQwqCvJBJ+S1svkcQWTNN/0jRgXPiEscGw8C68E+8GD+AFPIG3GuQllgssRDh65DCbOWUyiw0JJD3BYYllhPIjHXJWmOFEohMtkpN6dOnSpR6pW80OIVeV6NWrq0O7zJaTycgK/g3yWbqzyzc0Nn6DH/+0YO4cdurkSUH8tQNY3Y4h8sPFd/gxtBgyX3zkEhv79zm+5wtHz8I40OKAREOREvpTMCZOav+B8AyWUWGlBwZEYHwYgcS6RLwL78S7wQN4qYoV99WBE8ePsdnvTCFd8OdGhoBD6t4P5toQExTGFh7g/W3L9MQEwdieL5C86uTn5zdum9WiS7iP10FnCzPe3KsLTGVgDbjAyLVk7783l4zshEritRg4KwyjejgFExPfGLKfdaCQByYdS4YxctdZ3vpgHgxuHk5s6SkM24PwHdfwH+7BvXgGRjWR0nhn7wV+TjcmmnG6Kd5VFeeTPSscOrifzZs9k+uEnYkRD59n2qRBCTcSIfcwYOblYHsuPiRw1qAePZ6//hrJ6uUPFy8ITo2L/sDB1Oi2ONsvCgnfRT/cxUrBV3F/u3oVn8T8rwDtCVoVxEvE8bQXbt/jh25gmdN6boBX2crjV7ibh8EK9KfmHbzECd9xDf/hHtyLZ/As0jhPaWHpFdLGO2pn21U2Hj4keZ0/z1atXMnatmrB7IwNucejrkMwNBeFOSJ//dqva1dXevT5ch8RobhHpw7dIvx9t0MYFtSaiQJCrYSRRRiZo7kJ65SbxX5Y8w0rKnp282TVCSxzwk5nhAY4c/MuO3fzHidEl8IKEBC+i9dxD+7FM9W5RKom4PLFi+zbr1axbm1z+QkwcCOlXQ/oFubYnC3Nd2QkJCRW69G4NQFxcXFNQ30933K3tS7gzb1QE6EWgqDw6Wlvw7q1b8vWfP0VtWTXBNHKkFESN2/eZL/8+ANrmZz4KHqYtGWDsVkZ6e30dnbIUvbq9Yaggs8HFAqFrrWx/iQrQ70zojDwCSODC4DaCXuRcBYWVgfIkFEejhw+zOOmUDeE65A4EsmNjOuW7k4HU+PsOB+f58vQ9OrX1zVu/Poks6aN1AytMTN4ox4LcHVik8eOqXWjizKqH+fPnWOfLv+IRzKGdwRDk7qP8JbsTQx3x4aH5n44c+bzZWhOFhZ6DhYmU2xNDM9bSlxHCAgh1LCLemCvHmzDH7+z27flFk2GZiBC9ccfLGUZSfFYxc9HqEsYGZG1oS6OxtrWPisriR55vob406KjdaOD/CZ5OdqexdFC/65pVPXRQF4OdmxYv75s66aNZGzaPWxcRu1HYeEF9uGSRaxFs0SNRsZHHakSx/ysp63NN+kxMXb02PO1QXTSkCEN2rVu2TXEx2MbjuCVLh6GcDDiiFggOIZoaN8+bMuGDeyObGwyBGB9K1oyGBn0BYcpYqSaD6wJesT7aWRsXvY2p6MC/CfgPDRB/Z4fsO3bX1IOGuQR7uf9ro2R/k2xjyYlCEr/tVd5aGsY2+b16+WW7bnHQ1Z0+TJb/sESlp4Qx8+dhpGpu4v4DU/J2cL0TlSg32ed22THTJs27VVB/Z4vzJ8/v16Qu3uOi6XFPjT9Yj9NSmjZsOfM3daSDe7Ti23ZuFFu2Z5jXLpYyL74dAXLbp7GQwyKLZlUZ/gUEVXSCJMeExxwoEvbrB5KpbLhcx1XJDIoyCYmJHCys6XFMXHuQ9q6wRWA742462jZhvTtzY8cul3FQ/7YdoMoTLt27OBRgX/54QdOOKz8j3W/sb35+Txk9fOGSxcv8p3s639fx3776Scuk19//JFHTf571052vgoXeqPM1/78E2uX2bKEkZVyF+nTjYwsOihgX6c2OSNxJrWgbs8v8vPzX54w4S1vbwe7yea6jQ+QsZWKcgUDhACxns3NxpIN7deXh8KuCjcSBysg+tKGP/9gi+a9x4YN6MeX+LRMTmKtiNAnaJ/Vip80uvqLz9j+f/7hQWRu3LhRZWHuniVQ4SBvyOOe3bvYpx99yEYPGcw652ax1mkpXC6Zqcn83LWRgwawZYvfZzv/2sZP9rmvxUBJKGuUOboQaKnQpVAf+FBV1DpYF/sgJijgIPGkXLVihQk9/vyu2peCFPSVIBcXGwvdxsMVek0OWen/W0NJCTUYlti421pTy9aHj0beuaNdY/tr61Y2QTmalCiVRfr7MG8ne+ZoYcpPM4F7i7B2TgpT5u/mzBLCQ/mk+njlKPbVF5/zY5H+S0BEsQP79/G8oWLJbZHOYoMDmJ+LEz+aF1uaRLk4Kcz4ofPYK5aTkcamTZzADVMbQBmjrFHmOL4JHo70wAsQjA7uoqol8z9E5TJCOXSovA9NE6xMmloqdHVGKfSa7oXw4BKou5HY9IlzshBebii5kZvW/8lu3bopFMnT42pRET/1v19ed+Zlb8tD2OHwDBg33gkXRST8Rr9Rp+5L/KhXHBuVlZ7KJo55k63+bCWveU+eKBBSrl2AcZ04fpzkup59/MEH7M3hQ3neoMBNX32ZNaU8G5cjEz1qaSA3XycHavkGsb+2bWX37z99ywZ3EWWMskaZo+zxrtLuog42esLI9nbOzR41b+ZMS0GtZGhAHUvDRiYKfRibziES4sOy3EicaOlObiT6bNyNrESfDaev/LhmDT+0z5JaU6Rf4jBAqi1F1wSE3/weKnCQOMKFZWNhPp7UymWy92bNYDvIhcJC6Jo+Ugr3EOsFz545zTZtWM/PVUM/KNDNhUefQt6QRy4Tyu8jmYhyoU9RJpAZWhzcCxdvWP++bPfOHU/lRqJMVS0ZGRmVNcoc78A7pfoAInfxIbW2h9pntx4lu4sVhKVxUytLA53hlnpND2ga9kdthpYGrQlGI4f06cW2btz41McVoWPfrV1b3sHGec8wHmlhlke4D4Wvqs3r8k9HCxO+QbVtywzeIuAw+5occgHxOD54fyEbPqA/y23ZnEUF+HG3EPLFIBTyhDxqyr8mgkzQ6qFP7UmuHowNBwo+Cbi7KPTJUMbgBWUubclg3CDuLgb6H+yU3Xq4Uqm0EtRIRkVgqqdnQS3baCq0fY8KUU35UXsiHLgH9dlQIBgdfJKtNFisvHXzJr4YFa0Ramv4+VIjw/cStbeEpLxI7wVfiDcJVwvG2yIpgU0dP5bzhz1UNQFw504UFPAwfcphQ1hcSBBvuWAcMBLkoaw8qkiUh0rZRflI78N1DFrgpNaRgwayndu3U2X4+BB26ApsppZ1aD/qk1HZoozBjzofkC1azeggv32dcrKUCxYssBDUR8YToI4h3EjeZ9M5DOHy1k2tMNH6QDFQq2FLzXfffMWuXi0SiqxsYIRwy6YNrE+3LnzaALu71QtTJN5XNNB9SPRA+CzRd5SSqGDgS+zfWZNCYF8dRi2XL13Czp4+LXDxbICTQPf9k8+mT57EEsND+UAG8sRl2UgV5x55KJm3f+XO8y+VCRko/13i/n/LB26kOxnbsP79+BQANm2WBbjZvCUjI0OfDK0p0kBa0nTBH5ZWUZ/scEdyF1csXiy7i5WBQkfH2tpEf4SDmcl+jPiJtacodBQwRqCwXAv9iXatW7IVHy7jc2DlYdOGDbwlw3QB9/3VanB8tzbQ44UZ4OZ8PjLAd12Yt8eqAHfntZ72NucRegE1Ku+fqLWCUgK/UBacO42+C47CXbbofXbm1KlnsusZMxA4Q27iW29Svlx43tHygje0TprygLzxvpGuDt+Ggv6Sj5P92UA3519JLl9G+vts9na0K3IwNebloS4LGBpaNkSURiz9I4cPCtyUxJ3bd3hLhq6ABxkZBqTU3UWR8A5yb/fHhQWNeHvMGGtBXWRUBu7u9mY+Lk6jvR3t96HTa02CV69xoexQaLQezRNiqeVYzFd2qwMdf+xdwllqGLaHEpg3Le2WwICczE3vhHh6HMhMTZ43pE+fNsP79Ilvn9kiJzrYf1agh+tGqnGPOJobF1ElwOMJorWVupjqaaKfgdo5JSaKrVi2lF2u4pNvNAEV0LxZM1mwpzs3MPXWQsqvWKGhQkGL7GaluEKVzP5AN9dfEiNC3umY1Spr3FujYvvlde2aGBG22M3K8gDd/4BXhpI08R2GCs8j0MOFzZk+jQ+8SIGBD6xn5aOLZMjoG2rqF1oZ8M+HCr2m+8jwR+s3bGgmqIkMbQARjLPTU0dgZMnFykJVw6opCFw/1IBo+VokxbMPF5c2tqOHD7EZk9/mB63jXlVNXtooYDT+rs67e3RoN+TdGTNcVq1a0nD79u31sJQnJyPDQjlkSETblhl940IDVoZ4uh8hnu6pntXcKmArkMgfFA5zUls3bRK4qj788O03LJUMHfLDnKQmZRYJckBrQhXSvRBvj2MZifEfZ6WndGyZlOTRIinJdNKkSQ1Onz5db/bs2U0G9O7tFODmNtzGUP+wpZ7m9OCWQq5RQf48uvT58+c4TwiQuo1kwQc+yI3HNilN5SK6pnSduhI6IxQGdU0F9ZChTSx+b4Z157atR1Dndz/6ZCgIqaJAKaDMUGTUfBiE+Ji3HJd4gaLzP/udqVj/xp9Fba7eMqJ1w3+uVoojKdGR47777rsy52P++mu9YefcrKikiNBuId5e7/i5Ov3g42hbgBrZiVoA8CNNX/zd8MU6PEzDrKlT+JxVdQD9MrirE99U8glmuGXSfIO4G6zbmIdpI5f6ga+zwwF/V6fVoT5e05Jjo3sM69cvvKCo7EP/urRubRfq4THN3UpxCu+AYUiNxYK+o/8HuVMLyKNMr1+3jv303Ro+hO9FMoGLCYMs4S7Sc2I61JLtV+jrjESXQnitjKrAqlUrTDpktVRGBwYcdFaYP+AFqGYs+I2WA4WNlg3LhjC8jMjGCLyJe9RXFqAgQXYmBhjpOhMfHjK9d+fO3sJrH4s5c+bo9+3aNSU9PnpKkIfbb562Nsepz3gdI3nq74EiOZgZ81YNoRqqA9evXePvateqBecBrZmULyg2Tk0l17vYxdriUKi3x5pWKYlvDurdO3LTpk16lMRjBxronpfeGjDAt1l42EIfR/srjpRHTQMkqAztqK+HKZDuHdrx1TWY9Ifrr16WuB9pgD8rfb1DZGRKhUEjuSWrDpDbZoo5k5jgwIM4pK4sNxJkT4WNwxHSqd8W6u3J+xvipKv0fvTxMLIW7OFWSMr40bC+fQOpNXtFeGWFsH79+te7t89SRAV4eyVHhncI9/P6ljr13NikCoR3431Bnm7sg/cXVMsaSWz3n/3ONL6sDK0W+qYiP5AdjxSlML8R6uP5eWZqak5SRIRH7y5dTIm3J9paguV0U5TKiNZpKUt9nRyuoLIT3yG+D7KADGA8KD8s54InAXdRvEcktLJIg/rmpxwtzN6UjayasXDaNCuszI4JDNgLNxKFou5GonDhpmAeBhPRcEtgfPweiWuCgketSf2swtSY6GWzp06NJt2sVFiyhw/P1h/ct0fbuNCgP3AqjtTQwBdqb0wKz5o2pVoM7SS5zZg8x9FGXNFFOYCIH1Lmy34ujt/lZrVqAWMRsvFUoNfVG//WqMhIf78PHc1NzuB94sCKVAYoL7TuMDBeBmplgk+44OTCno8NDXw3LsjHQXiFjOoEltpgDgUrtTEaiU44ClBae4oFCgPDp/p/IBgZPX8pws/345yMNBiZVvYtXb582axlctIYGyODYnVFw5pA8DRl/LhqMTT0T0cNGcQX5aobGvJvZ2qYH+Tp3qtNmzZGAvuVAjZZNosOj/Cyt1tuZ2x4CyPF4iS3+F5812SEIsG99nN1vpaWELt02rRJfpQN+ejcZwWs0O6ckzUMK7axSgAumVgbPo54IVNhu1qa3wnx8vg+NTo6Pi8v7zUh6UqDFOP/gj1cs630dS9C0aTv1iVDQ00+edzYZ2poGDQCb1aGultcbcxSQ0NDtRZgFLHus9JTWpGLv87JwuwO3MPHlY1Y+aEl83d1uto8KX7J2BEjgirbysrQAhbNnavAEhzqXO+DscEFQeslGpJ6QXJFo/8x90Wd8IfRgf7rWiQk5FTFIQhk+M3pnRcw0CDl41m0aKOHDmae9rYaDc1Cr8lGw4avNiOWtbrd/6fVqw3zOnfuEOHv+7O7jeI6JrX5+0j+4OGRp0E8qcqrCfWjDRi5sQXUr/5AOWJIiJCUjGcN0qM6K0Q3MjjggJOF6R0oEQYh+KiXaGz0CSMURwLdbCxvJoSHbunRsV2nmVUQ7w98BXm5t6d3XhQmWh9RTTM0hb7OZmtj3TQXPb36AvtaAb26zvLlyxsN7N0jKzk64htqUS9Tf/AWlcF9jPBioAPznjZG+g/p2j1bE8MbLpYWe+MjQqbMmTLBV27JaiAmKIdaUcvWA8FY/F2dTyM2JFotjLLxuRiqOeH3Y0Ag0MPlUGSg34Kc9PTmH86bZyAkoVWQkum0z249lBSpqCb00TQZGjc2Intz452xwb7tlMr+OgL7WsX27Wt1enZqFxEdGjAoxMt9aUSAz9akyPCTKbFRhfFhQSdDvD32UHn8QsY4NzLQp01m8+aOxPaLwuMyahqOHTvWsFfnDjFpsdETQ308v/Z1dtjgYmXxl4O58Q43a8vtfq5Of4YHeH/WMjlhZI8uHbyEx6oEpCiKQb17TrA3NSpWTR/UTENDJYClVd3a5g5atWqFucB+lWDzwc1vdO/cOaBLh7bd+uXljRvUt+c0MsBxWRkpA/r16Ja1atVKN2L3+Q2iU5uwZMmSujk5abrtWre2nj19SljfvLyMjMS4zJGDB6RPnTQ2oFVKinmXLq111q5dW6U1JhmQxYAe3ceXZWiYeqjOwRBNhsb7rMRbgJvzseEDB4zftG5dlQeyWbly5ctYyjZFqdSdMWO8nnLAAN1+HTs2XjlnzmvEqjyyWFtBilz/YWHh6/RZrXH9rly5Yt6mZcY46oeUGt7HlnysXpk05q1qMzRNo46ioQV7uBW8NWLY5J1btjgK7MuQUTtALat5qJ/POCtDveJHAzKCcmMJlGrCemq1GZpy6BAeD0WTofm5OB0f2LvnpF+++06eFJZRuxDq62puZ2w0TqHftFicR4Nio2+G71jrt2LZB4IpVC1Onzwp7EFzJh6a8GVoKsNXzVu52Vgdz0xNnjReqZQNTUbtgt4rL5ibNmlUytAwUY1h7bT4GB7KrTpw8cIFHqcyMTKUG9e/6wpVLa2tidFxH2fHSXFBQbKhyahdMGvwirl50yalDA2DIFjcnBQVXm2GhiCoKz9ezponxnE++N4wbmiYS9NlCl2d4xa6Om+bNm4sG5qM2gVbvQYaDU10HbGr4LMVHwumULUounKFzZs9i7+TG7tkpbxoaGY6jWVDk1H7EBceYGlvajzRQrdxsRUpt2hoGIwAYfMnou9i4+PaX35m6379pUrot59/4qevIFYjon2hj/bvdAPxRTzZGhse94PrGBEhG5qM2oX+3bubBLg6j7E11r+hvtYRhoZPX2dHlhobzaMB44SUqqBWKc34hldnhRk3MBj7v7yodi+4WFsczEhKGKRUDqnSCWsZMrQOpVJZLyUmqq+Po911KDkUXFRy3rKR0sPg4LphxzE2qWLIX2uE9IgQHx/vM9MpueEV1/Bu7IT2drLf2ik3K2n+1/Ofr6NnZfw30Dk7MzkywHePq7XinrhK/d/WBMrehCs/+m1VSaVbMqFVpWtUCVwNdHNZ0rlNGzlevYzaiV7t2ztQqzbNy8H2OB8QUVN2KD9v3Ujpq5LUjQx8oDWzNTa472FvvS7E061NixYttLYXT4aMasWAnJz6A/LyQppFhX/p5+L4ELsJeMumrvjVSNjNgBbO1cqChfp4nk5PjB0W4eeHndVypF8ZtRdYa9mzS8ecpMiINS6WFqexHw7BcDAIwVscUnoYH++zaSDxP7iZeAYt45MSnoNxWxvqMnvqszmYGRcFe3nszmnRfNbUiWM8BVZlyKjdmKlUvtGlbdvIAHeX6e62VgdcFOYPsNkRLQwMryIEV4/uxzMghNoTvz+WyMgQJ/+hvanRA3cbqzMR/j5ftGuZ0Wnu3Lm2OHVVYFOGjNoPxthLCaGhbnEhQV0Sw0Nnhvl4rowK9Ps1NTZqQ1pc9EZ8aqL0+Bj+X7if93fOCrOPyHAWKXSbvI/PxxHdt8i8ScNFjhami6MD/RbHBQVODnR16toqJSXyu08/bSqwJkPGfw9kcC/+888/ZsoRQ8LGjh7Reu7MdzotmDOr83uzZnTURO/PmcP/GzVkSEpcaKCftVFTVwvdhs42uroujyO6z0X3pRdckiMj3X9ctcqN3FhdgQ0ZMp4PkMHV3b59e4MTJ/IbnzhxggifpWnv3r1N8Eku3mtKpfLlFi+8gM2R2IWMzwoRvYsTfZchQ4YMGTJkyJAhQ4YMGTJkyJAhQ4YMGTJkyJAhQ4YMGTJkyJAhQ4YMGTJkyJAhQ4YMGdWLF174f28tqpKus3G5AAAAAElFTkSuQmCC;" parent="1" vertex="1">
                    <mxGeometry x="624.9100000000001" y="310" width="60" height="60" as="geometry"/>
                </mxCell>
                <mxCell id="16" style="edgeStyle=none;html=1;exitX=1;exitY=0.25;exitDx=0;exitDy=0;entryX=0;entryY=0.25;entryDx=0;entryDy=0;fontFamily=Noto Sans JP;fontSource=https%3A%2F%2Ffonts.googleapis.com%2Fcss%3Ffamily%3DNoto%2BSans%2BJP;fontSize=14;fontColor=#000000;endArrow=open;endFill=0;strokeColor=#CCCCCC;" parent="1" source="14" target="13" edge="1">
                    <mxGeometry relative="1" as="geometry"/>
                </mxCell>
                <mxCell id="14" value="" style="shape=image;verticalLabelPosition=bottom;labelBackgroundColor=#ffffff;verticalAlign=top;aspect=fixed;imageAspect=0;image=data:image/png,iVBORw0KGgoAAAANSUhEUgAAANoAAADaCAYAAADAHVzbAAAAAXNSR0IArs4c6QAAAARnQU1BAACxjwv8YQUAAAAJcEhZcwAAFxEAABcRAcom8z8AAGmISURBVHhe7V0FeFRH1y7/V6HQFgtx3bi7uysxAoQIrsHd2RYvUrQUKVJaSksFKtRbaItDkZLiFhyChOA6/3ln76U3m00IZBOSct/nOc/u3r137pkz58ycsTMvyJAhQ4YMGTJkyJAhQ4YMGTJkyJAhQ4YMGTJkyJAhQ4YMGTJkyJAhQ4YMGTJkyJAhQ4aMZwTGWN3t27c3OHEiv/GJEyeI8CklXDvR+NixYw137dpVX6lUvkyP/Z9A/3sSondxou8yZDwfgMIfyc83HTtiRMh45cjM92bN6Ljg3Xc7zp8zs4OUFrw7i1+f886U3OED+iYmhAX5Kho1cjJuVN/JQlfXuULUsKFz/RdecG7bIsXt/OXzrg8fPmwqsCFDxn8TZGAvJYSGusWFBHVJDA+dGebjuTIq0O/X1NioDWlx0RvxqU64nhQZ9nuIl/s3zgqzjxS6Td43b9p4oaV+00UVIbp/kUmThovcrC0Wp8RGLm4eHzc5ISK4a4fsVpHTpk1rLLAmQ8Z/A+T2vdGlbdvIAHeX6e62VgdcFOYPbIz0H5IxMGtDvXLJykCXE92L+x8IhO8VJoWeDv90tVY8CPJyOxMfFvxlRmJ8m06dOhnn5+fDJZUho3aD3LX6PTt2zEmKjFjjYmlxGsZja6TPrMjILHSbMIumjRm1UvxTncTrZCj8fmsyuKchMjL+LltjA+ZkYQq6GujusjMzrdm0qRPHeAqsypBRO/Hjjz/WnzZ+fGh6fOyXvi6OD+1I0WE8MBwof3UT3isasJu1goX5ep1JT4wdFuHnZ0Ts1lFxLUNGLcOYkSPt22dlTg5wdT5ubYiWhQxMamT0nSs/WrYqIqQvNWzxN9xRauHue9hbrw31cs8NDQ19TWBbhozahXYtWyaE+XhvcVaY37No2ogpSPEfGRlX+ia8dTHTaVRlxN1PtfeC+DUyOGeF2VV/N6clbdq0shTYliGj9kCpVNaLDvTvQf2hC3AZeUsmtCy8FRMMAC2LnakRszczZvb41BI5COkhfdMmDZhJ4wbc6ERDE1s1R7rPz8Vp66DePZJOnz5dT2Bfhozagf7du5v4OTuOsTLUu4aBDFHBQWIL4+vsyFJjo1lWeirLbp6mVcrJSOefSD/Y0405mBtz45LywY2NPr0d7Q7mdWg7aNWqFeYC+zJk1A7EhQdYOpoaT1ToN7kuGhpvycjIQJ72NmxI3z7sp+/WsLW//MzW/fqLVun3337ln0h/6cL5rE2rDOZqZfGoNRX5ATmamRyP9POZ1D47w0FgX4aM2gFbvQbmCr2m4xT6TYvFIXYoNfpN+B4TFMA+W/Exqw5cvXKFzZs9i0UH+XMeTMmNBA8guI8WTZscN2n4xtv6r70mG5qM2gWzBq+YmzdtUsrQTJs0ZDZG+iwpKpx99cXngilULW7euMFWfrycNU+M43wYN3qjhKEpdHWOm+k0ftu0cWPZ0GTULui98oK5aaMGpVs0MjRMWieEh1Zbi3bh/Hk2d9YMFhMcWKJFw3fiDxPYxyOD/GTXUUbtQ0qor7mTuek4SwPd4hJ9NOofYfQv0N2FLVkwXzCFqsWJggI2euhg6hfa8v6hueC+cn7ot4+T3fG8zu0nffrhh7Khyahd2Llzp3lKbPQ4GyODYukkNZTb4I363H2cMflt9vDhQ8Ecqg4Fx4+zkYMGMHdb69KGBqN3czk+YnD/SZv/+EM2NBlPDlLiV7p0adHAx8rqDWWvXm+Qzr0o/FXloHeZ53VoN87exKhYHOUTSbd+Xd5PenvsmGoxtHJbNOIt2MOt4M3hw6bs2rDBSWBfhozyMV+prNe9XTuTAd27e6fGRqZ4OFhl2xobZPm5OWS1TIxL6NOpk1tmZrJhv379XhUeqRKQAVkM7Jk3wd60tKHpvfYqHxSZMn5cjTA0f1eno4P79h67/tdfbQX2qwTESp05c+a8lhoZ2cRFoaerW7++notCods6KUkHOxzof3lzam1A/saNjTvktE5Njo6YG+Hr9bubtcU26iPtIoXaSa7aThdL8y1+Lo6/RAcHzspMS0iMjnapLzyqdZDSKAb17lmmoWGY/1kbGicyNlcriz2ZyUk93n//fUOBfa2D2KizYsUKm7xO7VtG+vkMszU2nGjU+I3JjubmE2NCgkZ3yclprxw+3A33CY/IqImYoBxq1SE7s1dEgO+3/i6OV73tbZi9iSFXJAxGgLBNxEVhxrwc7K4Ee7mvigj06Tmsf387IQmtghRGJzs9tT8Z+BVpH62mGRrfSmOou9XdxrJVdlzcGwL7WkXXru2sU6OiWscEB04L8/X60cPe+oCVod5pU51G52yMDc94O9ofCfP2+jPMx2tukLtLbpvM5o7E9kvC4zJqAqhAUFOadMxuPSomOOCAo4XZXa5AwqZJfBdH/bjB0TWQs4XpnUAP15OtmydPWLHiAxshOa2CDL0ltaaFNsSLqNigmmJoVgYqQ1Po62wy122Y4mlgoNW1jitXrvzf9EmT7NPiY9/0dXLcaWNscJ1kf5fKBhtRBR5g6FRWhnr3bY31b7hYWuyNDwuZMmPKW97bt2+Xja2mYNmCBRYdc7NHRwf673W1VvCCE1esow8iFqhIWDFvoduYQfldrS1YgLvTkZgQ3xFWZIVCklqDTr2Xk4iPC9joKeWhphmahV6TjaY6ryeZvfBCXYF1raBfz56u2RnpM4M8XA/ZmRhx70JBshfLBWWFT95XJL6s9HWYLXkhXva2BVGBvrOiQtzthaRkPEsohw5VdM7JGhYd5H8IRoa+EApMVGheiPQb19WNjv8msjM1pD6K+d/BPu5d+3bubCAkXWk8fHjwFQ87m070rkvihLVIGHXEavrqGnXkw/uDBzLip5ShQdmtDHX/crYyy0ry9NRaixbq42wcHxr6ZqiP53m466j8NFV8JYj/r8NdfkcL05P2ZkZvmurqKoQkZTwLrBLdxaCAg84Ks4eWeirjkRYmvkOxuHJpMkLhfirQ+0GertuyUpO7HTlypIHwiqcG6fZLysH9fCL9vedRH+16TeijjRoySPNgCJGdieFRf1fHCckREVqZR0uLjTUIdHPuQ5XfX9gCBNdQWi4gXgEKJL0OQsVEFQC5lzqHya0dZWnYyERIWkZ1YuG0aVad2uSMjAkM2Ist+Sgc6V4r1NIoQCw1otqa7/Uy02nIDBu8xgtcdFlAuA+K4GJl8SAmyH9jz84du/7yyyY94VVPDNLrlye8Ncq7dXryFDLeQ2Ro90Vl4oZN3zGHRn0RNnfmDJUlVDFOnTzJJrw5mvm7OvP8QhZi/sETGcN1bwe7XQmhwSNnTB7vQsb/ipCdJ8aGDRvMenXq1MvP2WEzVX63NXkT4AEtuuEb9bks8FtaJrxiEp5R6DXdq9DVGWlp3NRKeIWM6oByyBDTTtmth8cEBx50tVJodEnQWsDIsPGxRVI865fXnbVKSWLOlubMhApWunodxA2B0vB2sGXx4aGb22S2yPH09Kxwy3b27Nn6A3v1smyVkhJA78lKjAiZFezlftDdzoobsdTQ8G5cS4wIY59/skIwharF5UuX2IdLFrPkqEguL+NGrz/KO3hCH9JFYU6G6Ph3WlzUtLwObXOTIiO9MxITjcjoKjzfuGjRoqYDenbPS4+N2UoV1z31ssF3lA0+Xags/FwcmZuNJecJ5SLeV4r0mh600NUZrjBoZCq8SkZVQjW62Gp0dGDAATIahF17pMQi4bdRw9f5UH5GQhz79KNl7PChQ+yXH35gXdvkwk1iBq/XK6UAICick8L8hq+zw7cBXu7JpKOPndP59NOFjYcPHhCfnZH6TqiXx28uCotD9qbGhdSpv29jrF+q9TSkd6MV7pfXjW3esF5lCVWMu3fvsh3btrE+3brwfCL/Ik8g8IglYTbGBvfIDb/g5WB31MvB9psof+8h/fPyIqmV0hWyWyYWzVzUtHfXTh2pAlznbGF2h49mSmQMQv7RgnmRC9shK5ONGTmM5XVsT31Ha966qZclSBgxfkAt2wFyI0fLbmQVY+Sg3tYdc7NHRAf574eiohDV3UXUlsZkZOjkt0hKYB9/sJSvXAfu3L7Dfvj2G9alTQ5zNDfl6w1xv7ohgMhIi6hF+rR/77xIerTUEPOpQ4dMBvfvHR0bHNg1zNdzSpiP15pAd5dT4MvWyIB4Uw3AqCsO3tfoxTp8x/Ny4q3wgoq36kDx1avsvVkzuVIbkQutzhvkiWswEAdVKIT7zgrzfB8nx6/iQoNnZFL/tV1Oq4DVq1e/LojhERAbMjU+JglzZNSS3TRv2qh03ps05CEVHC1MWfcO7diPa75l/+z5m296HdK3N/O0s2H61HeFIUrLhE/JcILhNt1PxjZSoaNjLbxahjZh0KiRaVxYEBlZAB9dLMtdFFsyuIsfLl5MinxBUDMViq8WUQGvYW1btmAW9DwKVWqsIBgJ0vZ2tCtMi4/5OLd5alJWerpZ5+xsg4Rwf7PWGan+3drmDkhPiP0s0MPlELk+9+Giqp4tyZOU0CfB+3Bvv+5d2b69/whcVR82/vkn60EtCJRd77W6fBlYeTzz/4iodWMxIQFHIgN834/082vTpnWGT0pMjEnfvp0NOuXkWMRFhDQjN3kJucRFQgtUgmB0MG70ldtTS7bmq9Xs9p3bnCdUgFs3bmRD+/Zh7jZWVIavcVmp8yWmS9cPW+rrjJDdSC3DXF/fjDrDo+3Njfc5WZg+tDH6t88jEloPFKQ1uT/NE2LZ8qWljUwE+itL31/ImkWFM0uqOWGcJQtVcCPJYN2sLS8He7j+Sfe+mxwXNTrM22O2h63VL2Tsh50tzYoczEy4K8rdJOJJXTlAuAZ+MRCDe3t26sg2/Pk7u31bpWjViWvFxeyXH38gGcUxvfqq1gO8qfPNfxOJn6gcXCzN6NO40MHcdK+vk8OP0QF+U3JbNB/VKjlxoZ+r8wYrQ91CTRUg0odBw1AQv+TLzz5lRUVXBI5UuHXrFtuyYQMZW28yNkvirW6pChAET4U+H1LLtg9uJHRDUBMZlQFcBAvUXnAZqADVR7DgYqATrf/6q8zB3IS1a92SrfhwGTtz+rRQhJpx7MgRtuDd2Sw+LJi7NDA2FKzUZRELGnE2qNN+keigu61lIW+9iAf8LyqpunKB8B8UGUrTtN4rvF/Wq3NH9vtvv/E+07PC9WvF7PMVH7Oc5ul8cAjuGlo3Ta2INC9wB1GZ8H4stYie9janQrzcD4R4ul+FjB4ZptpzkIFp44YsKTKMLVk4/5Errw60bOizDunTi1FlRmVaj5eLtExA3I0kg4NOcN2Q3chKoY6RUWNjDOtS4R0SBSwtSHxHTYk+GdzJru3asDVfry5VW5aFY0ePsJlTJ7PYEGHXMaUFxRDTFwkFjVFCfHIS/1NTKhCeRzpQWrH/R30WFuLlQf2QXmzT+j9Joaq/JVPHvbt3eN8IgyNkLLySAv8YEYVhYPhfXRZS2YuygFxE2UjvBeF+k8aq/ha5/GzuzOns3LmzAgeacZu3bGRs1LJhNBJeiib3VuJGHoKOWBkZGdPj8mLkJ4Wpnp4FXAMS5D4uWA0FCUXWrf8K1X7W3L9H1KeKGhnw4OEDVnDsGJv9zhQeKAdpQsnUCxW/RbeQ/6f2v/Q+8ITRM+4mUsuXFBnOlEMHs9Wff8YO7NvLXaSagps3b7A9u3ex5R8sYf175rGoIH+eD7TA6CdpcgNFEmUBYwSp34drmBQ3JYNFQKAFc+ewUydPCG8uH7du3eQt29B+fXjZoowhV2n6IFEnyND22RgbKjOaNbMQ1EdGRWD8xhtWlgY6wy31mh541HpICAKGS4FRQ3LluKuBzvTTumOHDu5n0ydP4q0OVmzASDQVrDpBuaBMqHWbvPIif9bJwoxFB/qxNi2as9FDBlNfcSnL372bPSSjrqlAv23Lpo1s8YL5bPjA/jweZLifN++joh8Hw4PXoKnPpIkgOz6i26QRiyPXHJPyFTUyEXfu3KYyRZ+tDy9jpKfJjQShErQzNT6YFh87XKlUypPaj8PatWtf9HW1NadONVoyuIsP1Q2NKzcVOFoNdJrhYmyhAoHL8bSAERzYt4+NGjyI+bu5cFcILhRcFigN3leC6JpqqJpcGipkKCQGOfzdnFnn3Gw2f84stuH338lNOsdbsAcPaq6Ribh//z61cDf5dMPm9evZzCmTWVbzVL6SxMnclMtEdIuRd8hAXSb4z5RcRcjOxsiAKhz/CrmLZQFlupUqAJQxyhpljndpaj0dzIwfUot8qH1261FYmkePy25kWRg1bGBgVJDvHGdLs4NYtwghSg0NtRkKEwty3amzjBEq9HngalQWULT8v//mtW/L5CRuOE1ffUXVwgm1qUiY7EUtb9igPgYEWJuWGWzyuDHs808/4S0Dau87d+4IKdc+3Lt3jx0/epSt/+N39sUnn7Bxo0ayjKR4PnCCvGNgh7cw1JKrZPIal1GTui/xlh2DRZDJB+8vZCeOHxdSfTrA2FDGfDSSyhxlDx2QtmwwPOzEcLNRwE3dS5XdqHkzZ8rnCKiD5FlXOWJEUEazhEWB7i7FzgozjSNYcF/g1kHgg/ugJduo9YGFc2fP8GVRIwYO4GG648NC+GABIlaBAohCvD14TEasbJigHMW+Xb2anTl9Skjhv4cjhw6ylcs/4q5wLrnECJMX5uvFgjzduDyCPFxZpL8v749mpaewEYMGkExWscuXLgopVA4oY5Q1yhxlDwOHLkh1A60aRqQxshsbFHAQS/RGjBgg99lEkBz/N2f6FN+0hNilfm5OxY7mJqX8cNFdRG2Kkaih/fqq3MUqGr27fv06n4PbtWMH+5QUbPrbE9n4N0fzRbnjyLBmTZ3Cvv7yC7Y3P59duniRByf9LwOu9fVr19h5coV37fiLrf5sJXt3+jvs7bFvcXlMGvMmm0fu8nfffE1ewW52/vw5rcsEZY0yR9ljUhu6IHUj8an6zk/HeYAdHVQRKmU3UkBGsxirVqlJUwM9XM/DyNCSoXYSjQxGh6FyuGoQMPz1zRsq1yd7EsCQjhw6xFdx7Cfa988/fFoAy5meV1wtKuKjtQf37+PyQP/25IkCdqOKKxyUOcpeXEECnYBuSCtmGB8+0bJFBwXsww6P6ZPGPL+bR0ludc6e3VU/PSE2N8DNeR+MTNPKCgy3w1XAyNPgPr2qxF2UUXuAsscACXQBOsHdSLUpGXyHG4m51ejggAOdcrJ6KPv0aahUKv9PUL/nBySzl6ij7ZEeH/Oug5nRTQx6qBsZaiesWkDthVoMo2HPYtmSjJoF6AB0QWzZoCNiSyYSvCKcsIq4MFGBfp91bpMdM23atCoNL1gjgdh+Iwf3y4wN9v+Nmv6HqIFEIYnuIgY+vHC0EdVemMCsLndRRs2Hyo1ULdfyFLbYlOVGksd0KjUuenyMn19jQf2eH3SMiWmcGBU2wMfZId+aDA0r5kUBoTaCkDDCxCejyVWQWzIZ6oBOQDcG9urBN5HyeU2JV6Rq1fR4ZR3m4/l113atn781kf4uLrr+bi7jXCwVJ3ktJAgIwkHNhDmbDlmt2I/ffSv3yWSUCSwIwG4ErHNFn0zaX8MnuiRYUODr5LBp5ttvh9Mj1RYSvkagWUSEXmxw0FQfR4fzqHUwECIaGoSFGqpb+7Zs25bNKonKkFEGrl27xr7/9huWEB7CmtZ7uUR/DcaGVSs+Tg47Plm2rMWThGX4T2BAt2662c3TJoT5ep/CFnqxj8YF0xSr3puyyAA/vpzpQjXuQpZR+4AoYrt37GDN42NZ41f+V2Kdqmho/i5OO1d+sjyTbn9NUMHnAxOHDm3UpkWLfqHeXn9Ti/YQLVkJ4ZDhiavf35s1g50+9d9deSGjcig4dpTNnTGdr+DBvsQSI5CkS6jEqUX766PFi9Ppdq0GiK3xUCqVdbu2bRsW7Om20s7YsMRokcrYVCHR0F/DKZXz58zm6++eBzygGvravQfs/K177MzNu+zczXvlEu7BvXjm3oOqjxFZU4DdGliJMm3ieBZLOoINqWjNUFGLeoQ+Gna/e9har5v81lv+9Nhzd1pNne0//9wgNiRgsKetdZGDqTHvn2EJjdTYsBIcRoiV4NPfnsQOHzzIHty/r5J0LQdM4i4Zxq37D9mN+w/Y5bv32Ykbd9m+q7fYnxeusVUnrrKVx6+wzwuKyiXcg3vXX7jO9ly5xQ4V32YXbt9jNynN25T+PTLc/5r5YeHz9q1b2LAB/ViAmwvXlxItGdcfHW5k1N+/6+vitBQxTgTde/7QtV276MTI8F/crBU3sf1COswPEkchLZo24ZGjsLB1119/CeKuvYARHLt+h20g41h1oogtPXKJzTlwkU3de4GNzz/HRu46w/pvP836bDvF+tJneYR7cO/IXWfZ2D3n2KT882zW/kK27Ohl9t3pYrbl4g3+Lrzzv4L1f6xj/Xt0J5fQni8wxgAadEV9Hg0DbaHeHgfbtGg+sEuLFpWOQF1rsWDBAuMenTt2ign2/4OMDaeMPBqBFEns0GJtm5uVgo0cNJDt/Gs71WrPLu7GkwIe3SVqZY5cu8P+unST/XCmmC0m4xr79znWY+splrW+gKX9foylrjtKdIyl0/fmT0h4Bs+Kz+duKGD9/zrNJpLh4V14J94NHsBLbfQy+YbQzZt4TExsskW8GHQxpO6iqDMYZKPWrDg5JnLe9MmT/deuXft89c+kINn9b+7cubpD+/TpnRoTvdXezPiOygUoLTi0bKaNGjB3a0s2rH8/tnvXTvbgQc12IxFWH32nQ9dus29PXWXTqMWC8nfdfJK133iCG0Pmn8dZxh8ljQa/WzwhqaeBa60pbbwD78I78W7wAF7AE3gDj7UB2EC7eeN6HucES68ebb7VYGQgJ4X5rVAvj19aJsU1g5FREvIq/u9XfW/eMSenvZeD7WrqwF6BG6DesoHQZ9N/rR4Ptjmsf1+2Y/tWVSnUQJy7dY/6TTfYR+TCwSUctOM0a0NKn0ItTtJvR1ny2qO85YFBtPrjODc4bVJLShPGh3fgXXgn3g0ewAt4Am/gEbzWZNy4fp3HguyUm8WDHWHDKbwcdSOD3ljoNsbG3UIfR7uVSRGhqbmpqU0ENZMBtMjLey3Cz6uZj6PDp84K84uY0YfwpMLEdwgTa9sQd3/EwP7cjXyW4dukuH3/ITt78x7bffkmH6hQ7j7HWxQoO5Qeyt+KjEAkTQYiEv7H/RWhiqQlEu4XDRC8gUfwCp7BO/JQk4C9bWt/+omHx+O7OcjIoAOiToh6gYoZAVo97G0u+Ls4fhTm4RHLXnhBbsU0oUVo6GtDB/aNaZkUv9Tbwa4IIQVEQUoFCzcS5EZu5MhBA9ihAweEYnl2uEOdnl2krIsPX2LDd53hrloOKTLcOPS/REMr1xAkxvO0hDTE9DS9C/eAF/AE3sAjeAXP4H0n9eOQl5qCHdu38aCzPIz76/V4uUt1AcQ9IL0mLNDdtbBtZuby3h06RCYlae+st/8ksEzmnYkTo1omJX4Y6OZc6IRd1yRMTcbW5JWXWIS/D/tw8aKnDgKjDWBU7/vTxWzKP+dZZ1JaKDHcNShyWQoPwn9wHdG6YCCkGT2TQC4ePlvSf3DzOm46wamDGonXcQ/ulT6LtB65pcK7NBH+A4/gFTyD98mUB+QFeXqWwIqPi4WFbNF7c7FWkW+HURmUmodDfXoMfPg42Z9u1Sxp0ZypU3FewvM78PEkgLHNnfVOREp0xCJXS8VZWyP9B+qT2hA6XAknhRnr2jaXbdpQPSezSFF87wHLL7rJllBL0GvrKa68LajFAIkti7pyo0WBcsMQ8IlrbclYOm8+wfK2nuTD9UN2nOFD9TP2FbL3DlzkNFeNxOu4B/fiGTyLNJAW0kTa0nfh3VJeQOARvIp84xrygjwhb8jjswAWk2/843ce3RmeDVozafnzyWhDPWZtoHeXPJujGUkJc8cqR4TQo7K7+CQggdVLi4lxdbNSjHZRmB9yJP8bxiat0URjQ0zGVZ+t5AVUXSi8dY8PmY/bc5aP6kGJy2tFuEITiS0YKGv9cW4caEU+PHqZpwfX7cDV2+zotTt8AvvUYwj34F48g2eRBtJCmkgb7xDfJ/JWFn8ib8gL8oS8Ib0Lz2Cw5OrVIt6aIcoxyhxRj8Vyx29EvsIQP9YxpsdGDhvSr5/riRMbn7/NndqCh5WVZUxw4HgPe+v96PCqd4QRgsyB/Pd5s2dVedwKAMucoNiYaB668wzv7ySR6yW2BpoUWHTPMMcFt284PTd93wX2gTCpvJ0MpOD6XXbtbuVbD6SBtJAm0sY78C68E+8GD49za5EX5Al5Qx6/pLwiz9W5xAsx+hGMx9pIjy+tkpY7DM3e1PCmn7NjfsukhJELZk2RI15VFiTzOu+9955DuJ/Pu+RC8APupIaGAxpsjA14pKqqDvuGETksc1pEblVvai1ENxCf6kqLa1BUtBJoVdBC9Nl2ms3cX8h+O3uNHSdjuIH1idQXqQr9RZpIG+/Au/BOvLvf9tOcl9bEE3jTNEiDvEjzBlcSeUbeq2tUEgeVICAtYkWqD4DA0HCYfHJMxISRg/s6Cqoio7IguddJT4zvGebtecXVyrxEp1j/dTI06gyPGjKYxyBEJ7oqgNp804UbfMCj25aTpKAql6wlKSomhtUVFQqMeSv8HkatAp+zOn+dr8y4erf6J9rxTrx768Ub7ONjV3hLBd7AI3hVryiQJ+QNeURekWfkHTKojpYNOzYQO7Phi3VKjzRS2TtZmu3p3rEdVuQ/f0F3qhJZzZt3iwrwu4KVIVg98q+hvcp30SJu/P69e6skBDdaBSgoljOhJRCVT6qYImH0DtRmwwk2aMcZNudAIfuZWpPT1JeqKThLfa6fzxZz3sAjeBX51pQnsVJB3iEDyAIyqUqgReuY3Zo1eun/NBqai5XFrreGD06kW+XBD22hqKioUXpc3BgPW+s79iZGj4wMxF1H3qIN4jEYtW1oqL23FN5g4/aoJp8zflf1YdRbANXInWp0D8Puk/IvsF/JwM7dustX0VePw1VxgCfwBh7BK3gG73zARK0SQV6RZ+QdMoAsIJOqbNnKdR3Jo3G1URzp061z7wsXLhgIaiKjMkCYsGF9+wZH+vmsoL7YQ6nAQdi+jn7blAnj2JUrl7XqOqI/sqnwOimiyshQ46v3Z0RFRI2PgYY+20+Ra3aZ/X35Fit6Bi7ikwI8glfwDN7TKA/Ii3pFAkLeIQPIYiLJZNOF61XWZzt75gzr1aUTj+2vvqYRhuakML+cFh+zdNjAvoGCqsioDHJzc5u0Sk4a5O/qvBchDtRHn+A6ImLWB+8voOLRXqFjr1h+0S3eL8kiJYP7VGrQgNfyKpcrd8NxNnznWfbVySJ29ubTuYlYSnbp0iV2/NgxHnJ8986dfN/V+t/X8fPf/lj7Gyd8xzX8h3twL57Bs0+7HA08g/cRu87yvCBPyJt66wYZiG4zZAMZQVbaBqJEI9y4t4MdL2esbZQamr2p8b0Ad5d/4iOCO9HtsvtYWTSLibGKDvJf7u1oe0dqaBA2hn2tDfVZ88Q49tP3a1QlpCVg4AAjbd02n2TpVMurD9+L7hQUD8uYxpM7tZncKb4iXkijIkALfP/+fb4KYtuWLfyQDbTO2G/VpW0uy0xNZtQ3ZcEebizUx5MTvuMa/sM9uBfP4FmkgbSQ5pO07rgTvMMlRF6QJ+RNk5uMa2j5MEACGUFW2gbWOOKMg+zmabxrgKjE0grWjvrlrlaKu2HentMXLpyhJ6iLjKcBVohkpabGeznYbHOywAEYKiFD2BgQweJiP1dnNl45iseC1xYQGgDzZL22nSKlKt1vgeKp+jPHWd6WU2zO/kI+QIDd0k8CHGuEVemIeTF66GAeNg1HJOG0FhzogUWyyKdO3ZdYg/+9wAcGQPiOa/gP9+BePINnkQbSQppI+0mPToIriLwgT8gb8oi8So2Nt+SCXCAjyAoy02a7hooC4SvGjhrJV4bovPrSI0MDWRPhepi3x0+jhg+OX/3++6+rtEbGE2P21Kk2zWNjxzlamJ5GCyYVNFozrH9LT4hlP//wPQ87pg1gwvfHM8V8SB5rCNFfERVMNDIon6hkS49cZvuLbrP7FWw9sOXj+LGj7E9yAWdMfptlpjRT7a+i/GAjI7YC4TuMCIQWnE9nCJ/q38X78AyeVW2GbMTTRNp4B96Fd+LdFQHygjwhb8gjhvk1tWyQDWQEWUFmxVruk96/d4998uEyfiAiugjSHfiiPgR7eRxv3zpzytgRI57fUAWVReuUlNSIAJ+1DmbGt6FMj4RMrRqUCZ99u3dhJwoKtDIIAqcv/8otPqqGGlucsJUql6omp5Zs60keguAYuU0V7aNcvnyZ/fbTj0w5dAhLiY1iXg62/OA+dPb5gYfkHnFDod+ikalXMFISDY4bGj2DZ5EG0kKaSBvvwLvwTrwbPFQEyBPyhjz2oLwiz8i7VBaQDWSE65AZJrSfzHF+PLCGtX3rVjjVk5c58ivmHeXv42R/NzY08LfmcXHugtrIeBKQjF+MCvQd6uNsfwlCFgUMglLhM9Tbk707fVqFa+rH4eSNu3yrSLuNJzQuq4LLhEGCnPUF3LU6WFyxKMo4JxpHDr07fTqfhPV2tOc1NIauxXgXYt60RUgTaeMdeBfeiXeDB/ACnioC5PHdA4U8z8i7+uAIZARZQWbor0GG2sSZU6fYezNn8j4pKhFUIMif2IVwsjBlnvbWR5Miw7N+/vnn5zcuyNOA5Ftn3szJlmE+noudFeY8lJgoWBBcRnSQ8zq2Z3+sW1vpsOGog9E3+f70Vb7cCMqD2lrqKoluJBRu/J7zfODjce4iWlkMTHz/zdesd9cuzM/Z8ZGr96jFkuQLhN9ibc1DpeN3GVTi/zLSwjuk7wQP4AU8gbfHeQLIIwL8IM/Iu+guinKBjMRBE8gOMoQstdWu3b1zhx/X1bZVC2qpsR/t38XFnCiP9mZGlxPCw2aPGz7cTVAhGRXBqiVLGg7q2yuXDG0jDIorlER5mtR9kddkOHMaB+NV1m28SYqx6zKG8i9w5dHcLzvGUuk6FueKo4uPA/pFSxbMYznN05iLpQV37eDWiW5vCYWR5I//J/4vfi+LhHsePSdJSyRcxzvxbvAAXsATeAOPj8N1yivyjLxDBnxwSCIfkCgzyBCyhEy1hcLCC/zIXgyGYfJamk9UHrYmhncjfH025qSlZQoqJKMieHvcOI/m8fHLfJwcCiFU0bUSv5vqNORnKWMQRBvAiBlcRmx8xByRel9EnFPChO43p4oqNLq4e9cONmXCWJYUGcZ5x34qKLuoIDw/+v+2RtjAiP1VHrZWzMfZ4Zanvc0xTzvr7b7ODuuCPd2+D/f1Wk0VzxcgfMc1/Id7cC+ewbNIA2mJLRzeIX0neAAv+A7ewCN4fRyQZ+QdMhDnDqUygsywcgQyhCwhU23h7r27bNmi93kwXWyVwqCPmB/kEZWxm7XlpbiQoNkrli79bx8UT/Ko0yUpqV5kpHeT2OBgA3dbW0OTJk0eka2JiWGAu7thZnKyYY8OHQx79Ohh2Dk72yAuLqipg4NxY2dT00bednZNxowZ6dgqpdkQXyfH/eibicLEJ2ov9DtIwdiowYPYvn/yVSVRCWAcY/eVm3yiFsqj7jLie9q6o6wj9UGWH7vMzt4qvw+CCeO9+XvYyMEDedxBS72mvF+hyU0UNy+Sojy0MtS94WBucjHcz+tA88S4b9MS4t7OSk3uNqBXXsbHixdHbNu0yXfv7t0eIHzHNfyHe3AvnsGzSANpIU2kLZWf+J1XVujrEG/gEbyC58dNdiPvkAFkkfb70VJyguwgQ8gSMtXWPDaW1e3cvp1HP3O1suBdB/U84dPfzXln13Y5A5XDBjiFhnrqQKccjI0bQ8c6d842GEQ616FDpmFyVJShVD/xPSLCVy8xKKhR29DQmrs7m2RRZynVJFRDtgrxdp0S4u3xubut1SoLPZ1VVLtyon7WqgA351VpsdGr2mW2WNUxO2tV69Rmn0QH+s11UpiOtzE2VHra2UwO9vJc6efstNfBxPg2FFEUJghuA4ScHB3JPv/kE3algiNo5QEBaRCcpuuWkyyZDKqE8qB1I8VBuAAEJsVSpcfpDoIFYd0lhqQRSAYBPlFBSPOhUgzVpCtOzvFzcTocFej3CXXoR2anJWd0zskJ6NOtg+1kpVL/8uXLDShZhEt7FM4a33EN/+Ee3Itn8CzSQFpIE2nbGhnw90kVE8QrLeINPIJX8AzeywPyDhlAFm03Yt1n6flFyBCyhEwhW20B0zcY6sdkvW69Vx55OaI88dvO1PCmr5P9P5EBPp8GerhOo7y/aWtiNCbS329uTvP0zzrnZq/Kap66KjYkcJWbtYLrpblOI/6dvISlYX5eo6MCfBOUAwfqC6KuUajXIikuqFl05DgqsJ/IwC75OtvzmgdrEGEsIDsTA+btYMsoI2QoEYwMjsWGBMBNum1nYnjWylCvwMnC7CL6D45miBNScjc1vsPQ4Pr07NyRH1Re2fDg6NptuHCDR4JCR7+5Wt8D7lAKKc6gv87wxbdFd8p/38mCAu6K+TjaM6MGr2vsi/GWjQg7DqhiORnq7fUjVRwjB/fvHb1z404jQaZPDaSBtJAm0vZ1dDiJ/qzq3aUNHjyCV/AM3k8UHBNyoxmQAWQxeMcZLhupmw3ZQYaQJWQK2Vay+1wC2zZvYtnpqY9aZPUKjLvfpHNYkkd0xdpA74SNof4p6oLcSggLYenxMSwxPISFeLrxCg6T3ujf4rs3tewedtYFpKNfhPn5DG8WF+enVCprRoAfPz+/Vy31moQRo4vJR77oaG5yB2cH2xrrc5cInVfR0OBbw5e2NzHkcyIgzPPgmhgPBM+oniu5uROETjwUNNzPhy14dw67roUJakxOf0SuEFqsUqsfiEQlwnaSczfvltuaYQQPgwvo90CB0VKoVxQg5I2M7I6LtSI/PiT4nUG9e0dOnTpVZ+XKlS8LYq00kBbSRNotmyW+E+Thkm9vZnJHyoeUL5FX8L54/ns8L2UBMoAsMOQP2UBG6nKDLCFTyFYbu8ZFnCg4zmZMeZtFkA7A0PiqfrW84FPUI/E61zvSNdJP0jsj7klwPaP/QPgu6qGDqdFt0uVCPzfXRbGhgWH9+vV7tuERKN9127VqFeCoMFlENcc5nApjY6QK6c1rbYkARMJ11EJilFnUpriG/5DhskbPcI9uvZeZs8KMhwTP371bJflKABOyOBBi6t7zfMQMa/fUlQU7o7Hq4dezxeVuCYEL+/033/B1eeAXnXX12ha/0aJ42FsXxwT5fxfu79MhKyPDmR7XmoGpA2n369HDOTUupkNsaNB3VGMXgwdNvIkDDORa8byU55ZDFpAJZAMZqVdS4g4AyBbzcNpadHzr1k22a8dfbEDP7uQhGfEKQlMgVXEgSPwN/YGuiTqH/Er/x3eus0QwOBy6QnTO08FmUfd27QLo1c+u3zZm5Ej79PjYKa5W5udEAxEZ1xbBFcCQtP7r9fhwfl6HduxPzJvdqfwi1svkAq05fZVH7VWNmJU0tGZrj7H2mwr49hFs2ixvZgjzPH26duHD5hjRA99iHngh0m8UoKe9TXGz6IivBvbo0Zweq7bCw7vwTnLvvwIP4AU8lVBG+g3ecawx8oI8lQXIAjKBbCAjyEpqaJAlZArZfnPqKpe1toCy/2bVl7xSc6AWCjxr6gdXhiAXGJ2Lldk56Dh0XRBl9SMlJjIr1MczH62Meg0CUrVeVHugBhFqESmhYDVdU7+OmhaLR3t06sA2/PE7u3nzpiDyygErzhGHHi6OOEEtNTTsLcNpLdsulj8xffnSJTZ3+nTm6+zIR0RRY6q7M8iTp4PtVeqQfztqyJDmy5Ytqy+IsdqAd75F7wYP4AU8lSgz+g7eVaO6jjxPyFtZgEwgG8gIspIamjiBDdki9Li2V/dfOH+Orfx4OcvJSEfsEK4nOOxC1BlNuiVSCR0T9FL0qkqUGV2DbkPHoeuCGKsXlNeGUUF+Y12szO/C3+U1gFBo8HPBJGoacbU5p5f/jzWp+xJr+urLfLNm03qvCJ9SeoWPKOH+hi/V4b4zBk6wTg/7r3CaiLaw/fJNftwRYmaUUJI/sfKBWrONJ/jxRwjnVhZu3LjO1v78E+vQOpMKTdX6SgtMHHzwtLMpQkumHDY4nRUVNRLEWO3Au8EDeAFPUh5FQh6QF+QJeUMeywJkAxnxcHuC3EQ5QqaQLYIBQdbaxvlzZ/nZ1aOHDmKJEWGkd035cjOuX490rDRBv6BnuBd61vjl/zEDyjN0VhwbEPWZjwqTjkPXixir9nKrs2zZQit/N+f3eOEIBiYSaggYSJCHK0uNi2ZpcTGcUmKiWHxYMF+zFunvyyMM41NKuBbu580/m0VF8NHF5UsXs6OHD6uGCLUEnBX2w5mrrMvmk3ydntTQMGqG/gVWQSByVFE5nXkc66ocNoSP2CHfvDUT5ICCQuE7mhnfRv+ob17XjE8//fSZxx0ED+AFPIE36dYjkNiHQZ6QN+SxLEA2kBFkBZlBdlJDg2wRzBWyrorz2e4/uM8O7NvLliyYz3p07MANjuuQr3cp3RIJAym4BwseVHoZyQLcnLnO4hw+UQ6cBLlA15cvXmxN4qvWDab/F+rv5WRnarSIK5OEMfxGB9XT1pq9PW4M2/P3LvbPnj2ccIDgzz98xz5b8TH75MMP2Yply/inlHDtoyWL2VdffsH+2rqVHTl8iLsv2liZLwL98uPXb7PFRy7ymjhZrX/BB0aI3tl3gYdpK68fj/4iVsZjbg8KKiosPkHoVwa4O+enxEV0nD9pUo1Z8ApewBN4A48ivyLvcKmQJ+QNeSwLKlne5bKCzEBSQ4Ns220s4LKGzLU0JlICOLoLo6SIF/PH2rXs0+UfsY+WLimlWyIt/2Ap17N1v/zM9XLHtq1szMjhfEWOccM3HskBBN3Gb+h6pJ+fM4muWiNu/U+3fn0XamoXEzMPMW/xqIDg9xJhzgJGpQ4YTHHxVVZ05Qof1cKnlHANW9hvV3KRcHnAEkWctDn277MsF3NnpByioeETtXLWnwU88CiOvC0L4lAztqHADVH38zFP5u1oX5jRLPGdvt3bKwTZ1RiAJ/AGHsWTe0RCXpAn5A15LG/zKGQEWUFm0nlIfKLSyll/nI3dc5ZtLLzOZV/VwNrXSxcvldItkVBxq4+orvn6KxYfGsLQokF/RWMTdPshdN2oXj1XElu1noH9PwtdXWdiYBGYEA0NhYNaHfMVGBFCbIuaiDv3H7LVJ4v4HisoBBbIirUwOvD4RKBTRPktbxDkOyqczJRknl8MIIiFg0+4Ia6W5nfDvL1+HNS/fyRVMK8IsqsxAE/gLczX60dXKwvVaauSPCBPyBvy+O1Xq4VclwZkBFlBZlIZqr6rDC9vy0m+Cxuyr4lADBboLPILHRYrTdHQiBbZ6Oq6kNhqjqFhIjq3RfMaa2i3xBqYWjO+hEhQCrEGxuEQk/+5wI+hLU8t5s2a+ejkSbFgQMJczH1/V8cDydHhIzFxLMitxgG8pUZHjvR3czpAPD8A72I+eHlS3pBH7JIoC5ARZAWZYVkWZCjKFASPAQa38NDFGnuONnQVOgvdrTWGJrZo6379RchGzcKF2/f4SBnvvBOJCgHlwDB1500n+CERZY02opG7SO6tcuhgUsRGzLCB2kgjuR6W+rq3IwN9PxvSt2cEyasmR2iqk9elfVCQl/ty6vjfUvH+b16QN+Rx5OBBPM9lNfCQFWTWZbMqtr/U0CBnHCWFqZTzJPuaCOhqrWvRarKhQU+wUgHRdqEQ6oYGhYCbU178C0yYItJUt3ZtuHuFuIPIv0iQh725yaXE6MhRmzdvNhZkVmOxcOGnjQM93AZQuRXihBZpXpA35BGRtpDnshYKQFaQGdxxyFC9RcMwP2QO2ZfnJTwryIamZaA/gbgWY/8+V8rQMMma8NsRftTRzss3y+yfXbl8iYd1Q8Qpvt6OFBH5R78GhNGrcD+fA5lpyRl0+0uCzGo0kmIiUsP8PPd72lk/ygfyhLwhjwjnhzwj75oAWUFmfbef4jKUTv7DPceSLDGmSHn93mcF2dC0DOyKxkETI3ed5bEapcuuoByojXGg3+HislcyFBw/ymMoIrwb8ivGL0H+0cfxdXG82Twpdk3nnExfQV41Ht3aZvuBZ18Xh5swMlHRkDfkMczHi+cZeS8LkBkOzoAM1Q0NsobMIfuK7EyvbsiGpmWI8RqxWkHspEMZ4OrwZUP0idMzEf2pLGCDZL+87jyWojidgfzzVoAIgWJSY6Mn9W7XDhOctQK9u7azTo2PngTekQexRRPzh7PCkWfkvSxAZuPyz3EZQpai+wgZQ9aQuRj/saZBNjQtAxsRPz1+hQ9FSw0NigFqs7GAH1V74nrZy65279zBurTJ5fmEEoqFAsIEp5PCfFNccGBbZf/+NXa0UR3gFTyDd+kCBOQNebQzNeZ5Rt7LAmSG89cgQ1GeUkODzCF7bW4G1RZkQ9MyzlFtip2/WAirydBwogrOhcaRtWUB8e4RiltcmCrW/iAoqbuN5c8dMzPivv7665qxabACwILj9lmt4sG7+kofsVVDnpH3sgCZQXY4VVSToUHmkD3KoKZBNjQt43GGBiV5nKFhcXNkoB8PyS0WCEh0HYM8XL97f9688Jo4SV0WwOuShQvDwLvUdRTLFXlFnpH3sgCZzSPZobKSDU07+E8b2tzHGBpWEQR5uvH495oMLdzf5+utW7dis2C1FkplAF7Xr13rRob2uZgfkZBH5BV5Rt7LwhlyCRceUkUSgyxF2eITAyK9yXX8hFxH3FfTIBualqENQ8MqApzogi0WmgwtxNvjsyP796NQahX27tpl4+fqtELMj0jII/KKPJe32gd9L8Tqxwkzmgwtb6vqnILy+r/PCrKhaRlVaWgiQVmhtIKsag1QOaCS0OQ6VsbQ8B27rXEdLV55I7rPCrKhaRlV6TqKBPcLbhjdWqtcR7i7cHs1GVplXEfR0HpQi7bs6GWtx+bXBmRD0zIqYmjaGAzBwEJtGwzBAI48GKLZ0BS6Td43rl/fiUQlG1pF8DhD09bwPobKn0VckKcFpiIwJVHVw/tf1FJDo/wvFAytejd+1lZDkyesNUOesNZsaIIsHnrYWn3SOikpaObMmdXqpdRaQ6u2JVjx0ZOwrEmQV40Hloth2Zi8BKukoWHtKgL2xAYH/DTxrdEtDh48+IYgsmpBrTW06llU7MAXFWOhriCvGg8sgFYtKnaUFxVLDA3dA+w8T4mJXD935vQORUUF1RoJ6/9ee+EFeyqEBbXN0MRtMtiyga0bqGmlhqaNbTLYaoItJ9h6IsirRoOy9BK29GBrD7b4iPlAnrS1TQZbkrA1qbZtkxENLS0ueuO82TM7nTiR31gQW9UjNDT0RUdzc1cbI/0ltc3QUMTixk9sRpQaGlwd1MaV3fiJzZMkg0Jsply4cGH1FcxTAptTsUkVm1XFshRJWxs/YWi1ceOnaGipsVEb3ps1o2O1Glp+/trXRg0Z0IzciTU84KRQ+9UGQwOwnR7b6qEQ2GYvNTQohFZCGejp3EJ4gLwuuUEkshodygDhFhB2AeEXOO+SvGgjlAEMDXJG+AiEkaiJqJGGdurU3iaL5s3tkh4fuxlMiIUjGpoYnKe8OZdnCQSIQaAYsZMuNTQohNaC87g5HUDgm5oenAcBhBBIqCqC8+CzBf1GICQEREJgpJqI9b//znJbZpQKziMaGlzHBXNmda52Q8NL0+NjNmkyNLFFK28VwbMEQp5h9AsuIpRBHHlUfVd9Yii60uHmrCzuIpRbjQ835+31I0LjgWdpHpAn5E0b4ebgUiLEX20LN/dMW7Tt27c3mDB6dKuYoIBf4TqKtSAKhw916zVlcaHBPBosgqEWFxeza8XX+MEEiAy7fctm9te2rWzH9m2lCNcxKfr3rp3s5IkCVXWpZWDQC8E8EdQTAVTVa2A5gKqq0tRGAFV4DDyA6t9nedDaqh5wPH3qJD+1dBvpmCb9AkHHQIcO7Gfnz51jZ06dYssWv8/iQoJ43qHDjyockgN0HLo+dvSI1tB9QXxVj7Vr19Z9a9Cg8CB3ly95wQhMccboO3x6N3I3cPTPR0sXs89WrGBffPIJW7JwPhs3eiQb0rcXGzagHxs+sH8pwvWh/Xrz/s/cmdPZrz/9yAqOHSNDLRZEWXnIIcH/WyHBEfn66KFDbO0vP3F3fsSgAWww6Zgm/QIN7d+X6xmmKxCzH4daYmALc4U43EOUAyfhO3R91KD+kdB9QYRVD6VS+X9ff77cjjr7C6WDISKhNrSi5tbL3pYfWIFDLaIC/fhcDI4D8rS34TVlWST+H+jhypIiw7nhwU27eLHsUyifFPIhF9V9yEVxlQRPvXDhPPtm9ZdscJ9e/FzzQDfnEjpUHuFgC+hkiLcHP4rXygCHaJbUZeg25ANd/3LFCnvoviDG6gH5929EBwcOc7NWXBaPbSrZsjXhh13wI3KEY3R067/Cj3IybPAaH83C8UClCNfpfxw8iGdBOGwuu3kq+/iDpezsmdOCiCsP+dim6jm2CTL+i2StTdy8cYPt2b2LzZs9i2WlpzJnhTnXLyx+xhFMXMdEnVInQf+4jtEzevXrMhxkWKolI4Juu1opLkPXcTC/IMbqRUZCQlyEr9cPTuYmt3k/TcooEa6hM4naEYQCRWv3JITnYLA4ZC41Npp9uGQRGdsZflhGZfGsDiLEYYD/9YMIW5EsIdNcku2Uf3AQoXYPLfl75w42duQIFurtySsF8A16Gh0DlZADygzXiJwtTG9HB/r9AF0XxFj9GNa7t15CWFieg6nxXktiSt3QtEVYmYCWEILEeVafrVjOLhZeEET+9Hh2R+tG/ueP1sWQPmTab/sp9nnBFVaoxfmz4qIiNn/WLBbs4c4Pi0crBd1QN5anJaTDiXSaWrO97bJb5kHXBVE+G2Q0a2blYWM1llq1QxgataUCFJmE4cG/RT+O9+WETIh9GV4DCQpZ4h56FrWMmHGR4EbiervWLanj+7Mg9qfHMzss3s66GP0jHOCOg9zp8f/cYfFY2wiZTvrnPMu/cktr82fFV6+yH9d8y7LSUvjyMHg7Cn3NBoaV99Ap1WoXUe9KHhYv6p2ol9BHexNDqjDN6dNor5PCfNTkyWMtBXE+O6xcufJ/2RnJDiFe7mPcba0P2JsZXyPG76LGxICIeuYxJ4HzqOk+TrbGhg9wv0Kv6R2FflPqmKuexX24HwIQn4WAUIOhxp005k1+1lVlXchr1Jn/iGpluI/qyoLvqJXxfc6BQnbuJlq1soHD8JYsmMeSIsM431wJJPzju/jb3szkTpCHS37LZonvDOrfOxITx/Pnz9da+HCkhTSRNt6Bd+Gd6nyIv0Vewfvi+e/xvJQFyACyeJdkAtlARqXkRrKETD86epkVlzOY9KT4Z8/frE+3LlwH4OlAJ8R8cBLyRXr0wNJA9w7p1W0LPR2uV6R3DzEhjQYBOijqGAjfbag/Rp933WwsrwV6uh0IdHMZqt+woRm9tmas7CFG/i+jWYxVYmRYtr+b8zRfJ/vf/Jwdj1JtcMZCV6fAXLcJJzKgAi9724KYIP+C9PiYk+kJsadiggP+cbexWkuC+NbaQP8rF2uLtdQ/OEs1L3e11I865a4CdWTbtMxgm/78g924XnZHvSKAnW64cIMpd59jOTiUUE1poEQp646yQX+hVbvGisjdLA8nC6hPMmEsH7EzaoC+ZWmXBi0KPjGs7uvocDLM1/vH5NjIkV07tg1btWpVQ0GsTw2kgbSQJtLGO/Au6btFAm/gEbyCZ/B+ouCYkBvNgAwgi8E7znDZiJWRaGSQIWQJmUK2lasKS+LnH75nUQG+DGdQq/et8J17Qno69yi/e5wtTddQq/aVaaOGq6gRWJcYGXq4eWL86dS46ILYkKACD9JF6KWZTuMC0sEzEf6+R6OD/H9LjAid1jojLTslNtRcEGnNAsmhTm5uK/tkMriEsJARXg524xS6OkrqrHKyMzVWRvj5KDtkZSoH9+391vD+fd/q0i67f6ivV461gUGag4lhcpCXa05McOD4cF/vda42iqu2xvolFIMrBdW+EX7ebNbUKapJ7UoCGxGx67rrlpMsmRSnRO1MHXqxdp6Uf579ffnWYxUHE6ajhgxi/q7OnFeMaKm7alAKkK0RRrUsmJ+r45FgT48Pgzzd+2PVf/d2OQE9OnWy6d+li87ZXbvqU7Kl3Etcw3+4B/fiGTyLNJAW0kTaeIf4PikP4Am8gUfwCp7Be3lA3iEDyALLrSAbyEhqaJAhZAmZamuTJzyXC+fPs7kzpsP1Zk3qvlgiP1RR8wUCjuYmhfT/Kh8Hu36B7o7plrq6yXr1Xk4M9/fJ7dO187DhA/uPHdy7p7JTTo4yjHQRemncuKEy2MNjXNtWGSN6de2UPX3SGHt6ZU1en6pq3XJycupnJSY28nNwaGzaoEEjkZxNTRslJgY1Gjq0e6O5cyc2mjZtWuMhQ4Y0iI6Orm9sbPxqqJlZXXzPiIlp3D4zIy3C3+dPNxvFQ6w0EYWKGgsuA2rozrnZbOvmTbwgKgN0vXZfuclG7DrLJ1wx+ljC2IjSSHk6bjzBlpObefZW2cP9wN27d/kGyZGDBzIfJ3uqYVUDOppqYHxyt8VI/6GlQdPrVBldCPP13J+RFL8mPT52EnY9d85qFY8YJOvWrXNfv369JQjfcQ3/4R7ci2fwLNJAWkhTkwuO76IcwRt4BK/gGbyXB+QdMoAs0n5Xq5SIIDvIELKETLU1QX3v3j2+eAFlji4HvBoxT/i0MdRnzgqzh2Henl8P6NszIjQ0tGGGn9+rZqRTpJZ1c0ivpiuVDaFzcydOJB0c2igxKOiRbsb4+TXu3r17oylTpqBSq965smeJb1eu1G+RnDTBy9H2OFdQuAQSJTFq8BqfaPzsk4/Z3TK2bjwJsOt38WFVBKcMtGISdwgE5UHt3Wf7KfbNqSLq3D9eg3bv2sFdMfR7wLs4cioqPM8PddKRJ9UAkDAySTW2r4vDbex2RmgBxPEI8nBdE+Tp9gUZxXIQvuMa/sM9uJc/I7rclBbS5GmrDRaAB/CC7+ANPILXxwF5Rt4hA8hCugoEBJll/H6cyxCy1OZOalQAs9+ZRpWCAy9/qYdAfXtsTbrvZqU4GuPvP4Rur77VG7UdmPPp1b1zDHVKv3cwM+IjRxAoFywpD5/Ipppt7KgR/DT+Bw8q1+G+SUqEjYtYgQ6lwYiZVIlQW2OBbCpdH7HzDNtSeINdr8DCveNHj/DBhWxMqlIHHiNlmDDV1HcTiRsH/pP+X4Hfj54Tr0kI1/FOvBs8gBfwBN7A4+OAvCLPyDtkIC4WlsqIy4wqKcgQsoRMtYEHD+6z0ydPsv553Yn3Bnyer0TeyPCsDXWv+7s4rkyJiooUVEhGRUDyrbN27VqdpPCQ2X7ODljGxGsyUbnQosEvb5mSxL789BO+UqAygErcJsX4/vRV1mvrqUcT2FJlaikoEzr64/ecZ5tJ8R63Wxh9C4zgff/N16x31y7Mz9mR18Yi8dZazTi4wahfx/dyfmt8RrgutgAigQfwAp7A2+NGbpHHLRdv8Dwj75ABZCHKRXQZITPIDjKELLVjZoxduXKZrflqNctIjOerPjAgJs0jyM7E6FxyTNTQ7774osafsFoj0TIlIS/cz/MY9cnuSQ1NVFIsBB0zYhgrvFD5CWwAwT3h9rSjPkjS2qNceUSF4kpFv+EyQeHm7C/kO4YrAiyK3rxhA3t3+nTWISsTq/qZ/uuv8hXyqKF53tSUp7KENJE23oF34Z14N3gALxVdqI08YigfeUbepYMfIMgIsoLMFpHstB0gdf++vWzkwAHcbYSRie63WKl42FhSN8J9X7vWLZvR7bXihNUah/atWwRFBvotszM1uiJObotChsAxLN0xqzWfX6ms+wg8oHoYE6yIKYI+B+bWpEuzQLgO5crbepItPaIKcY3J74rg8uXL7Dfq1CuHDuEr47G4FfM6GJjACge01HDtsOGyrBZPStIWC8/wSVxKA2khTaSNd+BdeCfeDR4qAuQJeUMesZ8MeVbvu0I2kBGui0fnQobaxC8/fs+aRUVQHlX5FCsl/kn5J5fxRnp8zGed2mQ6Cmoj40mBUaLowMCutsaGh0u4TkQwNL3X6rKkiDC2auWn5a7LexJgEhvxL7DqQXQXpcql6q+p+my9tqkObthfdPuxbqQIzP0dP3aU/bn2NzZj8tssM6WZaqc25QeGghUa+M6VSlCsconu4YZGz+BZbqj0HWkibbwD78I7KzrviLwgT8gb8thSqFw09csgI8iqvDgrT4tr14rZIupHetjZMN36dUtUOqrvOhju35oWG921X79+1bcp87+I1NhY/wA3l9/hJqJfJgobymXc6HU+rzKgZ95j54CeBBgx+/JEEVcyGBTv/JOiSY0NNTmUDzHl4VphgS36Jk8C7LX7dtWX5M69w0YNHsiDlCLiFELZuVoreH4RIKfJK/9jDV+sww+bAOE7ruE/3IN78QyeRRpIC2kibbzjSYA8IC/IE/KGPJZaNUPXVC27qrKBrCAzbbZl9+7eZbuoTAf16clsTQz5KnvRyEDIt42RAXO3tVnaKTPTUalUviiojIynQe8uXUyz01Lmhnh5XIZwRRdSdJvgt2OoH+HQtLGqXwRW96PP0W3zSb52DwonKppobLgG9ylnAwZIzvEBEsQtfBIuwPP9+/f5wAQiTSEfUyeOZ/3yuvEVMKnk9kX4+bAQL3d+ogsI33EN/+Ee3Itn8CzSQFpI80nkgTvBO0YXkRfkSRzkUG/JcA1rQ3FCDGQEWWkbWNe4eP48FhcWzI0KLbVoZCh7LKnCVp/Y4MBRlM9aE369xmL96tWv9+vetU2oj9d6EjIOHHgkcBCG+tEXwaqByo4+SoE+Sn7RLTbln/Msi5QL82vq/TVes1Ntj0GC3A3H2fCdZ9lXJ7Ei4ukGBDBfdIlcYLRCmEDG1vstGzfwXc6Ia4Fjk0D4jmv4D/fgXjyDZx836VwWwDN4x2Qz8iLOHaoPfkAGkAW+QzaQUUX7qE8CrAQZPqAfX/GBHd+oVHmZo4KlytbZ0vxWXGjQlq5tslsLqiKjMiCZvzhy0CDrUA/3mY4WJvcgeKmvjs17mKSd+OZodk5Le9VEwI3aVHidTco/x/dWQfnUjQ2EGh/9FezLwoQuto9gqVKRlvssVQHwCF7BM3hHS4W8qLdiIORdVakUsIkkk00Xrj+xu1xRnDl9mnVt14bpvvrKo50FoqGhsnWxsjjTpmXzyTOmjMfhEzK0hSh/3z6B7q53sH4PtZtobBi6hqFhrd6hAwe0MvooBbaEwJ3CqBoUDKsfNLlTqPnRZ0F/BqfSTMq/wBffnrt1l92ughq/sgBP4A08glfwrOp3lm7FRDcZeYcMIAvIpLytQ5UFDK1TThZr/PL/Ss+dUdk7WZj8k9epTUu6VV4Jok2kxsd0jgkOvI3hagyESA0NrRwCr+zfu1frhgbwlREXb7AJe86z1qR0qPFF90mdUOOjVWiz4QRf4Y5BhV/OFpNS15zgoeAFPIE38AhewTN415Qn5BV5Rt4hA8iiIitjKgMYWsfs1mRo/1eWoe3q36NTrKAeMrQBxGto3iz+zWAvt7uuluYlWjQM8SMM91vDh/J+ijZdRylQe2+6cIP3SzAIICofhr6hgFLFRAuAUTnEzMBvHP7w8bErbCspKAYOrj4DlxLvxLvBA3gBT+ANPIJX9RYaeULexEoFeUbeIYOqbMlEwNCwiLjJKy+VMjTuOlqaH+7aLqdnQUH1Hjzxn8XmzZvfGDNyaHJscMDX9qZGD6Tnd4HQR0OL9s6kCeXuCtYG0B/BpCxG2nrz+SXV0Dc+1RVVNWigcsVarz/OA9jg6CKcIYbIUQjTdoNahXtUMVSF3iJNpI134F14J94NHsALeAJv4FG934m8SPOGpVXIM/JeVX0ydZw7e5b17tqZGTdUTeA/6pfTJwZDqI92pXlC7GcDe3WPqfboVP81zJ4woUluRnqryADvVdQ3O0st2cNHo09EED6iGSFc2NKFC/h2iqoGavOj1DIg2jFaBSiqpuVaUqWFwibTPRgswYmYCM82fd8FHngUUX63X7rJCsgYMFleWSANpIU0kTbegXfhnXg3eAAv4Em9chAJeUGekDfkEfNkyHN1tGQiMEUxZuRwxO3gHgy6C6KhodztTAzveznYnAn2dFsW5OYW1aKaj739zwBbZdq0bNkmyNP1O1tj/Rvqw/oQPpYZQejJ0RHsh2+/FYqoelBI/RzEKxy356wq3BopJ9wsPpigQXlxDYT/cR8I8TZwTNRkcslwSATS20kGcuDqba7YCOeGI2tBp2/e5RspQfguXsc9uBfP4FmkgbSQJtLGO8T3ibyVxZ/IG/KCPCFvSO/CM+hfXr9+na38eDlLi4/lZYw9aNLyBwkGV+htZ/tJSnREsylTlLqC+sioCL7/4gsD5YABvRNCQ9bbmhhe17QyHTUchO/jaMdXQuzZvVsooupDMblle67c5AuR4V5hmwhaAz4qCVJTZpDokkGh8YlrOFgDwVzzKI2+207zVgSnZ8LVw7nQOIR94aFLfN0hCN9xDf/hHtyLZ/As0kBaSBNpS9+Fd0t5AXHDE3jmrTIR8oI8IW/I47MABrUwuDV66BAe21OPugjqOoDfqHCdLEyvxocE/dm9Q4duzyz+Ym3DkN69TTNTmvWKDw3a4mlnfV8UplTA+C0uoG3RLIH9sOZbHqznWeHY9Tvse3LTMFiAjY8YvXucewaStiKp647yo6QSflN9Yg0hQijA3cPQO9LFgAQI33EN/+Ee3Ct9FmlJWzBN7wbhP/AIXsEz0kVLiLwgT88at27dYl9/+QXfoArvRdNOB/xG9DVvqnATIsI29enaueuWtWv1BXWSoQ6S64u5LVqYJkWG9gtwdd5qa2xwV91dFAULgWNQJCY4kL07Yzo7e/aMqmSeIe5Q/2XXZVXrNnzXGdaVlBbLmLC6AkqvadBBqvCc6H/cUxkSW9KyDAz3gBfOExF4BK/gGbzD/UReagqOHD7EB7qig/wfLbx+1F+T6AQqZE97m4eJ4SHbWqeldLIiBRFUS4YUwwb2dkkKC5vg42i7h4zsDsKKq9deMDxxZXt0oB+bP2c2O3P6VJXMnT0NMCKHPtRuMjgEp0EkKEzwSg3tkVFJlF8T4X+pAaF1kpL0v4qkJRLuFw0NvIFH8AqewXt1jSpWFAhVgW1QE5SjWLCnG5W9qqItoReC14MQ3k4Ks7uOFiabnRTmvQcNGmQoqJcMYGjv3p6tUpq9E+DidBzrFsUaSipMXOPbSMiFwELT92bN5Ecn1VRgUnj9hRt8YAKBRDGsDsXGqB9G9OCuPXLvSPk1GUhlCEaFtPEOvAvvxLvBA3gBT+ANPNakyXRNQDiDXTv+YlMnjOdeDCpaGBs+seD4kcGRjuAa1ka6Wlv8lRQdPrJ7DTwyq9qBrQ1z5rzjmNs8bXaYj9d50cikBsZrKy7Y1/nv6KAA9u7M6ezcubNCMdRcwANDANH8opvsC2o1EIcehz5gsAI7kuG2wSjQwqCvJBJ+S1svkcQWTNN/0jRgXPiEscGw8C68E+8GD+AFPIG3GuQllgssRDh65DCbOWUyiw0JJD3BYYllhPIjHXJWmOFEohMtkpN6dOnSpR6pW80OIVeV6NWrq0O7zJaTycgK/g3yWbqzyzc0Nn6DH/+0YO4cdurkSUH8tQNY3Y4h8sPFd/gxtBgyX3zkEhv79zm+5wtHz8I40OKAREOREvpTMCZOav+B8AyWUWGlBwZEYHwYgcS6RLwL78S7wQN4qYoV99WBE8ePsdnvTCFd8OdGhoBD6t4P5toQExTGFh7g/W3L9MQEwdieL5C86uTn5zdum9WiS7iP10FnCzPe3KsLTGVgDbjAyLVk7783l4zshEritRg4KwyjejgFExPfGLKfdaCQByYdS4YxctdZ3vpgHgxuHk5s6SkM24PwHdfwH+7BvXgGRjWR0nhn7wV+TjcmmnG6Kd5VFeeTPSscOrifzZs9k+uEnYkRD59n2qRBCTcSIfcwYOblYHsuPiRw1qAePZ6//hrJ6uUPFy8ITo2L/sDB1Oi2ONsvCgnfRT/cxUrBV3F/u3oVn8T8rwDtCVoVxEvE8bQXbt/jh25gmdN6boBX2crjV7ibh8EK9KfmHbzECd9xDf/hHtyLZ/As0jhPaWHpFdLGO2pn21U2Hj4keZ0/z1atXMnatmrB7IwNucejrkMwNBeFOSJ//dqva1dXevT5ch8RobhHpw7dIvx9t0MYFtSaiQJCrYSRRRiZo7kJ65SbxX5Y8w0rKnp282TVCSxzwk5nhAY4c/MuO3fzHidEl8IKEBC+i9dxD+7FM9W5RKom4PLFi+zbr1axbm1z+QkwcCOlXQ/oFubYnC3Nd2QkJCRW69G4NQFxcXFNQ30933K3tS7gzb1QE6EWgqDw6Wlvw7q1b8vWfP0VtWTXBNHKkFESN2/eZL/8+ANrmZz4KHqYtGWDsVkZ6e30dnbIUvbq9Yaggs8HFAqFrrWx/iQrQ70zojDwCSODC4DaCXuRcBYWVgfIkFEejhw+zOOmUDeE65A4EsmNjOuW7k4HU+PsOB+f58vQ9OrX1zVu/Poks6aN1AytMTN4ox4LcHVik8eOqXWjizKqH+fPnWOfLv+IRzKGdwRDk7qP8JbsTQx3x4aH5n44c+bzZWhOFhZ6DhYmU2xNDM9bSlxHCAgh1LCLemCvHmzDH7+z27flFk2GZiBC9ccfLGUZSfFYxc9HqEsYGZG1oS6OxtrWPisriR55vob406KjdaOD/CZ5OdqexdFC/65pVPXRQF4OdmxYv75s66aNZGzaPWxcRu1HYeEF9uGSRaxFs0SNRsZHHakSx/ysp63NN+kxMXb02PO1QXTSkCEN2rVu2TXEx2MbjuCVLh6GcDDiiFggOIZoaN8+bMuGDeyObGwyBGB9K1oyGBn0BYcpYqSaD6wJesT7aWRsXvY2p6MC/CfgPDRB/Z4fsO3bX1IOGuQR7uf9ro2R/k2xjyYlCEr/tVd5aGsY2+b16+WW7bnHQ1Z0+TJb/sESlp4Qx8+dhpGpu4v4DU/J2cL0TlSg32ed22THTJs27VVB/Z4vzJ8/v16Qu3uOi6XFPjT9Yj9NSmjZsOfM3daSDe7Ti23ZuFFu2Z5jXLpYyL74dAXLbp7GQwyKLZlUZ/gUEVXSCJMeExxwoEvbrB5KpbLhcx1XJDIoyCYmJHCys6XFMXHuQ9q6wRWA742462jZhvTtzY8cul3FQ/7YdoMoTLt27OBRgX/54QdOOKz8j3W/sb35+Txk9fOGSxcv8p3s639fx3776Scuk19//JFHTf571052vgoXeqPM1/78E2uX2bKEkZVyF+nTjYwsOihgX6c2OSNxJrWgbs8v8vPzX54w4S1vbwe7yea6jQ+QsZWKcgUDhACxns3NxpIN7deXh8KuCjcSBysg+tKGP/9gi+a9x4YN6MeX+LRMTmKtiNAnaJ/Vip80uvqLz9j+f/7hQWRu3LhRZWHuniVQ4SBvyOOe3bvYpx99yEYPGcw652ax1mkpXC6Zqcn83LWRgwawZYvfZzv/2sZP9rmvxUBJKGuUOboQaKnQpVAf+FBV1DpYF/sgJijgIPGkXLVihQk9/vyu2peCFPSVIBcXGwvdxsMVek0OWen/W0NJCTUYlti421pTy9aHj0beuaNdY/tr61Y2QTmalCiVRfr7MG8ne+ZoYcpPM4F7i7B2TgpT5u/mzBLCQ/mk+njlKPbVF5/zY5H+S0BEsQP79/G8oWLJbZHOYoMDmJ+LEz+aF1uaRLk4Kcz4ofPYK5aTkcamTZzADVMbQBmjrFHmOL4JHo70wAsQjA7uoqol8z9E5TJCOXSovA9NE6xMmloqdHVGKfSa7oXw4BKou5HY9IlzshBebii5kZvW/8lu3bopFMnT42pRET/1v19ed+Zlb8tD2OHwDBg33gkXRST8Rr9Rp+5L/KhXHBuVlZ7KJo55k63+bCWveU+eKBBSrl2AcZ04fpzkup59/MEH7M3hQ3neoMBNX32ZNaU8G5cjEz1qaSA3XycHavkGsb+2bWX37z99ywZ3EWWMskaZo+zxrtLuog42esLI9nbOzR41b+ZMS0GtZGhAHUvDRiYKfRibziES4sOy3EicaOlObiT6bNyNrESfDaev/LhmDT+0z5JaU6Rf4jBAqi1F1wSE3/weKnCQOMKFZWNhPp7UymWy92bNYDvIhcJC6Jo+Ugr3EOsFz545zTZtWM/PVUM/KNDNhUefQt6QRy4Tyu8jmYhyoU9RJpAZWhzcCxdvWP++bPfOHU/lRqJMVS0ZGRmVNcoc78A7pfoAInfxIbW2h9pntx4lu4sVhKVxUytLA53hlnpND2ga9kdthpYGrQlGI4f06cW2btz41McVoWPfrV1b3sHGec8wHmlhlke4D4Wvqs3r8k9HCxO+QbVtywzeIuAw+5occgHxOD54fyEbPqA/y23ZnEUF+HG3EPLFIBTyhDxqyr8mgkzQ6qFP7UmuHowNBwo+Cbi7KPTJUMbgBWUubclg3CDuLgb6H+yU3Xq4Uqm0EtRIRkVgqqdnQS3baCq0fY8KUU35UXsiHLgH9dlQIBgdfJKtNFisvHXzJr4YFa0Ramv4+VIjw/cStbeEpLxI7wVfiDcJVwvG2yIpgU0dP5bzhz1UNQFw504UFPAwfcphQ1hcSBBvuWAcMBLkoaw8qkiUh0rZRflI78N1DFrgpNaRgwayndu3U2X4+BB26ApsppZ1aD/qk1HZoozBjzofkC1azeggv32dcrKUCxYssBDUR8YToI4h3EjeZ9M5DOHy1k2tMNH6QDFQq2FLzXfffMWuXi0SiqxsYIRwy6YNrE+3LnzaALu71QtTJN5XNNB9SPRA+CzRd5SSqGDgS+zfWZNCYF8dRi2XL13Czp4+LXDxbICTQPf9k8+mT57EEsND+UAG8sRl2UgV5x55KJm3f+XO8y+VCRko/13i/n/LB26kOxnbsP79+BQANm2WBbjZvCUjI0OfDK0p0kBa0nTBH5ZWUZ/scEdyF1csXiy7i5WBQkfH2tpEf4SDmcl+jPiJtacodBQwRqCwXAv9iXatW7IVHy7jc2DlYdOGDbwlw3QB9/3VanB8tzbQ44UZ4OZ8PjLAd12Yt8eqAHfntZ72NucRegE1Ku+fqLWCUgK/UBacO42+C47CXbbofXbm1KlnsusZMxA4Q27iW29Svlx43tHygje0TprygLzxvpGuDt+Ggv6Sj5P92UA3519JLl9G+vts9na0K3IwNebloS4LGBpaNkSURiz9I4cPCtyUxJ3bd3hLhq6ABxkZBqTU3UWR8A5yb/fHhQWNeHvMGGtBXWRUBu7u9mY+Lk6jvR3t96HTa02CV69xoexQaLQezRNiqeVYzFd2qwMdf+xdwllqGLaHEpg3Le2WwICczE3vhHh6HMhMTZ43pE+fNsP79Ilvn9kiJzrYf1agh+tGqnGPOJobF1ElwOMJorWVupjqaaKfgdo5JSaKrVi2lF2u4pNvNAEV0LxZM1mwpzs3MPXWQsqvWKGhQkGL7GaluEKVzP5AN9dfEiNC3umY1Spr3FujYvvlde2aGBG22M3K8gDd/4BXhpI08R2GCs8j0MOFzZk+jQ+8SIGBD6xn5aOLZMjoG2rqF1oZ8M+HCr2m+8jwR+s3bGgmqIkMbQARjLPTU0dgZMnFykJVw6opCFw/1IBo+VokxbMPF5c2tqOHD7EZk9/mB63jXlVNXtooYDT+rs67e3RoN+TdGTNcVq1a0nD79u31sJQnJyPDQjlkSETblhl940IDVoZ4uh8hnu6pntXcKmArkMgfFA5zUls3bRK4qj788O03LJUMHfLDnKQmZRYJckBrQhXSvRBvj2MZifEfZ6WndGyZlOTRIinJdNKkSQ1Onz5db/bs2U0G9O7tFODmNtzGUP+wpZ7m9OCWQq5RQf48uvT58+c4TwiQuo1kwQc+yI3HNilN5SK6pnSduhI6IxQGdU0F9ZChTSx+b4Z157atR1Dndz/6ZCgIqaJAKaDMUGTUfBiE+Ji3HJd4gaLzP/udqVj/xp9Fba7eMqJ1w3+uVoojKdGR47777rsy52P++mu9YefcrKikiNBuId5e7/i5Ov3g42hbgBrZiVoA8CNNX/zd8MU6PEzDrKlT+JxVdQD9MrirE99U8glmuGXSfIO4G6zbmIdpI5f6ga+zwwF/V6fVoT5e05Jjo3sM69cvvKCo7EP/urRubRfq4THN3UpxCu+AYUiNxYK+o/8HuVMLyKNMr1+3jv303Ro+hO9FMoGLCYMs4S7Sc2I61JLtV+jrjESXQnitjKrAqlUrTDpktVRGBwYcdFaYP+AFqGYs+I2WA4WNlg3LhjC8jMjGCLyJe9RXFqAgQXYmBhjpOhMfHjK9d+fO3sJrH4s5c+bo9+3aNSU9PnpKkIfbb562Nsepz3gdI3nq74EiOZgZ81YNoRqqA9evXePvateqBecBrZmULyg2Tk0l17vYxdriUKi3x5pWKYlvDurdO3LTpk16lMRjBxronpfeGjDAt1l42EIfR/srjpRHTQMkqAztqK+HKZDuHdrx1TWY9Ifrr16WuB9pgD8rfb1DZGRKhUEjuSWrDpDbZoo5k5jgwIM4pK4sNxJkT4WNwxHSqd8W6u3J+xvipKv0fvTxMLIW7OFWSMr40bC+fQOpNXtFeGWFsH79+te7t89SRAV4eyVHhncI9/P6ljr13NikCoR3431Bnm7sg/cXVMsaSWz3n/3ONL6sDK0W+qYiP5AdjxSlML8R6uP5eWZqak5SRIRH7y5dTIm3J9paguV0U5TKiNZpKUt9nRyuoLIT3yG+D7KADGA8KD8s54InAXdRvEcktLJIg/rmpxwtzN6UjayasXDaNCuszI4JDNgLNxKFou5GonDhpmAeBhPRcEtgfPweiWuCgketSf2swtSY6GWzp06NJt2sVFiyhw/P1h/ct0fbuNCgP3AqjtTQwBdqb0wKz5o2pVoM7SS5zZg8x9FGXNFFOYCIH1Lmy34ujt/lZrVqAWMRsvFUoNfVG//WqMhIf78PHc1NzuB94sCKVAYoL7TuMDBeBmplgk+44OTCno8NDXw3LsjHQXiFjOoEltpgDgUrtTEaiU44ClBae4oFCgPDp/p/IBgZPX8pws/345yMNBiZVvYtXb582axlctIYGyODYnVFw5pA8DRl/LhqMTT0T0cNGcQX5aobGvJvZ2qYH+Tp3qtNmzZGAvuVAjZZNosOj/Cyt1tuZ2x4CyPF4iS3+F5812SEIsG99nN1vpaWELt02rRJfpQN+ejcZwWs0O6ckzUMK7axSgAumVgbPo54IVNhu1qa3wnx8vg+NTo6Pi8v7zUh6UqDFOP/gj1cs630dS9C0aTv1iVDQ00+edzYZ2poGDQCb1aGultcbcxSQ0NDtRZgFLHus9JTWpGLv87JwuwO3MPHlY1Y+aEl83d1uto8KX7J2BEjgirbysrQAhbNnavAEhzqXO+DscEFQeslGpJ6QXJFo/8x90Wd8IfRgf7rWiQk5FTFIQhk+M3pnRcw0CDl41m0aKOHDmae9rYaDc1Cr8lGw4avNiOWtbrd/6fVqw3zOnfuEOHv+7O7jeI6JrX5+0j+4OGRp0E8qcqrCfWjDRi5sQXUr/5AOWJIiJCUjGcN0qM6K0Q3MjjggJOF6R0oEQYh+KiXaGz0CSMURwLdbCxvJoSHbunRsV2nmVUQ7w98BXm5t6d3XhQmWh9RTTM0hb7OZmtj3TQXPb36AvtaAb26zvLlyxsN7N0jKzk64htqUS9Tf/AWlcF9jPBioAPznjZG+g/p2j1bE8MbLpYWe+MjQqbMmTLBV27JaiAmKIdaUcvWA8FY/F2dTyM2JFotjLLxuRiqOeH3Y0Ag0MPlUGSg34Kc9PTmH86bZyAkoVWQkum0z249lBSpqCb00TQZGjc2Intz452xwb7tlMr+OgL7WsX27Wt1enZqFxEdGjAoxMt9aUSAz9akyPCTKbFRhfFhQSdDvD32UHn8QsY4NzLQp01m8+aOxPaLwuMyahqOHTvWsFfnDjFpsdETQ308v/Z1dtjgYmXxl4O58Q43a8vtfq5Of4YHeH/WMjlhZI8uHbyEx6oEpCiKQb17TrA3NSpWTR/UTENDJYClVd3a5g5atWqFucB+lWDzwc1vdO/cOaBLh7bd+uXljRvUt+c0MsBxWRkpA/r16Ja1atVKN2L3+Q2iU5uwZMmSujk5abrtWre2nj19SljfvLyMjMS4zJGDB6RPnTQ2oFVKinmXLq111q5dW6U1JhmQxYAe3ceXZWiYeqjOwRBNhsb7rMRbgJvzseEDB4zftG5dlQeyWbly5ctYyjZFqdSdMWO8nnLAAN1+HTs2XjlnzmvEqjyyWFtBilz/YWHh6/RZrXH9rly5Yt6mZcY46oeUGt7HlnysXpk05q1qMzRNo46ioQV7uBW8NWLY5J1btjgK7MuQUTtALat5qJ/POCtDveJHAzKCcmMJlGrCemq1GZpy6BAeD0WTofm5OB0f2LvnpF+++06eFJZRuxDq62puZ2w0TqHftFicR4Nio2+G71jrt2LZB4IpVC1Onzwp7EFzJh6a8GVoKsNXzVu52Vgdz0xNnjReqZQNTUbtgt4rL5ibNmlUytAwUY1h7bT4GB7KrTpw8cIFHqcyMTKUG9e/6wpVLa2tidFxH2fHSXFBQbKhyahdMGvwirl50yalDA2DIFjcnBQVXm2GhiCoKz9ezponxnE++N4wbmiYS9NlCl2d4xa6Om+bNm4sG5qM2gVbvQYaDU10HbGr4LMVHwumULUounKFzZs9i7+TG7tkpbxoaGY6jWVDk1H7EBceYGlvajzRQrdxsRUpt2hoGIwAYfMnou9i4+PaX35m6379pUrot59/4qevIFYjon2hj/bvdAPxRTzZGhse94PrGBEhG5qM2oX+3bubBLg6j7E11r+hvtYRhoZPX2dHlhobzaMB44SUqqBWKc34hldnhRk3MBj7v7yodi+4WFsczEhKGKRUDqnSCWsZMrQOpVJZLyUmqq+Po911KDkUXFRy3rKR0sPg4LphxzE2qWLIX2uE9IgQHx/vM9MpueEV1/Bu7IT2drLf2ik3K2n+1/Ofr6NnZfw30Dk7MzkywHePq7XinrhK/d/WBMrehCs/+m1VSaVbMqFVpWtUCVwNdHNZ0rlNGzlevYzaiV7t2ztQqzbNy8H2OB8QUVN2KD9v3Ujpq5LUjQx8oDWzNTa472FvvS7E061NixYttLYXT4aMasWAnJz6A/LyQppFhX/p5+L4ELsJeMumrvjVSNjNgBbO1cqChfp4nk5PjB0W4eeHndVypF8ZtRdYa9mzS8ecpMiINS6WFqexHw7BcDAIwVscUnoYH++zaSDxP7iZeAYt45MSnoNxWxvqMnvqszmYGRcFe3nszmnRfNbUiWM8BVZlyKjdmKlUvtGlbdvIAHeX6e62VgdcFOYPsNkRLQwMryIEV4/uxzMghNoTvz+WyMgQJ/+hvanRA3cbqzMR/j5ftGuZ0Wnu3Lm2OHVVYFOGjNoPxthLCaGhbnEhQV0Sw0Nnhvl4rowK9Ps1NTZqQ1pc9EZ8aqL0+Bj+X7if93fOCrOPyHAWKXSbvI/PxxHdt8i8ScNFjhami6MD/RbHBQVODnR16toqJSXyu08/bSqwJkPGfw9kcC/+888/ZsoRQ8LGjh7Reu7MdzotmDOr83uzZnTURO/PmcP/GzVkSEpcaKCftVFTVwvdhs42uroujyO6z0X3pRdckiMj3X9ctcqN3FhdgQ0ZMp4PkMHV3b59e4MTJ/IbnzhxggifpWnv3r1N8Eku3mtKpfLlFi+8gM2R2IWMzwoRvYsTfZchQ4YMGTJkyJAhQ4YMGTJkyJAhQ4YMGTJkyJAhQ4YMGTJkyJAhQ4YMGTJkyJAhQ4YMGdWLF174f28tqpKus3G5AAAAAElFTkSuQmCC;" parent="1" vertex="1">
                    <mxGeometry x="505.09000000000015" y="310" width="60" height="60" as="geometry"/>
                </mxCell>
                <mxCell id="19" value="ラウンチャー" style="text;html=1;strokeColor=none;fillColor=none;align=center;verticalAlign=middle;whiteSpace=wrap;rounded=0;fontFamily=Noto Sans JP;fontSource=https%3A%2F%2Ffonts.googleapis.com%2Fcss%3Ffamily%3DNoto%2BSans%2BJP;fontSize=14;fontColor=#FFFFFF;" parent="1" vertex="1">
                    <mxGeometry x="502.64" y="370" width="64.9" height="30" as="geometry"/>
                </mxCell>
                <mxCell id="20" value="業務ロジック" style="text;html=1;strokeColor=none;fillColor=none;align=center;verticalAlign=middle;whiteSpace=wrap;rounded=0;fontFamily=Noto Sans JP;fontSource=https%3A%2F%2Ffonts.googleapis.com%2Fcss%3Ffamily%3DNoto%2BSans%2BJP;fontSize=14;fontColor=#FFFFFF;" parent="1" vertex="1">
                    <mxGeometry x="609.95" y="370" width="89.91" height="30" as="geometry"/>
                </mxCell>
                <mxCell id="23" style="edgeStyle=none;html=1;exitX=0;exitY=0.75;exitDx=0;exitDy=0;entryX=1;entryY=0.75;entryDx=0;entryDy=0;fontFamily=Noto Sans JP;fontSource=https%3A%2F%2Ffonts.googleapis.com%2Fcss%3Ffamily%3DNoto%2BSans%2BJP;fontSize=14;fontColor=#000000;endArrow=open;endFill=0;strokeColor=#CCCCCC;" parent="1" source="21" target="13" edge="1">
                    <mxGeometry relative="1" as="geometry"/>
                </mxCell>
                <mxCell id="21" value="" style="shape=image;verticalLabelPosition=bottom;labelBackgroundColor=#ffffff;verticalAlign=top;aspect=fixed;imageAspect=0;image=data:image/png,iVBORw0KGgoAAAANSUhEUgAAANsAAADbCAYAAADkg+RAAAAAAXNSR0IArs4c6QAAAARnQU1BAACxjwv8YQUAAAAJcEhZcwAAFxEAABcRAcom8z8AAC7fSURBVHhe7Z0JeFXV1YZ/26pVUAwgYyAh8wAhJGRgHoIQCPMoowqKMqkoOFWk0lqttYIWUbBafypV+bVFi4KKoqCgMsgkolJmmWdIGMP697vvOXiJQQIkeDhd3/Os5yZ32Hut71vfOfuce+69/6NQKBQKhUKhUCgUCoVCoVAoFAqFQqFQKBQKhUKhUCgUCoVCoVAoFAqFQqFQKBTFDBH5lYkrp0yZEjJp0lOhYx4cGdu9U6eaHVu2TB0+bFCzOwcNymlRP6NNeEhIq9T4+I69OncYMOyWAYNu6tlzULusZoPSEmMGRVW6dlDYteUG1TC3RQ2ez+t4PeMwHuMyPvMwH/MyP3mQD3mRH3mSL3mTv1OKQvHzwTTiJTRjdnb25U0SEkr3yskJ6dm2bfnmzTMqNkqJq/z4I48kPTtu3HU39ujSod11zfv07Nj+jq7tWj/cNDPjTw3rJj/bvX3OtB4d2n1cL6nW7PDy5d5Lior4PCer2Y7eXTrldm7dKjerfkZuckxErjFNbo1ry+ZGVixf5OD5vI7XMw7jMS7jMw/zMS/zkwf5kBf5kSf59jV5kz91UA91UR91Ui91Uz88OJQoFMWPEydOXLFgwYLI++6+I6NeYmyr1LjoftmNG/4mp0XTJ5tmpL6QnhA3tW587Iz0xLiPa0VUn5cYXn1BcnTECtP8q83f6xPDQzenJsTuS0uMO5IYVu1wRIXyebGhVfLN86Vxah2pn1xL6sZHi3mexFSpKNGVK0h0lbMI83xex+sZh/EYl/GZh/mYl/nJg3zIi/zIk3zJm/xtHaYe6qI+6qRe6qZ+eIAPhxqF4txgmqjUU489Fnp9ly6JTdLTM7My07JbN6rfo13LrGFm6/9o0/S6kxLDQqcmhIXOyaiVsKZBnaR9NHSd6EiJC60sZi9jw+xl7G2E8z9Ro0I5MXsge19UZfO4eU64+T+sfIiEm+Bx+3xee47B6xmH8ey4ZnzuZz77mPmfx92c3PzcfAnqoB7qoj7qpF7qpn54gI/WTRv1yMrMzG6UWjs9q2FazOgRIyrBn0OlQvEDzHLoFxMnTry0a9euV4wePfqasWPHxt51221t+3TpNLxlo4bjMmsmvF4vudaX9WsnbqsVEbYzukrFvWYvctA0Zl5kpQpHY6pWMnuNyjb4O8rsXWzDBjV/8P80dkEzueYoDqO58VNj8v8p9xWc0/xPHQVro17qpn54gI/6yTW31a+TtMTsKV/NSKr5SMdWLW67e9AtOU8/8UQcfMIr/MKzQ7nivxHTp88NGXnnkLr9unXp2bp54wcapdSZYIz1Wt3EuA9S4qOX1Y6O2JgYXm1/UmQNs5WPMFv7ShLhNC97ASKiYqChi9MoXgnq+aG2ckE1G7Oa++ADXmpH1ZD46lX3xoeF/sf8vcgsQT+on5w0FT7hFX7heeZrM8s61Cv8jtmzZ5fu16NHZJO0OnUzkmu2aZSeOjSrfub45vXSPzJb582pcTFijmlOmsjd4tvmOksjuY3KEo7lXPVy10i1kKsl1Imq11wlVcqUkspXXRmIqwO3lUxULPVrqXDl5eccvJ5xgsclmI953RzIh7zIjzzPZYNRkBv+hj94hE94hV94bpKWOgze4R8d0MORRuEXsIQZP/7xSrfc0DunbVazP2YmJb6dEF5teUyVSptiqlbeFV+tyuG46lXtcYpZHp1smoDZAs0U3FDu44S75beBsYLCPTZyw32NG8HjBQdLuPONwsYlCuYQnF9R8y9svJP3OX/DI3zCK/zCM3zDO/yjA3qgiy4xfYAJE56MuK1fv9bNMtOGpSTEPFU3Ifbt1PiYteZY43hctSqBPRhNVKChTjZOIcHjNCF7BPYOVa4uJZVKX2H3KOWvuFTKXvZLCbn0F1Lxyl9LdOWKkhwTKSlx0dK4bop0ym4p3dq2ka45raV3l44yuP+NMvL2oSaGyYihQ2TEsKFy/113yqMPj5bxY/8sz4wbe9bB63g94zAe4zI+8zAf8zI/eZAPeZEfeZIve0Xypw7qoS7qo07qpW7qLxJPLqdOwDe8wz86oAe6NM9MH4pO6OVIp7gYMHXq1NL9e3UO69T6uuYds1v8pnWTRm+m14xbH2O2snZpWKApThc0C1v3k6YqU9osyUrZW87wseVOrFFdUmKjxGyppVFqHTGmlpaNGkjb5s2ka5tsufWGvnLvnbfL/XcPl8d/P0ZefulFeW3Ky/Lqy3+Xt/75hsybO1e+Wr5cVq5YISuWLpOvli2T7779Rnbv3mU29ucOXs84jMe4jM88zMe8zE8e5ENe5Eee5Ns1J9vmTx3UQ13UR53US93UH8yHa0L4OpMJgwM90MXosw6d0Avd0A8dHUkVXsT0KVNChtzSv337Vi2ezqxd89NaNcLWJ4RV228O3u37UDSCGz8W/ofH3C0yzUNjuYYLDbnKLpPMFllMc8gNPbrJyDuGyp8e+Z288Nyz8sarr8jHH34gSxYtkmVLvpRvVq6UNatXy5r/rJZNGzfIzh07ZPeuXTb27d0rhw4dkuPHj0v+8Xx7S5w4ccKxzPmBcdwx3fGZj3ndHMiHvMiPPMmXvMmfOqiHuqiPOqmXuqkfHuDDNZr7FsPJvVkQnz/FNbqgDzqhF7qhHzqipyOtwisYPXJkFSNQ+6x6GQ83TEmenlErYTtnyFi2nGlry2M0CicOKl11hZS7/FcSctkv7H00VctG9aVnpw4yeMBNch9LvN8+JM8+PU5emfy/8u7b0+WLz+bLd9+skm1bt0ruwVyn1f0B6qEu6qNO6qVu6ocH+IAX+IEn+II3+INH+IRX7juTBuiEXuiGfuiInuiKvo7Uip8LA9u2vbJtkyZxZskztGlG6sfm2CPPLHNOIOAPJwlOFdkVtnrZMoGtsrnl/oSwUHvckhofa5dO3drmmKXVHeY46EmZ/uY0WfrlYtm6ZbPk5eXK8WPHAnuh/HzTksWzJ/I+Tth67d7S1A8P8AEv8ANP8AVv8AeP8Amv8BvMd+EbwMD/rm7oiJ7oir7ojN6O9IoLiXnzZpZt2bBex6SoGpMSwkNX1qxR/UhCWFW7vHGXMaeKGTAaj7Hs4YCfY47IytdK47QUufH67jLqnpHy1+cmyKx3Z8oX8+fLqpVf2WUWS69802SKHwNe4Aee4Ave4A8e4RNe4Ree7TGeCfg/k0boiJ5WV6MvOqM3ujstoLgQaJJZJ6p10wZDUuNj3jIH2HutSD8hXpgRF6GvveIys2W9xi532rZoJgN695QHRtwlE54aK2+/9aYsWbxI9uze7bSR4nwAj/AJr/ALz/AN7/CPDuiBLuhzOu3Qlb/RGb3RHf2dVlCUIC6JjKxSLSUhZlRydOQqI8CRk+IUEAuR7LWBzlaUU87JURGS3bihPQ3+6t8ny9LFi2Xnju1y8OBBOXL4sF0iKYoP8Amv8AvPLDnhHf7RAT3QBX3QCb1cc52MIF3RG93Rnz6gHwJtoSh2VChzeUREpfKjYkOrfG3CXuVe0GRuVC9Xxl5FUbVMaamXVNMeyD//zHh5b8Y7VvQd27c7LaG4kIB3+EcH9EAX9EEn9EK3wvREZ/RGd/SnD+gHpzUUxYkerVqFp8RGPxBVueK3gSXHj03GFpJLkLg0ifeDmtdLl5t6drenrjmVnWu2sArvAD3QBX3QCb3QDf3Q0R67FdDYvaKHPqAf6AunRRTFgW7dupXJbtrg3sxaCd/GVK2UX5gI3MdZLoKr1Lu0yZaJ45+W5UuWyK6dO+TwoUOOxAovAV3QB53QC93Qz9XydFrTB/QDfTFw4MAyTqsozgdz584NGT741jaN0+rMTooMt1u+4INpThXzPg5bQ26z6mfIQ/eOtO8JbdqwwZFUcTEAvdAN/dAxWNfg6z3Rnz5IigzjTOfskbcPbqNnKYsBTzw6JrVvty7P102I3VrYGcdqZcvYU8l1YiKle/sc+cuTT9g3YRUXL9APHdETXdEXnYN1pw/oh9T4mK3Xd2z3/KhR96U5LaM4V/Tv07N3i4aZq5KjI/ILXgDLcoKLZGtHR8iIoYNl1swZsm3rFsm3bzYrLlagHzqiJ7qib0Wjc8ElJf8nhlfLr1e75qrObdv0dVpGcbYwnF/yxuTJFdpdl/VwckxkHtfPBRstrHxga5cUVUOG3jxA5sz+UI4eORJQS+ELoCe6oi86oze6uz0QYYLvXDG9kdeiYf3f0S/mZfp2wNli4cKFl/7+nnsym6an/i2qcsWjp5ziN39XK3u1/aj+zX17my3gTDmwf39AIYWvgK7oi87oje4Fe4H+aJKe+hL9Qt84LaQoKu7u06dUlzatOqclxL5jSD3m7tW4tW9+mr+bZ6bLixOfk/371Gh+BvqiM3qju9XfNZy9rXCMbwOjX+gbp4UURUV2evrVdeNj+iSEh34YVbnCMXdLxjqdC1pZxw/qf6N89uknjiQKPwOd0Rvd0T/4+I3+MH0ym36hb5wWUhQVseXKXRVVoUIvQ+YsE8fcU7+QzAcW0xLj7PV2fP5K4X+gM3qjO/q7ZnP6go3xB/QLfeO0kKKogLSI8uV7muXC+8FmY/nA1QUcMA/s10c+nfOxI4fCz0Bn9LYnSoz+7jLSNVuNiuVn0S9qtnMApEVXqNDTEPkjs9kvojG3fHSDqw70Sn1/A33RGb3RPfgtoKA92yz6Rc12Djid2dzgrBT39eveVd6eNk327tnjSKPwE9AVfdEZve3ZyKA+ULMVA85kNi7h4X2XxPBqckuf3vL+jHfkUF6eI5HCD0BPdEXfBKNz4H22kFP6QM1WDDiT2QgOkrmCpGZEmAy7ZYBMn/ZP2bhhvX4u7SIH+qEjeqIr+hZ2BQmhZisGFMVsBNfNEbWMIB1aZsmfHvm9rFi+1JFNcTEC/dARPdHV1bgw/dVsxYCimo37+SiG/QyUWWbwpaN3Dx0s/5z6mv16NsXFA/RCN/RDR/REV/T9Kf3NrZrtfFBUs7nB2SlEsVtA83dO86Yy7vE/yufz5sn3mzbaj+YrvAd0QR90Qi90Qz90RE/3rOPpQs1WDDhbsxEIw1el8aZnZKUK0jCltv2YxsMP3C/vvvO27NW3CDwF9EAX9EEn9EI39EPHMxmNULMVA85kNndPVthBM4FYnDxhGcK3OfXvdb2Mfewxu0z5fN6nsmXz91JMXz6sOAvAO/yjA3qgC/qgE3qhW2F6onNhezo1WzHgTGbjfz6tiwiFffGna0YuWuU5Uea5CdVDpVlGmgwbeLO89PwkZ4m5wb5pyvdhHD161GkJRXEAPuEVfuH5i/nzLO/wjw7ogS7WSEan02mIvjwHvQvrA3OrZjsfnM5sCADxvL+WUSvR3rJVDL3mKns/zwkOns97MyxN+EUWhKsTG2W/LrtXpw5y56Bb5c+PPmK3tHzF9o7t25xWUZwP4BE+4RV+4blX5w6Wd/hHB/RAF/QJNpkb6Imu6BusN/e7z1ezFQN+ymwcPKfGx0ifrp1l6C397Xo/vVaCPXtVsfSvpeo1P1yoWjC4n+exZOHnkdhy1qtdU3p2ai8jhg2Rp554XP71+lSZPet9+XLRQnuGbNfOnXLs2DGnjRTBgBf4gSf4gjf4g0f4hFf4hWf7I42Gd/j/KX3QDx15HrqiLzqjN7qjv5qtGHE6syEGW0N+xujBe0bIB+/NlPdnzrB/8xNH8WGh9jmIyxazsKUJj/MYornfxss3OiWGV7dvoNpvTM5qJrffeovdKr/+6it2yblu7RqzJNolubkH7S/CHDlyxDab37+Ggfqok3qpm/rhAT7gBX7gCb7gDf7gET7hFX7h2fJteIf/gpoE68Xj6Iie6Iq+6Mzf6I7+PIfXqtmKAWcyG1vL3z30oHzz9Uojfq6sWLZM/u+Vf8jo+++V9tdl8UWedkvKFvJ0X29N2EYwIrvLlfK/vlTKXv5L2xj8MESzjLr2RwP5zvqhtwyQB+4ebr/n8IVnJ8g0swWf89Fs+Wr5Mtm0caPs37vPaU9/gHqoi/qok3qpm/rhAT7gBX7gCb7gDf7g0V3ew+9P8m9eg07ohW7oh47oia7oi87oje5qtmLGmcyWYZYXD913jyxfusRpDbMFPnHCiPK1/P1vL5pjhNukfYvmVhy+4hrhK5S6XPhNsVM+6Rsc9r7Al4AyD03CUsYa8erAL4zSTHzMI6teulzfoZ092B/z4AP226Amv/BXeeetN+WTjz+S+Z/MlcULF8jKFcttTuvWrJEtmzfbL7LZvm2b7Nu7x+4l2GMQnEw4ZqK49pJ2b2TGs+M6cwR+n22PnZ88yIe8yI88yZe8yZ86qIe6qI86qZe6qR8e7Nlewwv8wNOpey0ThXDMY/CPDuiBLuiDTuiFbuhHTujpAp3RG93VbMWMopqt4IdH+VWVvaahvl31jfz7X/+SRx/+rf1JW341kwbh9QTLFXfJUthX5NmmcJY21nCmOfiKbHdLTT58CVFSZA17HEE+9ZOT7JUPWZkZ0qZpY+nbtYs9MXD/XYFfHn1h4rPy0l8nyZSXXpS3p/1L5s2ZI18uXGhj0YIFptkX2r0IRsAcGOZsg9fxesZhPMZ152A+5mV+8iAf+8ujJj/yJN82zRrb/KmDeqiL+qiTeqmb+uHB8mF4cY0GX4XxCL8FOSfQA13QB53QC93Qr+CvBqGzmq2EcK5mC8bBAwftFnLG9H/LhKfG2R904Bt3U+OiTaNcZX+w79orL7Pj0TBF/q1o8zwahY/nn+43tfmf57IX4BimSXqq5GQ1NUuk5tIx+zrp3bmj/TAk3xxFDBlwkwy5ub9p+oH22OSxMQ/LH3835qyD1/F6xmE8xnXnYD7mZX7yIB/yIj/yJF/yLrbf1DbPg1f4hWf4hnf4Rwf0QBf0QSf0Oh3UbCWI4jBbMFhOse5/5e+T5Tcj7ra/lnldg3pm+VLLnoqOM1ttts40FcEvZv54aRTcUIHlZnDwvILhbs1tsPV3gnELj8CJhPMNxil8/B9ysBGUX2H5F6zRLg+DeHDrZlz4gjeXQ+6DV/iFZ/iGd/hHB/Qo6nubarYSRHGbDfDLmfyWNGfR+CWVGW+9ZY5J/ix3DR5klzLpNePNccYPnySwjVlIIxZsQILcTo1AE9rXm3E4CUAzusFeglPc1HJqlLLHMexNzjV4PeMUHJv5mDc4D/JyTefWVrCWgrUSwXy4HMGXyx08wie8wu94w/M7hm94h390CPxya9GgZitBlITZCoLjgg3r1slnn3wib77xukx6Zrz84bej7ftDN13fXdqZA3aOW/ipWhrTnqk0yyv7I36moQPHLIHmpdHcBvBLUI+7x7IbB1MvdVO/XWYaPngMfuAJvuAN/uARPuEVfuH5fD5nqGYrQVwIswWDkws0A1ehr/7uW5n9/nvyt0kT7UWyt97Y1x5j8JNGLIf4hqfk6Eh7cM8yiS8PZWvPVREso9wTKQEjBsxo95SEs7wruLd0g3Go83yj4N7HDXcPZPNw9kLkR57k6574oA7qYRzqo07qpW7qhwf4gBf4gSf4gjf4g0f4hNfigJqtBHGhzVYQXNO3dcsWWf3tt3YOruv78L135fXXXpFnxj5p32fiW3o5Hc6Jhnq1kySmSiVzrFI6cKXEVYGTCuR6cvnmhmnigPECx02B5j91KXe+caqxguZxzeXkYvdY7nLW5Eve5E8d1ENd1Eed1Evd1A8P8AEv8ANP8FVSv4GnZitB/NxmOx3y84/Llu83y+IFC+S9mTPkX/83VV5+6W/mmORJGfObB+TeO++Q4YNvk4E39JEbenST3l06Sdec1pLTvIm0aFDPRKY0SUu1p9O5yoLv1nCvXOHUOkYo7yzTzjV4PeMwnnslB/PwN/MyP3mQD3mRH3mSL3mTP3VQD3VRH3VSL3VTPzxcSKjZShBeNZsLlkicSeM3owOXMOXKgQMHZP++fbJzxw75esVy+ezTT+WjWbPk3/98w17tPn7sn+0JmT/+foz9NDKn4vv37ikDevcyTd5XbujeVVo3bSyZSTWlbnyspMbF2Nuihvt8Xs84jMe4jM88zMe8zE8e5ENe5Eee5Mub2+RPHdRDXfbSNFMn9Z7Pcdf5QM1WgvC62YqCY0eP2W+I4uvY+BzX+nXrTKy1xzSclVvw2Xx7beHnZim24LPPZP4nn8gH774r06dNk7eMAc41eD3jMB7jMj7zMB/zMj95kA95kR95kq9XoWYrQfjBbIrig5qtBKFmUwRDzVaCULMpgqFmK0GUlNm4kPx40NXkigsP+D9bCdRsJYiSMtuR/BOy4/Ax2WniyHE13YXEUcM3vMM/OpwN1GwliJIyW+6xfFm6O0+mbdwrr63bI+9s2i+f7ciVr/cdlo25R2XvUf3q8uIAPMInvMIvPMM3vMM/OpwN1GwliJIy2wEj8uytB+TBJVuk5yfrZMD8DTLa/D3+m53yj3W75b0t+2XJnjxZd/CIbD0U2APuM42Tdzxfjpmt8VlukH0LloLsneAFfuAJvuAN/uARPuEVfuEZvuEd/tHhbKBmK0GUpNk+2HJA7lu8WTp8tEY6zF4jfT9ZLzebZhjyxUYZvuh7eeDLzTJm2VZ58uvt8uLqXTJ94z67dV6lez+LPab+NQcOy1Jjqnk7Dsr0TfssT/AFb/AHj/AJr/ALz/AN7/CvZvMQSnrPNnrpFrl+7jrp9NFa6TpnrXT+eK39u71piHamMYhucwJ7vpGLNssfVmyTZ77ZYZvqVbv83CcfmnE+3X5QFuzKla/2HpL1B4/KJmNGtvAHzTyHzTHK0YtkV0ie5Eve5E8d1ENd1Eed1Mty8FWzx5r43U5rrkeWb5V7jIHgCb5c7uARPuEVfvkbvuFd92wew4UyWxfTDD3MbXfTKAQN0800RyDW2cd4Xi+zBOptttB9iE/XSz9zS4PdsfB7+c2SzfLnldtl8prd8sraPfLPDXtl7vYDsnBnrizelWf2AkfsSYE9R47LXhP7jubbpua4hVv7t1mOHTLNztKMxi+OOGyCZd7JOZxb5icP8iEv8iNP8iVv8qcO6qEu6qNO6qVu6oeH3oYTeOlp+IGngty5nPIYPKvZPIoLaTZuC4tAA5kts3kOW+iOZuvMUqi92XK3dbbePEaz3TSPZegmGWbizoWb7FJqlDk+YZ4/mK3/n77abht33Kod8tfvdsnU9XvkX6apX18fiH+bPeXsrQflc9Pwi2j88whev8AEe6N3vt9/cg7mY17mJw/yIS/yI0/yJW/ypw7qoS7qo07qtXWb6Bi054JDeHI3TIWFms3D8ILZzhQ0l7v1ZqnEWDSfa0waMticLK+4nz3koM83yu0LAg1N3GX2HA8t3SqPmeXqE44JzjWeMPG4id+b4yeWeHaOzzfZ+ZiX+cmDfFzzkCf5cr9bA/VQV/AeqjAeihJqNg/jYjAbQQMGm85dRtGkbjBHcAQvT91g74EJ+polWnEFSz2WecHzMC/zF8wpOF+3hmCTFcz3bIM5uFWzeRAXi9nOJVxTBje2a0r2KJ2KKRiL5V/wHNwyf2F5lWSo2TwMP5vtvzHUbB6Gms1foWbzMNRs/go1m4ehZvNXqNk8DDWbv0LN5mGo2fwVajYPQ83mr1CzeRhqNn+Fms3DULP5K9RsHoaazV+hZvMw1Gz+CjWbh6Fm81eo2TwMNZu/Qs3mYajZ/BVqNg9DzeavULN5GGo2f4WazcNQs/kr1GwehprNX6Fm8zDUbP4KNZuHoWbzV6jZPAw1m79CzeZhqNn8FWo2D0PN5q9Qs3kYajZ/hZrNw1Cz+SvUbB6Gms1foWbzMNRs/go1m4ehZvNXqNk8DDWbv0LN5mGo2fwVajYPQ83mr1CzeRhqNn+Fms3DULP5K9RsHoaazV+hZvMw1Gz+CjWbh6Fm81eo2TwMNZu/Qs3mYajZ/BVqNg9DzeavULN5GGo2f4WazcNQs/kr1GwehprNX6Fm8zDUbP4KNZuHoWbzV6jZPAw1m79CzeZhqNn8FWo2D0PN5q9Qs3kYajZ/hZrNw1Cz+SvUbB6Gms1foWbzMNRs/go1m4ehZvNXqNk8DDWbv0LN5mGo2fwVajYPQ83mr1CzeRhqNn+Fms3DULP5K9RsHoaazV+hZvMw1Gz+CjWbh6Fm81eo2TwMNZu/Qs3mYajZ/BVqNg9DzeavULN5GGo2f4WazcNQs/kr1GwehprNX6Fm8zDUbP4KNZuHoWbzV6jZPAw1m79CzeZhqNn8FWo2D0PN5q9Qs3kYajZ/hZrNw1Cz+SvUbB6Gms1foWbzMNRs/go1m4ehZvNXqNk8DDWbv0LN5mGo2fwVajYPQ83mr1CzeRhqNn+Fms3DULP5K9RsHoaazV+hZvMw1Gz+CjWbh6Fm81eo2TwMNZu/Qs3mYajZ/BVqNg9DzeavULN5GGo2f4WazcNQs/kr1GweRkmZbb8R+YMtB2TUEjXbhQyXZ3iHf3Q4G6jZShAXwmw9jPid1WwXJOAZvtVsHkRJme1w/gn5cleePLpiq3QyDdDmw//YrS6NUFiTaJxfwCv8wjN8wzv8o8PZQM1Wgigps4Hth47JGxv2yB0LN0mfT9ZLz0/WSdc5a6WraYZu5laNd34Bf/AIn/AKv/AM3/AO/2cLNVsJoiTNduzECfk+76jM3XZQXvhul4xYtNk2SPvZa+1yRw137uEaDR7hk//hF57nGL7hHf7PFmq2EgSkhYWE9IyoWL5Qs2UmJcrDDz4gK5YtdeQ4e6D52gNH5J3v98v4b3bIQ0u3yNAFm6S32Qp3/GittJu9xt6yDFID/jhcY8FPMF/wB4/wCa/wC89nuXI8BeiM3uhemNlqVCw/i35Rs50DIC22cuVeUZUrzirMbOk142XUvSPPac8WDBrg0PF82WaWNot358o/1u2R3y7dKrd+tlH6mqbpPdcsM2msOYHGcqO7+Z/4bzEgdbo1B/MAL/ADT/AFb/AHj/AJr/B7PkYD6Ize6F6Y2cztB/SLmu0c0Lt376uzGzbskxIX/aEhkmWCJdfs6aRayNVSK6qGDOzXR+bNnePIcf44YjpiY+5RWWwO4N/fckBeNQ3z1Nc75P4vN8uA+Ruk48drJMcc6Lf/aI10Ctrj+dl0rsmok3qpm/rhAT7gBX7gCb7gDf7gET6LC+iM3uiO/vSB2xP0h+mT2fQLfeO0kKKomDx5cqmhAwd2bpKW+g5kRjhbMkgOLx8iEebv5pnp8uLE52T/vv2OJMWLPUePy4q9h2Tm9/vkxdW75A8rtsp9prGGL/xehn6xSW42jcaBPycBOpoG7OAEDckxC+Ea0mumDDaRayQ3Z/J3a6Eu6qNO6qVu6ocHzizCC/zAE3yVBNAXndEb3a3+jtnYw0VVqnCscWrKDPqFvnFaSFFUGI4vfWz06MyszPS/maXk0cigLRl/Vyt7tcRUrSQ39+0ts2bOlAP7S8ZwR83Wmasddh0+brfWS3fnyXub98tra/fI+FWB47zBpgH7feosNws0tBs09tlG8OuLFIWMUZQIHiM4d+qhLuqzx1+mXuqmfnjYZPiAF/iBp5IAuqIvOqM3uhfsBfqjeUb6S/SLecmlTgspigpD2iWTJ0yocF2Deg/HV6+aF1Olot2quSSHlb/GEF9GksyyYujNA2TO7A/l6JEjVqCSxt4jx22jfb3vsHy2M9cund7cuFf+sXa3vGC29H8xTclWf8yyrfLAl1tkiLMXvMkEe4nWH/zHBu89tf1wjT2x0L5AuHsV3ptiT/OTwXNM8HxeW3A8/mce5nPnJg/yIS/yI0/yJW/ypw7qoS7qo07qpW7qvxBAT3RFX3RGb3R3e4C9m+kNSY6JzMtp3vR39It52SVOCynOFl1zcnrXq11zVWJ4tXz3oNgN/q9U+gqpHR0hI4YONlvAGbJt6xbJzz+7qxOKCwfNFn7roWPy7f7DssA059ztB+Vdsxd4ec1umfTdTnn2253yyPKtcs/izTbuNTFi0fdyx4JNMszE7U7w95AvNsrAzzbaYyIMcabgeZycCB7HHYvxmYf53LnJg3zIi/zIk3zJm/ypg3p+DqAfOqInuqJvRaNzsP4Yrca1ZSU5OiK/RcPMVf379ujrtIziXDFm1KjU6zu2ez41PmYrx23BB8YEW7vq5a6ROjGR0r19jvzlySfku29WObL9POB9pLzj+bZZ95njGN7E3ZJ3TDbnHZV1B4/IatPMBE292CzHuDB3xvf77fLsfRPvmr+nbdgrL63eLRO+CZj0uZ+IZ81zeB6mmWGOn2aZPRFjEYzL+MzDfO7c5EE+5EV+5Em+5H0u74MVJ9APHdETXdEXnYN1pw/oh7oJsVv7duvy/B/+MCrNaRnFuWLZ3LkhI28f3KZxWsrspMgwiWY5GWQ4Tv2GmQPmylddaW+z6mfIQ/eOlHffni6bNmxw5PM2aPC9ptn3O+EadM2BI7Jy72G7fPvJMM/heRiIcTCNOxb/M/7FAPRCN/RDx2Bd0TnYaPRBUmS4NE6rM3v44FvbzJw5s6zTMorzwcCBA8tkN21wb2athG/NQfKPlpME94WbZQURG1pZurTJlonjn5blS5bIrp075PChQ46kCi8BXdAHndAL3dDP1fJ0WtMH9AN90a1btzJOqyiKAz1atQpPiY1+IKpyxW8De7ZTl5OuCLwHw9aQLV/zeulyU8/u8qdHficff/iB5B486Eis8ALQA13QB53QC93QDx0LMxq6oz99QD/QF06LKIoTFcpcHhFRqfyo2NAqX5uQaJYWQUvK4KheroxUMqJVLVNa6iXVlMEDbpLnnxkv7814R5Z+uVh2bN/uSK64kIB3+EcH9EAX9EEn9EK3wvREZ/RGd/SnD+gHpzUUJYBLIiOrVEtJiBmVHB25Kia08pFgMYLF4eCZNz/DzME1W8i4alUkOSpCshs3lJG3D5VX/z5Zli5eLDt3bJeDZgt75PBhOX78wpzS/m8BfMIr/MIzJoN3+EcH9EAX9EEn+2Z1wb1ZkK7oje7oTx/QD4G2UJQYmmTWiWrdtMGQ1PiYt4wAexGisDOV9n5zH0JWvrqUXHvFZVK97DWcwZK2LZrJgN495YERd8mEp8bK22+9KUsWL5I9u3c7raI4H8AjfMIr/MIzfMM7/KMDeqAL+pxOO9d86Ize6I7+TisoLgTmzZtZtmXDeh2TompMSggPXVmzRvUjCWFV7ZaQLeXpxOMxTiVXMSIjdGTla6VxWorceH13GXXPSPnrcxNk1rsz5Yv582XVyq9k08YNsm/vXsnXvV6hgBf4gSf4gjf4g0f4hFf4hWf4hnf4P5NG6IieVlejLzqjN7o7LaC4kBjYtu2VbZs0iWvZqMHQphmpH6fEReeZA+wTiPbDqeJTBUVMznJVL1tGQs1BOLfcnxAWypUIkhofK41S60i3tjly7513yDPjnpTpb06zS6CtWzZLXl6uHD92zC6RTtg3z3/e96QuHE7Yeqmb+uEBPuAFfuAJvuAN/uARPuEVfoP5hv8fGy3wv6sbOqInuqIvOqO3I73i58LokSOrtG/Von1WvYyHG6YkT8+olbC9dlQNiTKiFS7sD8FjvI9T9ZqrzAH6FVLu8l9JyGW/sPex3GnZqL707NTBHsjfd9ed8uhvH5Jnnx4nr0z+X/ue0Befzbdvwm7bulVyD+Y6jekPUA91UR91Ui91Uz88wAe8wA88wRe8wR88wie8ct+ZNEAn9EI39ENH9ERX9HWkVngF06dMCRlyS//2RqCnM2vX/LRWjbD1CWHV9nP9XHSVClZUNwoT3A2WMQQNQKOw7GGrHBpylV3e0FStmzSSG3p0k5F3DLWnrl947ll549VX7KnsJYsW2c9ffbNypaxZvVrW/Ge1XWbt3LFDdu/aZYOl16FDh+yeIv+4s8dgb1lMV28wjjumOz7zMa+bA/mQF/mRJ/mSN/lTB/VQF/VRJ/VSN/XDA3zYvZXhB57gy+UumM+f4hpd0Aed0Avd0A8d0dORVuFFTJ06tXT/Xp3DOrW+rnnH7Ba/Mc3xZnrNuPXmANuIW9j7NoUHjUDzuEbjA4v2mMPc0li8H5RYo7qkxEbZTw+zdGqWmWa28A2kbfNm0rVNttx6Q1+ztLpd7r97uDz++zHy8ksvymtTXpZXX/67vPXPN2Te3Lny1fLlsnLFClmxdJl8tWyZfPftN7J79y7HMucGXs84jMe4jM88zMe8zE8e5ENe5Eee5Ns1J9vmTx3UQ13UR53US93UH8yHa7gzrSIKBnqgi9FnHTqhF7qhHzo6kiouBkyY8GTEbf36tTZNMywlIeYps0V+OzU+Zm2tiLDjnHJm2WLPYjpbY3eLXFhjuMHjXAB70oSm4bgYusKVl0v5Ky6Vspf9UkIu/YVUvPLXEl25oj1uMcce0rhuinTKbmmOadqYhm4tvbt0lMH9b7SnwUfePkxGDB0iI4YNlftZqj48WsaP/bM5Dhp71sHreD3jMB7jMj7zMB/zMj95kA95kR95km/FUr+2+VMH9VAX9VGnayrqLxJPLqdOwDe8wz86oAe6NM9MH4pO6OVIp7hYYTb2vxg//vFKt9zQO6dtVrM/mi312wnh1ZbHVKm0KaZq5V3x1aocjjNLmTizlWXL7TZL4D2ewpdD7n1uQ9kwTcjW3Q3+D37cfY0bweMFBycJzjcKG5comENwfkXNv7Dx7AmOoMfhET7hFX7hGb7hHf7RAT3QBX0cqRR+wezZs0v369EjsklanboZyTXbNEpPHZpVP3N883rpH9Wvk7Q5NS5GEsOqBfZ4LDmdximsyc4UPJ8GtY3rHPdxCRJ7B4ITB1XKlLKXJtm4OnDLVRTsXdijnGvwesYJHpdgPuZ1cyAfu/wLOt46lzpPvsb+HdiDwSN8wiv8wnOTtNRh8A7/6IAejjQKv2P69LkhI+8cUrdfty49Wzdv/ECjlDoT6iXXeq1uYtwHKfHRy2pHR2xMDK+2PymyhtSJjjBb6kqBJZFpKhrKNWXwlr9gM17MQT0/1BYwUaBmYypzH3zAC/zAE3zBG/zBI3zCK/zC88zX9D2y/2qwhJk4ceKlXbt2vWL06NHXjB07Nvau225r26dLp+EtGzUcl1kz4XXTOF/Wr524zRxr7DTLo73RVSocNE2XF1mpwlE+qs9V6gR/2yVcQdMF/W8btcDjpzZ18Rj2p8bk/1PuKzin+Z86CtZGvdRN/fAAH/ACP/AEX/AGf/AIn/AKv7pUVBSKEydOlHrqscdCr+/SJbFJenpmVmZadutG9Xu0a5k1rN11zR9tml53UmJY6NSEsNA5GbUS1jSok7QvPTHObOUj7XGKbV4a1mlc29hOWAOYJRv3RVUONDdLOHvq3ERxGI7XM469NtRZInI/89nHnCWjm5Obn5svQR3UQ13UR53US93UDw/wAS/wA0/wBW/w51CpUJwbTBNdsWjRvKh7hg/LzEyIyU6Jjb6xVZMGD7bNajKuWXrq39Li416vGx8z0yyj5tSMqD7fLK0WmaXVV8kxEf9JCK++ITE8dEtqfMz+tMS4I+aY5khEhfJ5saFV8s3/0jg1WerXrmmOc6LNkixU+M4VrnLnfagiB3sj3pIwr2ccxmNcxmce5mNe5icP8iEv8iNP8iVv8qcO6qEu6qNO6qVu6ocH+HCoUSiKH2Y5dImJX2VnZ1/eJCGhdK+cnJCebduWb948o2KjlLjKjz/ySNKz48Zdd2OPLh3M1r9Pz47t7+jarvXDTTMz/tSwbvKz3dvnTOvRod3H9ZJqzQ4vX+69pKiIz3Oymu3o3aVTbufWrXKz6mfkmubPNXuZXLMHyjV7mSIHz+d1vJ5xGI9xGZ95mI95mZ88yIe8yI88ybevyZv8qYN6qIv6qJN6qZv64cGhRKH4+eA045VTpkwJmTTpqdAxD46M7d6pU82OLVumDh82qNmdgwbltKif0SY8JKRVanx8x16dOwwYdsuAQTf17DmoXVazQWmJMYOMaQaFXVtuUA1zW9Tg+byO1zMO4zEu4zMP8zEv85MH+ZAX+ZEn+ZI3+TulKBQKhUKhUCgUCoVCoVAoFAqFQqFQKBQKhUKhUCgUCoVCoVAoFAqFQqFQKBQKRfHgf/7n/wEN6K5ammTiGgAAAABJRU5ErkJggg==;" parent="1" vertex="1">
                    <mxGeometry x="721" y="310" width="59.5" height="59.5" as="geometry"/>
                </mxCell>
                <mxCell id="24" value="DB" style="text;html=1;strokeColor=none;fillColor=none;align=center;verticalAlign=middle;whiteSpace=wrap;rounded=0;fontFamily=Noto Sans JP;fontSource=https%3A%2F%2Ffonts.googleapis.com%2Fcss%3Ffamily%3DNoto%2BSans%2BJP;fontSize=14;fontColor=#FFFFFF;" parent="1" vertex="1">
                    <mxGeometry x="735.54" y="370" width="29.91" height="30" as="geometry"/>
                </mxCell>
                <mxCell id="qopAeDGrHVmLewOgPy6k-39" style="edgeStyle=orthogonalEdgeStyle;rounded=0;orthogonalLoop=1;jettySize=auto;html=1;exitX=1;exitY=0.5;exitDx=0;exitDy=0;strokeColor=#CCCCCC;" parent="1" source="29" target="14" edge="1">
                    <mxGeometry relative="1" as="geometry"/>
                </mxCell>
                <mxCell id="qopAeDGrHVmLewOgPy6k-37" value="スケジューラー" style="rounded=0;whiteSpace=wrap;html=1;fillColor=none;strokeColor=#FFFFFF;fontColor=#FFFFFF;fontSize=18;fontFamily=Noto Sans JP;fontSource=https%3A%2F%2Ffonts.googleapis.com%2Fcss%3Ffamily%3DNoto%2BSans%2BJP;verticalAlign=top;" parent="1" vertex="1">
                    <mxGeometry x="270.14" y="270" width="139.86" height="140" as="geometry"/>
                </mxCell>
                <mxCell id="qopAeDGrHVmLewOgPy6k-40" value="起動指示" style="text;html=1;strokeColor=none;fillColor=none;align=center;verticalAlign=middle;whiteSpace=wrap;rounded=0;fontFamily=Noto Sans JP;fontSource=https%3A%2F%2Ffonts.googleapis.com%2Fcss%3Ffamily%3DNoto%2BSans%2BJP;fontSize=14;fontColor=#FFFFFF;" parent="1" vertex="1">
                    <mxGeometry x="415.09999999999997" y="360" width="64.9" height="30" as="geometry"/>
                </mxCell>
                <mxCell id="29" value="" style="shape=image;verticalLabelPosition=bottom;labelBackgroundColor=#ffffff;verticalAlign=top;aspect=fixed;imageAspect=0;image=data:image/png,iVBORw0KGgoAAAANSUhEUgAAANsAAADaCAYAAAAv3zflAAAAAXNSR0IArs4c6QAAAARnQU1BAACxjwv8YQUAAAAJcEhZcwAAFxEAABcRAcom8z8AAER3SURBVHhe7Z0HfFVF2oe/taAgikhNCOn1pvdQQgiE0AIIJPTeQXpTdN2shV1drCtW7KCuqOuuW3VtFOkgYkFEivROKKHL+80z9xy8XENRkdx7M39/Y7jJOefOvO8zZ96ZMzPn/4yMjIyMjIyMjIyMjIyMjIyMjIyMjIyMjIyMjIyMjIyMjIyMjIyMjIyMjIyMjIyMjIyMjIwus06fPl3jpZeeDuxZWBjVt0vHrNvGjy7o271L5ybp6V3a5+UOHtirx7jeXQsnNUyMnxRYo9qk4Fo1JoXWqXXOxN85juM5j/O5Dtfjuvr66nv4Pr6X77eyYmTk/RKRq6YXF1cdOLDwppz09LqpDkdgVnJyeN+uXZsP6dWrf9f2BeNz0lPvatEoc0b3ju3fb9Os6YKMWMfS3My0zR1b5x9t16L5qTRH1KngmtVPhdSucSqsbq1zJv7OcRzPeZzPdbge1+X6fA/fx/fy/eSD/JAv8kc+yS/5topgZOT5ouV46rHHUob061HUsVWLcY1TE6elxES+khwZ9l5SZOjC+LDgz+NCg9bEBNbbEBsSuDM1JvJIYkToCfX5VEJ4iGTGxUhGbLTEhdSX8Lq1JMKvtkT4nyepv3Mcx3Me53Mdrsd1uT7fw/fxvXw/+SA/5Iv8kU/y+8Sjj6aals/II6VagmunT5sWRJjWNq9J+2YNswa1zc25M69h1tNN0pL/2yAxdlVSZNiO+NBgSQgLkugAPwmtXUMn1SpJaJ2aElzrJgmpfZP+t2qlJKhmdZ3sYy42cbx9LtdxXu8mfX3+bR9DIh/kh3yRP/JJfps3yHiG/Bfk5QzqU9ix/bC+fbOmqfJRTqvIRkaXRwq6K8aNG1c5Ly+12tC+fYNHjRjSqnenThPa5jaZ2TQjZXliZOgu1docDverfTTCv85JlU6rpFogkmqB/MqoJKoinKkM1r/1Z+t3F51cztXnq9+5/ts1kQ9ny2jnTefzpGohVb5rH85McOxql5e7vEPLvJndOnSYQDkpL+Wm/NjBMomR0aWXAqzSX15+Nq5Hp049mqSl3JMaHTErKSp8rmoZvlLh2l5CN0dgPQt6Z8vintyhL89UVv50a6p+xocGigo/JTkqfG+iKh/lpLyUm/JjB+xhmcbI6Jfriy++qDpm+PCYgrymzW9unTe4TW6Th7PTkj9MiY7Y7ggK0H0lHZq5AFsW2K6JY0JUaBdcq7oE1rhRAqrfIPWqVRX/G66TutdXkTpVK+tU+7prpVblSlLz2qsvmDiO4+1zuQ7X47oB1a+XwJuq6fDSNaQ8X9J5tEJOEuWkvJSb8mMH7IFdsA92skxmZHTxIkQqKiqqNKxXr9rDevcuKGzX+qHs9OT5caFBW1WoVRLpX+d4ZL26emBCw2lVMneI7d8BLZAH6/7Ujc4+le6nOSupCjklol4d4ZrR9f2tVI8BDnEE15fYkMALJo7jeM6zr6HzaIWJZyqQ+l5nv+5GnR9nf/GHm4V73vXvrN9TXq5J+bED9sAu2Ac7YS/sZkJMo4vS6dOnK48cOrRR84ZZ49Jiop9Kc0S9n+qI2kSIGKVAO3O3t0G04CwrcWx91aLUu/F68VMtTa0qlaT61VfoVicmULUSURHSJD1FCgtaS7/uXWRY/74yZfw4uev2KXL3HbfLtKn3yNPTH5OZLzwvr7z4wjkTf+c4juc8zuc6XK9ftyLp0r6t5Gc3lMz4WBXmBkhd1fKRD/JDvsgf+SS/ZZXDTmcqoDqOY7EHdsE+2Al7YTfshx0tkxoZna2JE0fUbdW8SXLndq365jVu+GxGnGNdnGoxuJsDl313LysBIC2EDgkVuHWvVyFglWv059jgQFEgSnZqkrRs0lg6tsrXFWvi6JFSfNtkefC+P8hfZr0s//nHO/LxBx/IF5+tknVr18qGdetk144dcvLECdVQXFgcx/Gcx/lch+v9+52/yxuvviJPPvqITC3+nUxS39uvWxedD/JDvsgf+SS/5Jv8Uw4+XzDstCofdsJe2A37YUfsiV0tExtVdClOr3rovvtii9oXjG6ckvy3pMiwdSoc2x8Z4KdDJoCy7+iukLne4e2QkOSseM6h94ZJ8dK3S6HcOm60PDLtfvnbG2/Ip8uXyYb162XL5s2yfdtW2bVzpxwoKZHDhw/L0aNH5NTJU6JaBZ1+juxzuQ7X47oHDxyQvXv2yI7t22Wr+t4N69fpfJAf8kX+yCf5Jd/kn3LYZToT8pLKsoP1Ox1iKrthP+yIPbEr9lVZMw/LK6pw/oj+/TPzsxuNbJKW+mJGXPSKhLCQ4zGqr8PdWsPlBpadgI67PiEYLQE/Y1WfqUWjLOlZ2EnGjxwuD/xhqsx68Xn54N3/yvKlS2T9t9/KoYMHdYXwFJEf8kX+yCf5ffCPU3X+KQfloVyu5aTcuqUvyy6W3bAfdsSe2BX7YucRgwdnqq81la6iaNmyZVW6dugQ3KEg/+b8Jo2fSo+NWe8Iqq8HKc5VuUhABGh2/ybCvy4Pg6VJWooOycYMGyyPPfiA/OPtt+XLz1fJsWPHnER7mY4dP6bzTzkoD+WifJST8lJuux+KPXTlKsNeJOyJXbEvds7PafIUdsf++MFyiZEvSrFU5baJY/PbNct9PD0uZqXqp+xiJkUko3UKDGdlKyNMUkDZfTKG0B2qf9MmN0cmjxklL86YIQvmzZO1a9bI9q1b5cCBEjl16pSTXC8V+acclIdyUT7KSXkpN+XHDthD9+mUfX58o7LsqRL2xc7YG7tjf/ygvspUOF+TcurVA3p3S2uVmzMqOz3lrcw4x5740CBnuHiOAQB+B0yETnWuu1YPn+c1zJIhfXvLfXffJX+ZNVOWLloke3bv1oD6uign5aXclB87YA/sgn3OhJjnsCV2xt7YHfvjB/yBX9Tlr7ZcZeStUk68ontBQc0RA/u1aZ3b5CkVBm1QYc1pACC8cYeCZLdg9avfoEOkhLBgyUlPkf7du8pjDz0gSxcvkpKS/fL9999rCCuaKDflxw7YA7tgH+yEvbCb3eKVZV/b7vgBf+AX/IOf1OXN8zlv1ZhhA6IK8prdkZORtig5MmyHHl3kLltm2PNDa6b7IypMyk5NlAkjR8jsV1+RlcuXy5ZNm+TERQ7F+7qwA/bALtgHO2Ev7Gb3587Zyin76/BS+QO/4B/8hL8s1xl5i4qLi2sXNGvWOisx9oGseMc3KVHhut9wrs48YPjdUEWHQnTm2zbLkdFDBsmTf35EFn/yiRw7etRCrPxEP2rbtq3y2YoVulXhedpxDxmEwT7YCXthN+yHHbEndsW+Zdkdf+AX/IOf8Bd+w3+WK408VcpJV/UtKqrbuW3bAY2SE96NCvA7QNhiT1dyTdxhCXWCrJCHqU4Nk+JkcK8e8vJzM2Ttmq/lSGmpRwx2nDx5UlZ/+aU8//RTugVRYZc8fP99smDuHCnZv986qnyFnbAXdsN+2BF7YldXO5fV2uEf/IS/8Bv+w4/403KtkadpcL9eDVtmN7wvI96xVN1Zj+BAHTKW0aLxe3vyb0ZcjIxSd+RZLzwvSxYulB3bt1kIlb9OqIq2ZvVqPRUrr1GWJEaESEJ4sDRNT5UhfXrJP95+S44cKbWO9gxhP+yIPbEr9rUnRZcVXeAffo+/8Bv+w4/403KtkacoJyenap+uN+e3aZbzHOuwYoLqnWM4upaehIvjmWlP+NK1Q4EC+V75RLUSnhKWuWrHjh3ywjNP67mNtStX0vMaec5V97prNaC3jR8j323c4JEDNtgTu2Jf7JwaHaHtjv3xg7tv8Bd+w3/4EX/iV/xrudqoPOVwOKqmxca2y8lK+2dmQuwhZrvT+XavaHbYSAeez0xNIiT76P33ZN++vXL8+HELEc/S56tWydjhw5iNYQ3c3KDL4acqnZ+CdlDvHroP56kDN9gV+2LniaNu0XbH/twwygor9WeV8CP+xK/4Fz9bLjcqD3399cqQwnZth6sW6v3EiNDSuOD6Z0Yb3R0YWKOa1KpyjV7cyXD1s08+rqcpefpMj+VLl8rAnj30KgHg1M+rVJmYKOyvwjLK8sncuR5fDvK3QpUFu5Nn+nK1KjNZu9qPKpz2n/od/sSv+Ler8jP+tlxvdLk0e3bRleNHDonu36Pb5OYNMleyj0aEXx23vplz+pU9lB+m+gONU5N0a/buv/8lBw8esDDwbK1csUJG9O+n9wpxr2yEZIN69ZBFn3zisS2zu7A79scPjVOStF/OflTww/NP/IlfKTt+xt/4Hf9bKBj92urQunl8w6SEYhVafeUICjjpOjv/jKPUv+2wMUL9nWlGT/z5YVm39hs9E95bpCvbgP4+U9kQ9scPTzz6sPYL/sFP7mGl/W/8G6P8jL/xO/63UDD6tcSCxEem3t+8dZPsP8fU919NuHGugRCe7zCYwD4aIwb2l9dfmSmbN2+y3O098sXKZgt/4Bf8g5/wF35z9yX+xdck/I7/4QAeLDSMLqVWrlx53R/vuSdvYI9urzVMTNjNhjrufTMSQDqnWt0kOempcvuE8TJvzsd6Nrs3ypcrG8Iv+Ac/4S/8hv8oq7tv9c1V+R3/wwE8wIWFiNGlkPLJldMffLBV325dXsmKj90THeCvjP/jEUecwSgX8X+75rky44kn5Osvv5QjR444PeuF8vXKhvAPfsJf+A3/4Uf3m6nT3zUF/ysOdsMDXKhLmD7cpZAKFa5/YOrUFr07d5qVnZK0J1x1oJmN4OoEEiASgkTWqyNF7drIrOefk+3bPOfh9M9VRahstvAXfsN/TONiuldZLRz+hwN4gAv4UJzcYCFj9HPEdJ3iO+5oOqB791cbJsbv1s/PdChxdifauWtVdYkLDZQ+XTrLX2e/Lvv37bVc6N2qSJUN4Tf816eos97TBL/iX3ef65Fn9RMu4OOuKVNyzfSuny35Tdv83MTcrLQH0mNjduk5dm5GJ6Tgd4xksU5q9NDBMvfjD32moqGKVtkQ/sOP+DNO+VWPVCo/U7lcKxy/gwv4aJqZ9hC8wI0FkNHFSNn7ShUaRDdKS7o3ur7/VwB29jO0H4zN1J/kyHAZO3yI7mj7mj5dvlyG9eur7vJBZVa2gT27y8L5832qstnCn2OUX/Evfv7xzVZxoLjAJnACL3CjTjV9uIvVB3/9a9iQPj1vT44OZ3j/+7JCR73JqDJyYniojBo8SN3d5+vZ8b4mWrbh/fuVUdmq6hkkA3p087mWzRb+xK/4Fz9TfvzuzoKucIoTeIEb+LFQMrqAqrRs1Ghok7SU1aoP9r0ekXIzLlutsaU2odXYEcP0nd1bN9i5kL5ctUomjLxFT5q2+y/Ywb/adXo7Alq25UuW+OzKcfyKf/Ez/sbv9lZ7NhPwASfwAjfwA0dOnIzK1PTp06s2yUzupMD6X1xwoJ454H4XAzgMzm7CY4b5Zujoqm1btsjTj/1Z8hpm6v38a1xzld5Wrmblq/U6sN9OmigbN6y3jvZd6ZBS+Ru/4384cGcDXuAGfuAIniy0jFyl7HnFgJ5d85s1SH83JTqc1y2dffdSSd/Z1V2NLa8x/JKFCzxyWcylFLP5VyxdIuNHDNd7OIbUdrbsDBz06NhB/vbmGz7bqrsKP+Nv/I7/sQE8uPIBL3ADP3AET+pUs6+Ju7q0a5XVumn2zPTY6NLY4ABlvLNn72NIQifepILBFy2YX2H2Azl86JCe2T/94Qfld7feKhNHjZQ/3vV7vWX5tq1brKN8X/gbv+N/OIAH1xuyk5ea6qYUIHAET3BlIWY0e7ZcecuAAf55jRr8KSMuZg/rmFwrGbPA6RizyjcqwF/6di2Ujz943zJ/xdLhQwf11uVfqH7cpo0bL/o9AL4m/A8H8AAX8MHqAddKB0fwBFfwBWcWchVXYwcP9uvYqtWIzFjHsqgAP20s17sV/2b6TlCN6tKloK2889abHreN9+UW+/hXZOF/OIAHuPhhec4PzPATnuAKvuDMQq5iStntitZNGrVIj4v9wBFUv5Q7kqvRSLxRBWN2yG8hr770kuzbu8dpcaMKLTiAB7iAD1YMuHIDR/AEV/AFZ+q0itt/Gz1wYEKjpPg/R/rXLXE1lG0sOsDE5Sz6nPHE47J7506npY2MlOABLuDD3tfE/WZNgi84gzcLvYqlefPmVb+5VX5xZkLstsh6fm79NOfIIzMk2JnpjknjVT/lM8vERkY/CC7gIyM+RvPiPkIJV/AFZ/AGdxaCFUPFo0bdMHxgv3Y5GakLeDOK+/M0DMQSCzq9Q/v1loXz50lpqfesrja6fIIL+OAtq/DivjQHruALzuAN7uDPQtH31aewMCOvcYMXE8NDdtsGcTUOe1Kwh2CH/Dx5bebLHrEjsZHnCj544Qe8wA38uDPFT3iDO/izUPRtKdtUb5efNzI+PGRjpH8dPR3L1TB8ZoZEg8R4eeaJ6fptmUZGFxKcwAvcwI9768ZneIM7+FOn+HY4WVxcfMXY4cPb5WZm/Cfcv85pV4OQGFUi7lZ3IJk0epR8+803TksaGV2E4AVu4AeO4MmVL3iDO/iDQ3i00PQtKVv8pmfHjgEtshs8kxEbXcq0GvfKVu9G5wNKJtfy4PKoF29nYHT5BS9wAz96IoTiyZUveIM7+INDeFSn+d76t9dnzLipW8f2hamOqBWxQQE6tnYNHxlFwkANkxLkqccelYMV/MG10c8T3MAPHMGT6+gkvMEd/MEhPMKlhajvaNSgQVn52Q1mxoYE7nZv0fjMQ8nkqAi5fcI4+XTZUst0RkY/XfADR/AEV2XxBofwCJcWor4hVf5KBc2a3pIaHbklur6/c42aVXDuNrrJr3a9FLZtLXM++sDnZ/Ib/bqCHziCJ7iCL/dBODiER7hUp1SyUPVuzS6eXWnS2FtSctLTXoquX08iVDNuF5rEXu8Yg62oH/jDvbJ71y6nxYyMfoHgCJ7gCr7gzJU7OIRHuIRPOLWQ9V5NnTKlVqfWLSdnxDm+cO+nkdh+jk7r2OFDZcmiheaZmtElERzBE1zBl/tOy3b/DS7hE04tZL1XYwb1TWqckvhOQmjQsXA/ZyHtwtKcM0TbIDFOXn52hhl9NLqkgie4gi84gzdX/uARLuETTi1kvVPTiotrd+3QbmBSROjaqIC6Z41A0rSzQxT7SowY0E+WL1lsmcjI6GztP3FKPt9/VD7ZdViW7j0im0tPyInvT1t/Pb/gCr70/iWKN7hzbdngEj7hFF4tdL1Pfbt2bprXKOsvjuCA/ezRTiHtxJAsI0WtmzaR12fNNDP6jc4SVengie9l/aHj8t9tB+Xh1bvk9k+3y92f75BZ6/fJyn1H5PDJC29yBFfwBWfw5j5RGS7hE07h1ULX+9QoOXFkWkzk1rJGIPVztZo36rvO2jVrPOJF8Uaeo61HTsg/thyQP3yxQ8Ys2yL9FmySHvO/k96ffCcDF26S+7/cKV+UXLh/D1fwBWfwBnd2dEWyRybhFF4tdL1HqoxXFk+eHJDmiH7CERig9213LSAzs/ncvEGGPPP4Y1Ja6lkvYDcqP21RIeJ8FS6+sG6vTFi2VTrP3SDtP14vHT/eIIXq353nbJBWH6zTle9vm0ukRIWYpy8QUcIXnMEb3OkVJRaLfIZPOIVXuFWneM8WCi+88PCNQ/v07J6ZEDtHF8qlopFoztmwZcq4MbJy+TKf3FzV6OJ1SlWWQyokXH3gmLy2Yb/cumKbbsGKVMXqMnejTl1J89S/VWr/0Xr99xnf7pF1h47Jhbpv8AVn8AZ38OfKo80nvMIt/Fooe776de8U0SG/+ZPpsdG7uHO4tmr8m1W1jZMT5C8zXzbr1Cq4Tqlm6duDx+Wvm0rkXtUfG7Z4s3RTFepm1Zp1UpWNCsZnO/GZlq4PlW0tle24XMz2tHAGb3AHf+5MkuAVbuHXQtnz1aV9m9wGSbELE8KCzxSGn8THvO6Hu8vAHt1kmRmBrLA6eup7XVE+2H5Inv5mj4xeukVVMBUyqlaLlsy1grlWNMLIth+ul8GLVBipKui+4yqMtK55IcEb3MEfHNrjCDaf8Aq38Guh7Nlat25dtS4d2gyNCQrYHK4KQCHsxJIHth5rmd1Inn1iumzdUnH2PDRyipbsgOpnLd1bKo9/s1tGLN4iveY7KxJ9siKVymrN+H2hFU72Vf21P3yxUz7de+SCIaSr4A3u4A8O3ZfgwCvcwi8cW0h7plgfdNuECaltm+U8HhXgdyCktvOZhp14fSuraHnN0acqhq4IO/ka/SAq2af7jshfNu6Xe1btkAELv3O2ZiospKK5VjDXREVrp1o8WrUxS7fKs2v3ytI9pVKiWrWfIniDO/iDQ3h05RNe4RZ+4djT17td0aFlXu/GyYkLowL8j7s+W6PJ5qUQvEft3t/91mxJV4HE87BvDh6Tf289INO+2iVDF22WojkbdZ+MAY+yKhihJH/vqBKfOYc+HX073U/7CS2aq+AO/uAQHs9+JFWDjV+Pw2/71s37FBUVee6oZFZWVuUGibG/T4oM3RtZr+5pOxbmJ9Nl2HilY8sWer+IY8fMHEhfF/XhoGrNmPnx8OrdMnLJFumpQkYq2PlCRipakU4b9Kgjo5OMUn5ZclS1jt/rUPTnCu7gDw7hES5dOYVb+IVjeLbQ9iypcvym+Lbi8FRH1Myo+n6nmQrzwx2jptSpWlniVQf09gnjZeXy5T77iiMjp3YfO6krGbM9ilXISD+LkLGDChmpRK4VzE5UQlozjuHz5BVb9fO2eTsP6+dvl0JwB39wCI9waVc2knM1gN/phLDg5wsLC+tZeHuWPvroo6pjhg+/WVW2Oc7nFj8UgMLYm/i8/Pxzsn/fPqvoRr4kGpz9qh+19uBxeXtzidy5crtqmTbpB9O0VO6tmJ34G5WM43rN/06PTBJu/keFnduOXPr3GcAfHNqbA7lWNgZJwtXnuLDg//Xo1D7v0UcfvcZC3HM0cuTIkC4FBb9NiYpYoyubVQAKQlxMZ5StxnjP1mnTqvmc6ENtPswUqxI9UjhiyWY9vYpBDVJZw/lUPudII2HlRj0r5G7VCv5zywHZePi4HlD5+QHjuQV/cAiPcAmfZyqcxW5SRNjqTi1bTBkxYECQhbjnqLBtfkbrJtlvJEdFHCDjduaZZU1KjAiVccOHyterv7KKbOQr2qpCvA93HJIZ3+yRicu36nCQUPBCAyAcQ2g5YOEm+b2qZISci3aXyt6fOMr4cwSH8AiXNqN240BKiY442CanyZud27TJtBD3HLVv3rRtdkriZ2wj5lrZeJbB5M/87Iby+CMPydYtm63iGnmzGKRg6H2NNcWKStZTtWTOgQ/n87Cywkb+RktHv43jx6iQcfrXu2X+7sOy59jlm4wOh/AIl/BpP3Oz2YVjeIZrC3HPkMr7lTe3yh8QHxq4I6peXWdzbCXn/n3VpHvHDvLPd/4mBw4ccJbWyGtFyLj24DGZvbFEPy9jWJ6KxDC9DhndKpidqHx2WElr9icVbr637aBeRnMxy2UupeAQHuESPuHUlVs4hme4VodfZaFevlIZ+c3sF16o265F8zsj/Ooc4M39rpn2u76KTqOHDJK136zxuknH36tewyYVJs3deVjeVWC8v/2QLN97RHYerXiTp4+c+l7WqEr23vaDqjXao4fyqWAFH517hJFEa8c0rJvVsUyz+sPnO3RruELZ8XJXMltwCI9waTPqyi0cwzNcvzVzpp86pfz3l1y2bNnVd942sUGLxlnPRdarW2oPjOgMq+R3w3W6A/rHu4rl+PHjzpJ6iZiNvv7wMXlZ9SUAi2lF/VUn/ncrt8vbm0rkW+uO/HMfsHqLWBXNaunFe0pl+prdMkLZotu8784MbtD/cg8ZnX/bIIWqgvGZicOjl22RZ9bu0bNImOVf3naDR7iETziF1zMVTnEMz3BdPHl8Qzi3kC8/FRcXVxnQq3u3pukp/1OZO263bMS9zoV6taRpZprMfP45q4jeo13HTsrz6/aqu/FmvZ6q7Yfr9B26u4JnlDU8/Y41cuarKlWVgpZ8prrh/O6z7XrhpvNZmHN9WVn9MhIV0F6HNnbZVnnu2706OvhO2eqYB92d4BI+4dR1YSkcwzNcD+pW1B3OLeTLT0VFRdXymzaakBHvWK0y971rZSMOjg0Jkn7dush7//6XnP4FT/4vt44rIJYpyAClzQcqTJrzw92bu7Xz4exGGaf+PmPtXlmwy/ng9aQXlfF8Ytj96wPOKVZ/+nKnDLIqmR5hVOV2r1wk7OOsiMzc36CXy9yn+mXckDaoSuZppoFHuIRPOD1rNomzsn0P161ysifCuYV8+cnhcNyUmeD4U0J46B62DLMzS9PMuqGU6AiZPGaULFu8yCqid+jQyVPyP9U3Ga6AaaNaNCrWGajUvwmRSPy7uwovJyzfKjPX7Zcv9h/Ve2f8kilF5SluFrToH+48JNNUJaPCUD4qGOUtM2R0tce8DdJXhYyTlD1eVf0yBlJYTuOpoTZcwiecwivc2o0FPMN1ZnzcNDi3kC8/+fn51UyOCn8pISzkhOv2B2S6TtVrpWFSvDw67U/y3cYNVvG8Q7RscxVwwNbyg3Vl3s2BjpE1Bgj4eYvqy9z7+U4N2Wf7j8gxOn1epN3HmMdYqqdI3b5ym/Rd8J3cPIdnYc5W3L38rjZwtvQb9DzGV1TISUvPPiKeLriETziFV9fKBs9wnRIV8TKcW8iXj1Rer+hUkB+tKtu/4kMC9bwy18p20zVXSq6Kh//+5pty+LD3rchep+7K96m7O7Mb2n/kDKHc7+p2ojIy3Yi+DMPa7AbFg17Cp4PlNOJ2MTqt/ttz/KRukd/edEDuUTcL5jFSVt2SlVFWu7yMRJKYYkU4Pe2rnfKfrQe9aqQWLuETTuH1rJZN8QzXqrL9B87V4eW35EbFvJVHDOzXRlW2+e7bivNE/qZKV0qb3BzdVHtTf83WIdVvmaNat7tW7dCA2f2VMkMplYCTYwpV/47RNx7YPrJ6t77GHhWaeZoFaHgZ3Pn7lhKZ+gVbEmyRXirftGL0S8/Vmts24Dhav3s+36H7dgx+lNdQ/s8VXMInnMKrPZPETnCdFBm+AM7h3UL/8mvxV4trDOvXe0ByZNgKe2CExL/JNLsY9e5SKGu8dIoWlYOJtQx5P/nNHhmrKg/9E3sq0rlaOSBkGhLhV99PNukJuS+p0GzB7sN6NrwniBDvI9XyUq7xy7fofhmtsn1DKatc/J6y2xvu/P6zHfL6xv16tPJyTLH6tQSfcAqvcOvOsuJ7JZzDu4X+5dc999xRv0N+3tj40OAvXZ+vhagM0xw7guvL6KGD9cNDb9b36u5HC8CeFzyQ5ZkbcAIm/ZVztQAkWjmOo6Ur/my7XvzIg2G9BZt1/cslBj+o7J+pkPHVDft0/4opU5SBG0RZNw9dBtVi2+Vk8GO8Chn/zBQr1S9jMMjbpR9uK07hFW7h12YZrhXfX8E5vFvoX371bN8+qklayj2O4IB1ZzKnkr0CVoWXcuu4MbL+22+tYnmvGE2jlfv6AH2bErlTVRz6Ks6Q64fK5Q4rgDpDS+dcwCGLNstU1S/6lwq72Eb7ckXXfA+rpV9VLREtLUP5PC+kEp33hqF+7/z7Bhm6ePOZsJhZNTyD8wXBJ5zCK9zCryvPiu/1cA7vFvqXX+OHD2/YqU3LWSqTe8ikPTjCpE4+N2uQIQ//6T7ZutW3NvZhAICFkS+u2ye3K3CpdIRXhI5lQWuDS6VjZygGHWhVnlIh3PvbDzqfQVnXvtSiNWP4nTmItEYjVShMPuwR1LJuEPyOmwNhMIM+eoqV6tO9+Z3z0QbTtnxJ8Amn8Aq3rpOSrUZjD5zDu4X+5dfEUaNade908/vpcTHH2CzFjnXth4Od27aS12a+JHt9dL8RBj3+t/2QPPjVLr3gkVCRlg6Inc+cfgwxlZFjqHD8m621X1KVdtX+I7rl5JHDpRDXoR+1bG+pniLFjBf9/Srp71eprPyRbz0zRP2d2SKsln722z2yRF3n4Enf3CIePuEUXuHWnpSsxx4U1/Ddo9PNH9ymeLfQv/zqkJfXpmlG+kfxoUHOzX2slo2di8i0yqD8/a03paRkv1Us3xN9rw2Hjuth/gdUpWPYnylKtB4A6wqzK9RUSAYkAH+YCi1/r8JS1nOtUi0HD4F/iZgOxYsnmGo2ZeU2Pd2MSkTLe64pVroiqrzokFH9e4w1M4bnbgym+Fpr5ir4hFN4hVv4hWN4hmv4zs1I/xjeLfQvv3IzMztlJcatiA2ufzLMZSct/2pVdaaH9Oktcz/8UI5UgL38qSBMsGXgwV52AtiEl+cK10g8w9OVUyX6c7SS/9pyQG/F/VOH0Xmex6uVeCHFtC93SX9V8fX8RN3Slv395IsbA/mkstECPrRa5UH1KdnewEe6ZecVfMIpvMIt/Noss71HdKD/yeSoyIUNk+PbW+hffnXv2LF/22ZNt6c7ovUIDhklg/ZyhQm33CKfr1xZYfbyJwJkNykq3fPf7tULKnkOxeACFU+Hlm7Q2y0Kf7MrxPDFW+QRa0Elo4fMRDnXZBSmhdHq7FL9yI93HtJzEWnJGPzgely3zJDxzHc6bwSsZpjy6TZ5beN+PVp67HsWF1UMwSecwqsrv/BMKJkYESK5melrC/Jze1joX34N6t17WFG7tocbJSXoGdN0Jl0zO2n0KPnq888r3E5a9Jc2HT6hB1GeVf0l+nNUNueo5NnQn4FfJY6x97gnHL1j5XY9W/7jHYf1fvgsS7F1QlUyQlgqBuvsnlizW89H5PkXLSUh47laMxIDIHwP/568YpsOYZfsKZVtR0567bzOnyv4hFN4deUXnhmZzEqIlY6t8vcN6NFtsIX+5VeHFi1GtGjc4EhaTJTzYaDVstW1Mnvb+LH63VgVdds6mOUtK3/f7Jw5T4gG3FQEQKfFca0AdqLPxCggxxAKFn+2Q/ef/r65RD+I/lglKhjP7BjRvE21SDz3s3cNdm/FzlxXfR8hJX3F7vOcz8toQbnWFi+Yx/hrCT7Xfr1G8+rKLzzDdZojUlo0anC0Q6tWIyz0L79iguoPj67vX8qrUsmcndiLj30j2XmWt/b/FFFwXmB3scnTKzIPxAnzaJle/26/bq3YRQr4nWGeM6RzrRSuoSU/eT7XT4WjjA4OWUTarIfj+UyY2kNVNI491xQr+1p2S8fcRx6wU3l5WH9Uxaie3Jb9VCZIP3V64O6duzSvcAu/rjzDd3R9vyPwbqF/+VW/xo3Dg2rcWOq6RySp9nXX6kw/Mu3+i16dfUId992GjbJk4QKZ8+EHequx+edJ8z7+SB+zWB2/cf166yqeLfZAXKRCtZkb9slvVaVjqzemPnWas/6cI5dUFForwktargIr8W+91YA9AHOO86m4HdX1OYcQ855VO+WN70p0v5KlNJ4u9nhcvnSJfPTB+xdmwkqfzJmjp2CdOHHxrTWcwivcwq8rz/AN5/BuoX/5FVK31vCwOjVLI/zPnoTMxpdk+olHH7GKcm5xBzpQUiJzP/pQHrrvjzJh5Ai5ZdAAPX1mzLBzp1FDBqljBsn4W4bLYw9Ok6WLF8n+/ft+8h2tPLT96An9qiRWBvCiCCqB3ac7Xz+LiuOeyjqOxPUIGamIfVTrx2DNk2v2yPxdvJDC88P6UydPypqvvpKXn3tWbh07RoYP6HdBJvi785ghupV6+43ZsmnjRuuKFxa86sqm+HXlWfOtOA+qXWOYhf7l16WobIcOHpQP33tXbhnYX5KjInhlj94WOiEsRBLCz5PUMRzH8Y1TEmXciGEyR939CCE8XdwOmOrErlLMlr//i536UQGVh0cBtGakC1Uo12Qfa5+rX6+kPjMyyeME5jEyYnnES9bYbd28WR74w1TJTk2S2JBAiQsNuggmnAkuSLmZ6YrBh+XAgRLrqufXhSobvFvoX35dqLI9/sjDVjHOrbVrvpY7JozXlafGNVdJrcqV9HMOVs2eN1W7Tm/SUkt9F+dg7OkPPajDUW8SszxW7jsqb6nQjre0MCBCaMhzL0YV7aH5siqYnfg7x3G8c9rYej33kZe8M4+TZ2+/9EH55RSV47///Kd0bV8gNStfrbkok4FzJLi48erfSM1rK+ktDxYtmC+lF7GeEl7Lqmzhfnpb8iNJUaFj1GHls8vWpahsixZ8wrCqBNx4vR75YbhVP9/4CYnvq1XlavntpIly7Kh3vh2HYXyW4DC1iuddrBBneQ7PywgvqUAkKhThoXN43/k7/s5xHM95nM8jA7aK88bJwps3fSePqRtnXqMsPXWKpS9l+f18KaD69fq8dnnN9KY+FzNQd6HKluqIHKcOK58FpJeisi1dtEi6dWinK5p+Vmc9QvgpyRcqG2LUcocK9Ri8mP3dfj39a8KyrbrPpUcbVXKOKjqT/Zm/cxzHcx7nM1na27ZlsOVplc0OI6MD/W+x0L/8uhSVjeUNd//2dkmNidQrZWtWsDDyXGLkkvmNbAr7lgoFmQbGhGUWezJ7n5985vf8neM4/td468vllqeFkXZl85EBkvcq1ADJTxFtk07qf7RUjGQy8ZmffOb39jG+JDNA4qZLUdl4YMmsayaCVpSh/1+qClBEjxz6L9fKZh5qG/3aMg+1LZnpWkaXQ2a6lpKZiGzkC4JPj5+IbJbYGPmC4NPjl9iYxaNGviCvWDxqtkUw8gV5xbYIZsMfI1+QV2z4U9G3sjPyDXnFVnYVdZNWI9+SV2zSWpG2HzfyXXnF9uMV5cUaRr4tr3ixhq+/MsqoYsgrXhl12sdfhmjk+4JLr3gZosqrT7/m18j35TWv+UW++gJ7o4ohr3mBPXI4HDdlJjj+lBAeuifCrbKxajYlOkImjxmlm2ojI08TXMInnMLrWS0blU1xnRkfNw3OLeTLT0VFRdXymzaakBHvWB1Zr+73dueSzPJwMDYkSC9Nf+/f/zL9NiOPEjzCJXzCqT0ZQ/OrOIZnuG6Vkz0Rzi3ky0/FxcVVBvTq3q1pesr/VOaOu1Y2VgKE1qklTVU8zKYrRkaeJriETzh18npWZTsO14O6FXWHcwv58tOyZcuuvvO2iQ1aNM56TmWu1PV5W6hKbL5C0/zHu4ovetW2kdHlEDzCJXzCKbyeYVdXtjqlcF08eXxDOLeQLz+pPP9m9gsv1G3XovmdEX51Dtgtm51YrkAaPWSQfnholtsYeYLgUD/MVlzajLpy63ywXfsAXL81c6afOqV8Nmd1l8rIlZ3bthoQGxq4I6re2VskEAcH1qgm3Tt2kH+983c5cOCALqyRUXkKDuERLuHzzORjIjOVYur7S1Jk2I6i9m0HqMOvslD3DLVv3rRtdkriZ4nhITrDduzLpE5i4fzshvL4Iw/J1i2bnaU1MipHwSE8wiV82pOPCSmJztIcUdI6p9FnPQs7trUQ9xx1btMms01OkzdToiMOulY2nsiTEiNCZdzwofK1mbpl5AGCQ3iES5tR3bJZlS09NuZA5zYt3xjYvXuGhbjnaMSAAUGdWraYkhQRtloPkliVjUrH3aK+aqY75OfprcZOmz1JjMpR8AeH8AiXujWzeLXZTYmKWNOloOC3I0eODLEQ9xw9+uij1/To1D4vLiz4f+Eqs+Fk3EoUhI0vGyTGy8vPP6f3AjQyKi/BHxzCI1yeqWg6OStbanTknDFDhtz80eyPqlqIe5Z6duwYkBAW/Hx0fb/TrhOTKQx78bEl9O0TxstnK5abHbeMykVwB39wCI9w6VrZ2DcySvGb6oiaefdvfxuhTvGMUUh3ZWVlVW6QGPv7pMjQvZH16p62C8FPRnvU76Rjyxbyl1kz5dgx733bjJH3Cu7gDw7h8axZI+on3MIvHMOzhbbnqaio6Mr2rZv3aZycuDAqwN+5CZB1xyAuZgVsfGiQ3nl2n9mXxKgcBHfwB4f2jgI2o/AKt/DboWVeb4V0+c7yP5+Ki4uvuG3ChNS2zXIejwrwO8AmQHZBSHRG2bloUK8e8unyZeouc8wygZHRry94gzv4g0N4dOUTXuEWfuEYni20PVPr1q2r1qVDm6ExQQGbXQdJSDzLqFetqrTMbiTPPjFdtm4xGwEZXT7BG9zBHxzaz9bsBK9wC79wbCHt2erRvk2uinkX0VRTCDsmpskOUgV0BNWXQT27y/Iliy0zGBn9+oI3uIM/OLRDSJtPeIVb+LVQ9nz1694pokN+8yfTY6N3URC7MHbBWDfUODlB/jLzZSktNSu4jX59wRm8wR38uTNJgle4hV8LZc/XCy88fOPQPj27ZybEztEFcikYqW7VyuruEiBTxo2RlSqGNpOTjX5NwRecwRvcwZ8rjzaf8Aq38Guh7PlS5buyePLkgDRH9BOOwAC9vNz1TmK/kLx5gwx55vHH1F3HvAvA6NcTfMEZvMEd/Nks8hk+4RRe4VadcqWFsveoUXLiyLSYyK3R9f2/P3uI1bmwNLjmjTJiQD/9DjdeYGdkdKkFV/AFZ/DmukCUBJfwCafwaqHrferbtXPT5g0zX1dNd4nrMzcSha5b9Vpp07SJzH5l1k9+Q6mR0cUIruALzuAN7lw5hEv4hFN4tdD1Pk0rLq7dtUO7gUkRoWt5VSpTYey7CrOsA268nt1m9V3HjEwa/RqCK/iCM3g7M7tfcainZiku4RNO4dVC1zs1ZlDfpMYpie8khAYdC/dzFtIuLE0402UaJMbJy8/OkKNHjlgmMjL65YInuIIvOIM3V/7gES7hE04tZL1XU6dMqdWpdcvJGXGOL1xbNjv53VBFbxk2dvhQWbJooRw7auZMGv1ywRE8wRV8wZkrd87KVlvgEj7h1ELWezW7eHalSWNvSclJT3spun49vcusa6FZkk7T3jglSR74w72m72Z0SQRH8ARX8AVnrtzBITzCJXzCqYWsd0uVvVJBs6a3pERHbilrZBJjMFetqKCNzP3oQ7MLl9EvEvzAETzBFXy5RlT2CCQ8wqU6xTcqmq1RgwZl5Wc3mBkbErjbtbLZhedBY3JUhNw+YZx8umyp02pGRj9D8ANH8ARXZfEGh/AIlxaivqPXZ8y4qVvH9oWpjqgVsUEBZ41MkvRzN3UHapiUIE899qgcPHjQMp2R0cULbuAHjuDJdajf7qfBHxzCI1xaiPqOlB1+w0ruFtkNnsmIjS6l0+p+x6l3Y1VtoIE9u8vHH7xvRieNfpLgBW7gx9k1qXoWX/AGd/AHh/CoTvPMldi/VKwPGjt8eLvczIz/hPvXOe1e2VjywBAt2+FNGj1Kvv3mG6cVjYwuQvACN/ADR+5LaOAN7uAPDj1+vdovVcnp0ze1y88bGR8W/F2kfx09WOLeeWUTFl7hM+PJx2Xnju2WKY2Mzq2dO3ZoXuAGflxv5PDFZ3iDO/iDQwtJ31afwsKMvMYNXlR3oN22MVwNwwgSsTVbjb0282Xz7M3ovIIP9hWBF7iBH3em+AlvcAd/Foq+r+JRo24YPrBfu5yM1AVJkWF64xVX43AX0jOzleGG9ustC+fPM+vejMoUXMDHsP59NS9w496qwRecwRvcwZ+FYsXQvHnzqt/cKr84MyF2W2Q9v7MMRGIUibg7Iy5G7pg0Xr5Y9ZllXiOjHwQX8JERH6N5cZ9orMNHxRecwRvcWQhWLI0eODChUVL8nyP965a4GojEHQnD+Ve7ThqnJsmMJx6X3Tt3WiY2MhLNA1zAB6uv4cU1QrITfMEZvFnoVTwpe13ZKrthfrrD8aEjqH4pdyF3Y9W9vrIeVbq5ZQt57eWXZd/evU5LG1VowQE8wAV8uK++hiN4giv4gjN1mvctCr2UGjt4sF/HVq1GZMY6lkUF+J0xlKvRMGZQjerSpaCtvPPWm3Kogj/wPnWyYi+0xf9wAA9wAR/uzPATnuAKvuDMQq7iavZsufKWAQP88xo1+JPqn+2Jru/v1n+r7XxAWa0qG2hK366F+sFlRdThQwdlw/r1qp+ySjZt3CgnT5yw/lKxhP/hAB7gAj4YHLGZgR84gie4gi84s5Az6tKuVVbrptkz02OjS2ODA5TRnGGAbUDuVvTf2LBlzLAhsmjBfDlRQWArPXxYFsydK9MfflB+d+tkmThqpPzxrt/Lf/7xjmzbWnH23sTf+B3/wwE8uLZoTl5qCvzAETzBlYWYkS1lyysG9Oya36xB+rsp0eFHmVbjakgSHeDgWtUlITxEG3zJwgVy3Md3VT5x/LgsW7JIxg0fpiCqr4BilUR1iQsNkh4dO8jf3nyjQuwsjZ/xN37H/9jAfeQRXuAGfuAIntSpvj1L5Odq+vTpVbMzkzunRIW/Hxcc+KPnb/wbAwdUv14ZNEIvDJw/d47TGz4qwsVHpt0vTdJSpGblSlLjmqukVpVK6t9Xa7DunDxRNm5Ybx3tu8LP+Bu/43/3kUf+DS9wAz9wBE8WWkbnUJWWjRoNVXCtjgsNdK59czMqdzUMzr4SY0cMk4Xz5/vs3f2zFSvkloH99W69zpbduYcGIVSd667Vk26XL1nis6/gwq/4Fz/rfUSU3/G/a0WDDziBF7iBHzhy4mR0Xn3w17+GDenT8/bk6PDVyojf61evulW4oJo3avASw0Nl1OBBsuiT+T652euny5fLsH59JS4kSJc3xKpsATdWVRWuqgzo0U2V/ROfXHCLP/Er/sXPlB+/u7MAH3ACL3ADPxZKRheSsvOVD0ydGt0oLene6Pr+XwEYBrUNbBuZV/7wMDM5MlyFGEP0q1t9TStVyza8f78yKtv1esYELRt3fl+sbPhzjPIr/sXP+Nu1omkOqGjKJnACL3CjTjUjjz9N8pu2+bmJuVlpD6THxuyKCaxXhrGdFS7wpmo6zBo9dLDM/fhD2b/Pdx58U9lGDCCMDC6zsvH6I19r2fAffsSfDAThX/z8o+6E+h1cwEfTzLSH4AVuLICMfoqKi4uvunPKlNz+3bq91iAhbjfG1i2cm9Hpy5CocDx/efuN2T5T4SpaZcNv+K9vl0LtT9u3Z91kXTiAC/govvXWZvBioWP0c3T69OnrVWjQonfnTrOyU5L2hNetrV/3c8bwVgJEtiuLrFdHitq1kVnPPyfbt22zXOi9qkiVDX/hN/zH/vt+11fRZXb3Nf6HA3iAC/hQnFSsmfy/lpQfrpz+4IOt+nbr8kpWfOye6AB/ZfSzX0VFYkSKJRZM32nXPFdmPPGEfP3ll3LEi7dXqAiVDf/gJ/yF3/Cf+1IZktPfNQX/Kw52wwNcqEuYPtql1MqVK6/74z335A3s0e21hokJu9mj3d0ZJIDk9a0htW+SnPRUuX3CeN3RPnbcOx8N+Hplwy/4Bz/hL/yG/8pq0fA3fsf/cAAPcGEhYnQppUKFyo9Mvb956ybZf46p789jAR27u7dwJEJKZoKnxkTKiIH95fVXZsrmzZssF3uPfLmy4Q/8gn/wE/5y37mYhH/xNQm/4384gAcLDaNfS51bNUtolBx/V0JYyGpHUMBJZg7YTnF1EHCyE25kgJ+0adZUnnzsUVm/bq1Xrfr2xcqG/fED/sAv+MfeGdvdh/zEvzHKz/gbv+N/CwWjX1uzZxddOX7kkOj+PbpNbt4gcyUgRvjVcXsW59yXkvifPSmYFc4iwwkjR8i7//6XHDx4wHK9Z0tXtv7Ot7D4QmXD7tgfP7A1OH7BPz8sk/lh9j7+xK+UHT/jb/yO/y0UjC6Xvv56ZUhhu7bDmQuXGBFaGhdc/8zUnR8qnfMOyZ2zVpVrxBFYT/p37yrPPvm4LF+6xOOneS1fulQG9uwhMYEBP6pszCChLJ/Mnevx5SB/K1RZsDt55vlYrcrXaL+4tmYk7T/1O/yJX/FvV+Vn/G253qg85HA4qqbFxrbLyUr7Z2ZC7CHWMennMG4O5LMOK29yvmCBLc+4u370/nuyb99ej20ZPl+1SsYOHyYqhHK2ADc5Bw/8dP/mOhnUu4csXbzIY5cbYVfsi50njrpF2x37M9roHjbafsJ/+BF/4lf8i58tlxuVp3Jycqr26XpzfptmOc9lJjh2xQTVO+fACQ9ImfpDCKbumNK1Q4FMm3qvah3meORynR07dsgLzzwt+dkNpXblSnoQAVDrXnetbgFuGz9Gvtu4wSMnImNP7Ip9sXOqnrF/w5n9Qtx9g7/wG/7Dj/gTv+Jfy9VGnqKBfXs0ys9pdH96vGOZI6jeEfYQBMiz+3LOxO9Z5YvjM+McemrQqy+9oFsJT9oYlhbr69VfyZ/uvVvyGmbptVzxYcGSk54ig1Wr9s5f35IjR0qtoz1D2A87Yk/sin2xM/Z2D/FJ+Iff4y/8hv/wI/60XGvkaWK6Tt+iorqd27Yd0Cg54d2oAL8DOJB1Xz9ysLqLEsYwG4Gf9CEaJsXJ4F495OXnZsjaNV/LkdJSj3ixPrPfV3/5pTz/9FM69B0xsJ88fP99skC1GiX791tHla+wE/bCbtgPO2JPPafVxc5lRRv4Bz/hL/yG//CjmX7lBVJOql3QrFnrrMTYB7LiHd8QLjL9p6y7KomRMJ7vMD3IEVRf2jbLkdFDBsmTf35EFn/yiUfsyAzM27Zt1evbaDU2rFvnMWEv9sFO2Au7YT/siD2xK/Yty+74A7/gH/yEv/Ab/rNcaeQtGjNsQFRBXrM7cjLSFiVHhu3Qz+PUnRUnl3WH5Xf2owIGUrJTE3VLMvvVV2Tl8uWyZdOmCrPvyYWEHbAHdsE+2Al7Ybezh/J/bGN901M/8Qd+wT/4CX9ZrjPyNikmruheUFBThV1tWuc2eSopMmyDCldO43TCFncQSIQ6gOKc8lVDEqz+EcPVjz30gG5VSkr2++zK6AuJclN+7IA9sAv2wU7YC7thP+xYln1tu+MH/IFf8A9+Upc3+4V4u5QTrx7cs2d6y6ZNRmenJb+dERezl+UbupU7Rz/CbuUIhdh+gHAnr1GWDOvXR+6/9255/ZVZsmzxYtmze4+G0NdFOSkv5ab82AF7YBfsg53O25pR+dRP7I798QP+wC/q8ldbrjLyFSmnVrlt4tj8ds1yH0+Pi1kZGxy4KzrATwMDCE5QzoaF3zFaZrd4hEmO4EBpk5sjk8eMkhdnzJAF8+bJ2jVrZPvWrXLgQIlHDKr8EpF/ykF5KBflo5yUl3JTfuxgt2BlP2ax7KkS9sXO2Bu7Y3/8oL7K7BPiy1q2bFmVrh06BHcoyL85v0njp9JjY9bTmSe8+TEwPyRCJOCiP8Jzrgh/55tR2PWqY6t8GTNssDz24APyj7ffli8/X+W1GxAxC5/8Uw7KQ7koH+WkvJSb8tv9Mt3/KsNeJOyJXbEvds7PafIUdsf++MFyiZGvS3F11Yj+/TPzsxuNbJKW+mJGXPSKhLCQ4zHWDBQgOlfl404OaIROvHiPn+zp2EKFVT0LO8n4kcPlgT9MlVkvPi8fvPtfPS1s/bffety26eSHfJE/8kl+H/zjVJ1/ykF5KJdrOSl3Wc8ttV0su2E/7Ig9sSv2xc4jBg/OVF9rhvMrqnD+Q/fdF1vUvmB045Tkv6m797qYwHr7mYnuuprAveLp3ymwgIv+iP6pEr9nqzX+zdQklvffOm603vvxb2+8IZ8uX6a3EN+yebNs37ZVdu3cKQdKSuTw4cNy9OgRvY//6dOndfo5ss/lOlyP63J9vofv43v5fvJBfsgX+SOf5Jd821vF2WWyy1dWuKjtYP0Oe2E37IcdsSd2xb4qa6aSGTk1duxYv4JmzVI6tWvZL69xw+fS4xzr40ICJYLwsgzIXBN/s/t0TBDmzTu0BHyOVddIi41SYViytMrJlk5tWunt5+j//H7KbfLQ/ffpQYf//vMfMufDD+XLVat0a7Nh3Xr9SqSL3Z6P4zie8zif63A9rsv1+R6+j+/l+8kH+SFf5I98kl/yTf4pB591n+wCZcc+2Al7YTfshx2xJ3a1TGxkdLZYkDhy6NBGzRtmjUuLiX4qzRH1fqojahPTpKLUndv1Dn8+CEkca/dvCMHYybj61VcomKvoWfwpURHSJD1FCgtaS7/uXfTbM6eMHyd33T5F7r7jdpk29R55evpjMvOF5+WVF184Z+LvHMfxnMf5XIfrcV2uz/fwfXwv308+yA/5svuh5LesctjJLrPdomMP7IJ9sBP2wm7YDztaJjUyOrdUQ3FFUVFRpWG9etUe1rt3QWG71g9lpyfPjwsN2hrhX6ck0r/OcUIm7uYaRBtCK7nDCZi0EGy9xiajTMI9E5qpvzOIEFGvjg7DmO3uTPX0VCeH6jPR6lwocRzHc559DZ1HdV178Ifv43udO1apVkv9JF92Pkh23l3zz8hiuPrMtCodKqryYwfsgV2wD3bCXtgN+1mmNDK6eH3xxRdVxwwfHlOQ17T5za3zBrfJbfJwdlryhynREdt5kwoQ6pYOkC1oXYEtK3EM0NM30qFn9RvOTIqm1alTtbJOta+7VmpVriQ1r736gonjON4+l+vYk3+5vjMkdFbyi82jawvOjYXyUm7Kjx2wB3bBPtjJMpmR0S+XumNX+svLz8b16NSpR5O0lHtSoyNmJUWFz02MDPsqOSp8L/toxIcGOls6F1BdU1lgl1cqK39sqEP+WWRLiJgYEbo3Piz489jg+u8nRoa+RLkpP3bAHpZpjIwuvQiRxo0bVzknJ+fGQb16hYweOrRN1/btJ3VomTerXV7up5kJjt0R/rVLFczHVKh1UqXT4Sr8omUg0RKeC/offXb53UUl67wyr+V6nEo6LLTzRP5UPslvmF9tle/apaqS7W6amfppm2Y5szq2bDG6c9uW2a1ycgIoN+U3oaLRZZeC7tpp06YFDevbN6tPYcf2BXk5g9rm5tyZ1zDj6SZpyf9tkBi7KikybAf7aCSEBemZFHbYaVcG3W+ywjv7s+7XWcdcbOJ4zrNHEEnOcPWH0NH+bvJBfsgX+SOf5Ld5g6xnyH+zhlmD2jRv2qFvzy5Z9957bz1VTrOtt5Hn6fTp0zWeeuyxlCH9ehR1bNViXOPUxGkpMZGvJEeGvZcUGbqQsCwuNGhNTGC9DbEhgTtV+HlEtSQno+v7n6RfxIrmjNhoPZQe7me1QP7nSbRO6jiO5zzO5zpcj+tyfb6H7+N7+X7yQX7IF/kjn+T3iUcfTSX/VlGMjDxfqiW4anpxcdWBAwtvyklPr5vqcARmJSeH9+3atfmQXr36d21fMD4nPfWuFo0yZ3Tv2P79gua5i9KioxZnxDm+Vi3L3nYtmp9Mc0SdCq5V/ZRqsU6pVumcib9zHMdzHudzHa7Hdbk+38P38b18P/kgP+SL/JFP8ku+rSIYGXm/aDleeunpwJ6FhVF9u3TMum386IL+3boVNk5KKszNSO3To3PHW3oVdZ7YMCV+UmCNapOCa9WYFFqn1jkTf+c4juc8zuc6XI/rcn2+h+/je03LZWRkZGRkZGRkZGRkZGRkZGRkZGRkZGRkZGRkZGRkZGRkZGRkZGRkZGRkZGRkZGRkZGRkdNn1f//3/9rPZ25zzSEHAAAAAElFTkSuQmCC;" parent="1" vertex="1">
                    <mxGeometry x="305.92" y="306" width="68.31" height="68" as="geometry"/>
                </mxCell>
            </root>
        </mxGraphModel>
    </diagram>
</mxfile>